<svg fill="none" height="48" viewBox="0 0 48 48" width="48" xmlns="http://www.w3.org/2000/svg"><g fill="#1c253d"><path d="m32.3066 15.6133c-1.8939-1.8961-3.931-3.6434-6.0933-5.2266 1.4789-.89465 3.0311-1.66186 4.64-2.29337.4267-.16.8267-.28 1.2267-.4.3245.39267.7426.69748 1.2157.88642.4731.18895.9861.25597 1.4919.1949.5057-.06106.988-.24825 1.4026-.54436.4145-.29612.748-.69166.9698-1.15029.9521.08621 1.8505.47925 2.56 1.12 1.5866 1.58667 1.6266 4.7867.1333 8.7733.6533.8667 1.2533 1.7467 1.8 2.6667.2267-.5333.4667-1.0533.6533-1.5733 1.96-5.1334 1.7067-9.33337-.7066-11.7067-1.2074-1.14337-2.78-1.82339-4.44-1.92-.277-.57739-.7285-1.05308-1.2907-1.35979-.5621-.3067-1.2065-.42889-1.8419-.34928-.6354.07962-1.2297.357-1.6988.79291s-.7893 1.00829-.9153 1.63616c-.4933.14667-.9867.29333-1.5067.49333-2.1303.83898-4.1716 1.88864-6.0933 3.13334-1.9256-1.26073-3.9711-2.32814-6.1067-3.18667-5.1333-1.94667-9.33329-1.70667-11.69329.70667-2.21334 2.22666-2.57334 5.92003-1.10667 10.48003-.33475.4304-.54756.943-.61613 1.4839-.06856.541.00964 1.0905.22641 1.5908.21678.5004.56414.9332 1.0057 1.2532.44155.3199.96104.5152 1.50402.5654.42667.8133.89333 1.6267 1.41333 2.4267-1.23821 1.9259-2.27904 3.9718-3.10666 6.1066-1.96 5.12-1.70667 9.3334.70666 11.6934.73425.6862 1.59883 1.218 2.54245 1.5638.94362.3459 1.94708.4987 2.95088.4495 2.1299-.0695 4.2299-.5211 6.2-1.3333 2.1334-.8416 4.1789-1.8911 6.1067-3.1334 1.9099 1.2708 3.9423 2.3473 6.0666 3.2134 1.5617.6145 3.1984 1.018 4.8667 1.2.2929.6227.7866 1.1288 1.4019 1.437.6153.3081 1.3164.4004 1.9905.2619.6741-.1386 1.2819-.4998 1.7259-1.0255.4439-.5258.6981-1.1857.7217-1.8734.3541-.2188.6847-.4735.9867-.76 2.4133-2.4134 2.6666-6.5734.7066-11.6934-2.2996-5.4994-5.7031-10.4685-10-14.6zm-15.5466 24.5067c-4 1.5333-7.26669 1.5067-8.86669-.1067-1.6-1.6133-1.64-4.8266-.09334-8.8533.62669-1.6087 1.38946-3.161 2.28003-4.64 1.5879 2.1543 3.335 4.1867 5.2266 6.08.5734.5733 1.16 1.1333 1.7467 1.6667.8-.4089 1.6133-.8756 2.44-1.4-.7733-.6934-1.5467-1.3334-2.2933-2.1467-3.001-2.9488-5.5768-6.3009-7.65336-9.96.41702-.4322.69726-.9778.80576-1.5686.1085-.5907.0404-1.2003-.1959-1.7525-.23623-.5521-.63008-1.0224-1.13225-1.3519-.50217-.3294-1.09035-.5035-1.69094-.5003-1-3.3334-.82667-5.9867.57333-7.3867.49308-.43455 1.06762-.76677 1.69021-.97735.62255-.21058 1.28085-.29533 1.93645-.24932 1.7992.06009 3.5734.43932 5.24 1.12 1.6089.63151 3.1612 1.39872 4.64 2.29337-2.1623 1.5832-4.1994 3.3305-6.0933 5.2266-.5867.5867-1.16 1.2-1.72 1.8134.4014.8447.8465 1.668 1.3333 2.4666.72-.8133 1.4533-1.6133 2.24-2.4 2.0513-2.0491 4.2825-3.9099 6.6667-5.56 2.3587 1.6564 4.5672 3.5169 6.6 5.56 2.0495 2.051 3.9103 4.2823 5.56 6.6667-1.6539 2.3813-3.5144 4.6121-5.56 6.6667-3.8797 3.9968-8.5349 7.1592-13.68 9.2933zm22.96-.12-.2134.1733c-.3501-.2968-.7632-.5101-1.2079-.6237s-.9095-.1246-1.359-.0321c-.4496.0925-.8723.286-1.2361.566-.3637.2799-.6591.6389-.8636 1.0498-1.3706-.176-2.7141-.5208-4-1.0266-1.6112-.6263-3.164-1.3937-4.64-2.2934 2.1623-1.5831 4.1994-3.3305 6.0933-5.2266 1.899-1.8864 3.6467-3.9194 5.2267-6.08.8945 1.4789 1.6617 3.0311 2.2933 4.64 1.52 4.04 1.52 7.2666-.0933 8.8533z"/><path d="m24.6953 28.4287c2.3986-.3894 4.0275-2.6495 3.6381-5.0482-.3893-2.3986-2.6494-4.0275-5.0481-3.6381-2.3987.3893-4.0275 2.6495-3.6382 5.0481.3894 2.3987 2.6495 4.0275 5.0482 3.6382z"/></g></svg>