<svg width="49" height="48" viewBox="0 0 49 48" fill="none" xmlns="http://www.w3.org/2000/svg">
<path d="M45.04 25.0133L35.8 20.76V8.57333C35.7957 8.31765 35.7181 8.06859 35.5762 7.85583C35.4344 7.64306 35.2343 7.47557 35 7.37333L25 2.77333C24.8245 2.6921 24.6334 2.65002 24.44 2.65002C24.2466 2.65002 24.0555 2.6921 23.88 2.77333L13.88 7.37333C13.6485 7.48044 13.4527 7.65167 13.3156 7.86673C13.1785 8.08178 13.106 8.33164 13.1066 8.58666V20.7733L3.90664 25.0133C3.6752 25.1204 3.47933 25.2917 3.34226 25.5067C3.20519 25.7218 3.13267 25.9716 3.1333 26.2267V39.2667C3.13267 39.5217 3.20519 39.7715 3.34226 39.9866C3.47933 40.2016 3.6752 40.3729 3.90664 40.48L13.9066 45.08C14.0822 45.1612 14.2732 45.2033 14.4666 45.2033C14.66 45.2033 14.8511 45.1612 15.0266 45.08L24.4666 40.7333L33.9066 45.08C34.0822 45.1612 34.2732 45.2033 34.4666 45.2033C34.66 45.2033 34.8511 45.1612 35.0266 45.08L45.0266 40.48C45.2581 40.3729 45.4539 40.2016 45.591 39.9866C45.7281 39.7715 45.8006 39.5217 45.8 39.2667V26.2267C45.8018 25.9731 45.7313 25.7242 45.5966 25.5093C45.462 25.2944 45.2689 25.1224 45.04 25.0133V25.0133ZM41.2933 26.2267L34.48 29.3333L27.6666 26.2267L34.48 23.0933L41.2933 26.2267ZM24.4666 5.43999L31.28 8.57333L24.4666 11.7067L17.6666 8.57333L24.4666 5.43999ZM14.4666 23.08L21.28 26.2133L14.4666 29.3333L7.6533 26.2267L14.4666 23.08ZM23.1333 38.4L14.4666 42.4L5.79997 38.4V28.3067L13.9066 32C14.0785 32.0773 14.2648 32.1172 14.4533 32.1172C14.6418 32.1172 14.8281 32.0773 15 32L23.1066 28.2667L23.1333 38.4ZM15.8 20.76V10.6667L23.9066 14.4C24.0822 14.4812 24.2732 14.5233 24.4666 14.5233C24.66 14.5233 24.8511 14.4812 25.0266 14.4L33.1333 10.6667V20.7733L24.4666 24.7733L15.8 20.76ZM43.1466 38.4133L34.48 42.4133L25.8 38.4133V28.2933L33.92 32C34.09 32.0753 34.274 32.1142 34.46 32.1142C34.646 32.1142 34.8299 32.0753 35 32L43.1066 28.2667L43.1466 38.4133Z" fill="#1C253D"/>
</svg>
