<svg width="48" height="48" viewBox="0 0 48 48" fill="none" xmlns="http://www.w3.org/2000/svg">
<path d="M42.6667 6.66666H5.33341C4.62617 6.66666 3.94789 6.94761 3.4478 7.4477C2.9477 7.9478 2.66675 8.62608 2.66675 9.33332V38.6667C2.66675 39.3739 2.9477 40.0522 3.4478 40.5523C3.94789 41.0524 4.62617 41.3333 5.33341 41.3333H42.6667C43.374 41.3333 44.0523 41.0524 44.5524 40.5523C45.0525 40.0522 45.3334 39.3739 45.3334 38.6667V9.33332C45.3334 8.62608 45.0525 7.9478 44.5524 7.4477C44.0523 6.94761 43.374 6.66666 42.6667 6.66666V6.66666ZM5.33341 38.6667V9.33332H42.6667V38.6667H5.33341Z" fill="#1C253D"/>
<path d="M20.8266 20.296L12.8026 31.9573L7.3999 27.1787L8.81324 25.5813L12.4106 28.7627L20.8452 16.5067L29.8452 29.86L38.8506 17.96L40.5519 19.248L29.7439 33.5267L20.8266 20.296Z" fill="#1C253D"/>
</svg>
