<svg width="48" height="48" viewBox="0 0 48 48" fill="none" xmlns="http://www.w3.org/2000/svg">
<path d="M41.8134 10.6667H36.6667V13.3333H41.3334V40H36.6667V42.6667H44.0001V12.8933C44.0036 12.6033 43.9497 12.3154 43.8416 12.0463C43.7334 11.7772 43.5731 11.5321 43.3699 11.3251C43.1667 11.1182 42.9245 10.9535 42.6574 10.8405C42.3903 10.7275 42.1035 10.6684 41.8134 10.6667V10.6667Z" fill="#1C253D"/>
<path d="M6.66658 13.3333H11.3333V10.6667H6.18658C5.89654 10.6684 5.60971 10.7275 5.34258 10.8405C5.07546 10.9535 4.83331 11.1182 4.63009 11.3251C4.42686 11.5321 4.26656 11.7772 4.15841 12.0463C4.05026 12.3154 3.9964 12.6033 3.99992 12.8933V42.6667H11.3333V40H6.66658V13.3333Z" fill="#1C253D"/>
<path d="M24.0133 37.04C25.3388 37.04 26.4133 35.9714 26.4133 34.6533C26.4133 33.3352 25.3388 32.2667 24.0133 32.2667C22.6878 32.2667 21.6133 33.3352 21.6133 34.6533C21.6133 35.9714 22.6878 37.04 24.0133 37.04Z" fill="#1C253D"/>
<path d="M32.4266 5.33334H15.5733C14.9792 5.33334 14.4094 5.56934 13.9893 5.98942C13.5693 6.40951 13.3333 6.97926 13.3333 7.57334V42.6667H34.6666V7.57334C34.6666 6.97926 34.4306 6.40951 34.0105 5.98942C33.5904 5.56934 33.0207 5.33334 32.4266 5.33334ZM31.9999 40H15.9999V8.00001H31.9999V40Z" fill="#1C253D"/>
<path d="M18 12.28H30V14.4133H18V12.28Z" fill="#1C253D"/>
</svg>
