<svg width="49" height="48" viewBox="0 0 49 48" fill="none" xmlns="http://www.w3.org/2000/svg">
<path d="M40.3332 12H22.2265L19.1465 7.76003C18.8983 7.4203 18.5731 7.14414 18.1977 6.95412C17.8223 6.7641 17.4073 6.6656 16.9865 6.6667H8.33317C7.62593 6.6667 6.94765 6.94765 6.44755 7.44774C5.94746 7.94784 5.6665 8.62612 5.6665 9.33336V38.6667C5.6665 39.3739 5.94746 40.0522 6.44755 40.5523C6.94765 41.0524 7.62593 41.3334 8.33317 41.3334H40.3332C41.0404 41.3334 41.7187 41.0524 42.2188 40.5523C42.7189 40.0522 42.9998 39.3739 42.9998 38.6667V14.6667C42.9998 13.9595 42.7189 13.2812 42.2188 12.7811C41.7187 12.281 41.0404 12 40.3332 12ZM40.3332 38.6667H8.33317V17.3334H18.0798C18.7871 17.3334 19.4654 17.0524 19.9655 16.5523C20.4656 16.0522 20.7465 15.3739 20.7465 14.6667H8.33317V9.33336H16.9865L20.4665 14.12C20.5906 14.2899 20.7532 14.428 20.9409 14.523C21.1286 14.618 21.3361 14.6672 21.5465 14.6667H40.3332V38.6667Z" fill="#1C253D"/>
<path d="M29.5466 29.9733C28.8227 29.985 28.1326 30.2821 27.6266 30.8L19.9999 27.2533V26.6666L27.5466 23.1333C27.9264 23.5292 28.4151 23.8035 28.9508 23.9216C29.4865 24.0397 30.0452 23.9963 30.5563 23.7968C31.0673 23.5974 31.5077 23.2508 31.8218 22.801C32.1358 22.3512 32.3094 21.8184 32.3206 21.2699C32.3318 20.7214 32.1801 20.182 31.8847 19.7197C31.5892 19.2575 31.1633 18.8933 30.6608 18.6731C30.1584 18.453 29.6019 18.3868 29.0618 18.4829C28.5217 18.5791 28.0222 18.8333 27.6266 19.2133C27.0934 19.733 26.7867 20.4421 26.7733 21.1866V21.4933L19.2533 25.04C18.8753 24.6435 18.3884 24.3679 17.854 24.2478C17.3196 24.1277 16.7616 24.1686 16.2503 24.3652C15.7391 24.5619 15.2975 24.9055 14.9814 25.3528C14.6652 25.8 14.4885 26.3309 14.4737 26.8785C14.4588 27.426 14.6065 27.9657 14.8979 28.4295C15.1894 28.8932 15.6117 29.2603 16.1115 29.4843C16.6113 29.7084 17.1663 29.7794 17.7065 29.6885C18.2466 29.5976 18.7477 29.3487 19.1466 28.9733L19.2533 28.8666L26.8133 32.4133V32.8133C26.8159 33.3645 26.9819 33.9024 27.2903 34.3592C27.5987 34.816 28.0356 35.1711 28.5458 35.3796C29.056 35.588 29.6166 35.6405 30.1566 35.5304C30.6967 35.4203 31.1919 35.1525 31.5798 34.761C31.9676 34.3694 32.2307 33.8716 32.3356 33.3305C32.4405 32.7895 32.3827 32.2294 32.1693 31.7212C31.956 31.2131 31.5967 30.7796 31.137 30.4755C30.6773 30.1715 30.1378 30.0107 29.5866 30.0133L29.5466 29.9733Z" fill="#1C253D"/>
</svg>
