<svg width="48" height="48" viewBox="0 0 48 48" fill="none" xmlns="http://www.w3.org/2000/svg">
<path d="M24.1334 14.6667C18.9334 14.6667 14.8 18.8 14.8 24C14.8 29.2 18.9334 33.3333 24.1334 33.3333C29.3334 33.3333 33.4667 29.2 33.4667 24C33.4667 18.8 29.3334 14.6667 24.1334 14.6667ZM24.1334 30.6667C20.4 30.6667 17.4667 27.7333 17.4667 24C17.4667 20.2667 20.4 17.3333 24.1334 17.3333C27.8667 17.3333 30.8 20.2667 30.8 24C30.8 27.7333 27.8667 30.6667 24.1334 30.6667Z" fill="#1C253D"/>
<path d="M43.7334 19.6L40.0001 18.4L39.2001 16.4L41.0667 12.9333C41.4667 12.1333 41.3334 11.0667 40.6667 10.4L37.4667 7.19999C36.8001 6.53332 35.7334 6.39999 34.9334 6.79999L31.4667 8.66666L29.4667 7.86666L28.2667 4.13332C28.0001 3.33332 27.2001 2.66666 26.2667 2.66666H21.7334C20.8001 2.66666 20.0001 3.33332 19.8667 4.26666L18.6667 7.99999C17.8667 8.13332 17.2001 8.39999 16.5334 8.79999L13.0667 6.93332C12.2667 6.53332 11.2001 6.66666 10.5334 7.33332L7.33341 10.5333C6.66675 11.2 6.53341 12.2667 6.93341 13.0667L8.66675 16.4C8.40008 17.0667 8.13342 17.8667 7.86675 18.5333L4.13341 19.7333C3.33341 20 2.66675 20.8 2.66675 21.7333V26.2667C2.66675 27.2 3.33341 28 4.26675 28.2667L8.00008 29.4667L8.80008 31.4667L6.93341 34.9333C6.53341 35.7333 6.66675 36.8 7.33341 37.4667L10.5334 40.6667C11.2001 41.3333 12.2667 41.4667 13.0667 41.0667L16.5334 39.2L18.5334 40L19.7334 43.8667C20.0001 44.6667 20.8001 45.3333 21.7334 45.3333H26.2667C27.2001 45.3333 28.0001 44.6667 28.2667 43.8667L29.4667 40L31.4667 39.2L34.9334 41.0667C35.7334 41.4667 36.8001 41.3333 37.4667 40.6667L40.6667 37.4667C41.3334 36.8 41.4667 35.7333 41.0667 34.9333L39.2001 31.4667L40.0001 29.4667L43.8668 28.2667C44.6668 28 45.3334 27.2 45.3334 26.2667V21.7333C45.3334 20.8 44.6667 19.8667 43.7334 19.6V19.6ZM42.6667 25.8667L37.8667 27.3333L37.7334 28L36.5334 30.8L36.1334 31.4667L38.5334 35.8667L35.8667 38.5333L31.4667 36.1333L30.8001 36.5333C29.8667 37.0667 28.9334 37.4667 28.0001 37.7333L27.3334 37.8667L25.8667 42.6667H22.1334L20.6667 37.8667L20.0001 37.7333L17.2001 36.5333L16.5334 36.1333L12.1334 38.5333L9.46675 35.8667L11.8667 31.4667L11.4667 30.8C10.9334 29.8667 10.5334 28.9333 10.2667 28L10.1334 27.3333L5.33341 25.8667V22.1333L9.86675 20.8L10.1334 20.1333C10.4001 19.0667 10.8001 18.1333 11.3334 17.2L11.7334 16.5333L9.46675 12.1333L12.1334 9.46666L16.4001 11.8667L17.0667 11.4667C18.0001 10.9333 18.9334 10.5333 20.0001 10.2667L20.6667 9.99999L22.1334 5.33332H25.8667L27.3334 9.99999L28.0001 10.2667C28.9334 10.5333 29.8667 10.9333 30.8001 11.4667L31.4667 11.8667L35.8667 9.46666L38.5334 12.1333L36.1334 16.5333L36.5334 17.2C37.0667 18.1333 37.4667 19.0667 37.7334 20L37.8667 20.6667L42.6667 22.1333V25.8667V25.8667Z" fill="#1C253D"/>
</svg>
