<svg width="48" height="48" viewBox="0 0 48 48" fill="none" xmlns="http://www.w3.org/2000/svg">
<path d="M42.6666 20H41.3333V12C41.3333 11.6464 41.1928 11.3073 40.9428 11.0572C40.6927 10.8072 40.3536 10.6667 39.9999 10.6667H7.99994C7.68422 10.6718 7.37692 10.5648 7.13275 10.3645C6.88859 10.1643 6.7234 9.88395 6.66661 9.57334V9.09334C6.7234 8.78273 6.88859 8.50236 7.13275 8.30214C7.37692 8.10193 7.68422 7.99486 7.99994 8.00001H39.4399C39.7936 8.00001 40.1327 7.85953 40.3828 7.60949C40.6328 7.35944 40.7733 7.0203 40.7733 6.66668C40.7733 6.31305 40.6328 5.97392 40.3828 5.72387C40.1327 5.47382 39.7936 5.33334 39.4399 5.33334H7.99994C6.93907 5.33334 5.92166 5.75477 5.17151 6.50492C4.42137 7.25506 3.99994 8.27248 3.99994 9.33334C3.99058 9.49321 3.99058 9.65348 3.99994 9.81334V37.24C4.00517 37.9579 4.15176 38.6677 4.43133 39.329C4.7109 39.9902 5.11799 40.5899 5.62933 41.0939C6.14068 41.5978 6.74627 41.996 7.41154 42.2659C8.0768 42.5358 8.78871 42.672 9.50661 42.6667H39.9999C40.3536 42.6667 40.6927 42.5262 40.9428 42.2762C41.1928 42.0261 41.3333 41.687 41.3333 41.3333V33.3333H42.6666C43.0202 33.3333 43.3594 33.1929 43.6094 32.9428C43.8595 32.6928 43.9999 32.3536 43.9999 32V21.3333C43.9999 20.9797 43.8595 20.6406 43.6094 20.3905C43.3594 20.1405 43.0202 20 42.6666 20ZM38.6666 40H9.50661C8.76501 40.0072 8.05058 39.7212 7.51873 39.2043C6.98688 38.6875 6.68063 37.9815 6.66661 37.24V13.1733C7.0994 13.2988 7.54975 13.3528 7.99994 13.3333H38.6666V20H29.3333C27.5652 20 25.8695 20.7024 24.6192 21.9526C23.369 23.2029 22.6666 24.8986 22.6666 26.6667C22.6666 28.4348 23.369 30.1305 24.6192 31.3807C25.8695 32.631 27.5652 33.3333 29.3333 33.3333H38.6666V40ZM41.3333 30.6667H29.3333C28.2724 30.6667 27.255 30.2453 26.5048 29.4951C25.7547 28.745 25.3333 27.7275 25.3333 26.6667C25.3333 25.6058 25.7547 24.5884 26.5048 23.8382C27.255 23.0881 28.2724 22.6667 29.3333 22.6667H41.3333V30.6667Z" fill="#1C253D"/>
<path d="M30.6799 28.6667C31.7845 28.6667 32.6799 27.7712 32.6799 26.6667C32.6799 25.5621 31.7845 24.6667 30.6799 24.6667C29.5754 24.6667 28.6799 25.5621 28.6799 26.6667C28.6799 27.7712 29.5754 28.6667 30.6799 28.6667Z" fill="#1C253D"/>
</svg>
