<?xml version="1.0" encoding="UTF-8" standalone="no"?>
<svg width="345px" height="299px" viewBox="0 0 345 299" version="1.1" xmlns="http://www.w3.org/2000/svg" xmlns:xlink="http://www.w3.org/1999/xlink">
    <!-- Generator: Sketch 43.1 (39012) - http://www.bohemiancoding.com/sketch -->
    <title>frontend</title>
    <desc>Created with Sketch.</desc>
    <defs></defs>
    <g id="Page-1" stroke="none" stroke-width="1" fill="none" fill-rule="evenodd">
        <g id="frontend">
            <g id="freepik--Shadow--inject-287" transform="translate(0.256473, 277.694644)" fill-rule="nonzero" fill="#F5F5F5">
                <ellipse id="freepik--path--inject-287" cx="172.012702" cy="10.8578768" rx="171.915169" ry="10.0417618"></ellipse>
            </g>
            <g id="freepik--Interface--inject-287" transform="translate(26.856375, 0.038155)" fill-rule="nonzero">
                <rect id="Rectangle-path" fill="#BA68C8" opacity="0.5" x="147.283659" y="55.6732308" width="168.483781" height="183.412957" rx="3.65"></rect>
                <rect id="Rectangle-path" fill="#BA68C8" x="141.963679" y="52.1249051" width="168.483781" height="183.412957" rx="3.65"></rect>
                <rect id="Rectangle-path" fill="#FFFFFF" opacity="0.8" x="141.963679" y="52.1249051" width="168.483781" height="183.412957" rx="3.65"></rect>
                <rect id="Rectangle-path" fill="#BA68C8" opacity="0.5" x="5.96724475" y="51.3354026" width="88.6840743" height="156.800514" rx="3.65"></rect>
                <rect id="Rectangle-path" fill="#BA68C8" x="0.647264289" y="46.012914" width="88.6840743" height="156.800514" rx="3.65"></rect>
                <rect id="Rectangle-path" fill="#FFFFFF" opacity="0.8" x="0.647264289" y="46.012914" width="88.6840743" height="156.800514" rx="3.65"></rect>
                <rect id="Rectangle-path" fill="#9012FE" x="0.647264289" y="0.274995245" width="310.509526" height="20.6335142" rx="3.85"></rect>
                <path d="M279.644773,10.5917523 C279.620353,12.7855602 277.827277,14.5465272 275.634427,14.5302847 C273.441577,14.5140423 271.67476,12.7267071 271.682809,10.5327779 C271.690859,8.33884876 273.470744,6.56453865 275.663654,6.56440261 C276.725764,6.56909132 277.742376,6.99632455 278.489238,7.75185978 C279.2361,8.507395 279.651848,9.5291552 279.644773,10.5917523 Z" id="Shape" fill="#FFFFFF" opacity="0.6"></path>
                <path d="M292.093527,10.5917523 C292.069107,12.7855602 290.276032,14.5465272 288.083182,14.5302847 C285.890332,14.5140423 284.123514,12.7267071 284.131563,10.5327779 C284.139613,8.33884876 285.919498,6.56453865 288.112408,6.56440261 C289.174518,6.56909132 290.19113,6.99632455 290.937992,7.75185978 C291.684855,8.507395 292.100603,9.5291552 292.093527,10.5917523 Z" id="Shape" fill="#FFFFFF" opacity="0.6"></path>
                <path d="M304.533415,10.5917523 C304.508908,12.7890104 302.710403,14.5513151 300.514146,14.5301214 C298.317889,14.5089276 296.553696,12.712243 296.571557,10.5149208 C296.589418,8.31759859 298.382585,6.54985748 300.578896,6.56440261 C302.780474,6.58877372 304.548195,8.3890507 304.533415,10.5917523 L304.533415,10.5917523 Z" id="Shape" fill="#FFFFFF" opacity="0.6"></path>
                <rect id="Rectangle-path" fill="#FFFFFF" opacity="0.6" x="7.88243771" y="5.41119675" width="10.2320957" height="10.3522403"></rect>
            </g>
            <g id="freepik--asset-1--inject-287" transform="translate(0.256473, 71.004670)">
                <rect id="Rectangle-path" fill="#BA68C8" fill-rule="nonzero" x="14.780679" y="0.0354832574" width="95.6177821" height="18.30049"></rect>
                <rect id="Rectangle-path" fill="#B8E986" fill-rule="nonzero" opacity="0.2" x="14.780679" y="0.0354832574" width="95.6177821" height="18.30049"></rect>
                <rect id="Rectangle-path" fill="#FFFFFF" fill-rule="nonzero" x="20.9075232" y="5.36684268" width="7.63417196" height="7.63777115"></rect>
                <polyline id="Shape" stroke="#BA68C8" stroke-width="1.5" stroke-linecap="round" stroke-linejoin="round" points="22.5744504 9.20790529 24.0019785 11.035293 26.874768 7.33616346"></polyline>
                <path d="M105.362213,13.474767 L97.6837079,13.474767 L97.6837079,8.27646978 L105.362213,8.27646978 L105.362213,13.474767 Z M101.52296,4.43540717 C99.7243557,4.43540053 98.2649266,5.89154998 98.2600391,7.69099604 L99.1467025,7.69099604 C99.2233908,6.43671983 100.262499,5.45877153 101.518527,5.45877153 C102.774556,5.45877153 103.813663,6.43671983 103.890352,7.69099604 L104.777015,7.69099604 C104.772144,5.89500663 103.318104,4.44028098 101.52296,4.43540717 L101.52296,4.43540717 Z" id="Shape" fill="#BA68C8" fill-rule="nonzero"></path>
                <rect id="Rectangle-path" fill="#BA68C8" fill-rule="nonzero" x="0.727063996" y="33.8687692" width="95.6177821" height="18.30049"></rect>
                <rect id="Rectangle-path" fill="#FFFFFF" fill-rule="nonzero" opacity="0.4" x="0.727063996" y="33.8687692" width="95.6177821" height="18.30049"></rect>
                <rect id="Rectangle-path" fill="#FFFFFF" fill-rule="nonzero" x="6.85390816" y="39.1912578" width="7.63417196" height="7.63777115"></rect>
                <rect id="Rectangle-path" fill="#FFFFFF" fill-rule="nonzero" x="83.6300928" y="42.1097557" width="7.67850513" height="5.18942639"></rect>
                <path d="M90.7234001,41.5420236 L89.8367367,41.5420236 C89.8367367,40.233933 88.7768195,39.1735161 87.4693454,39.1735161 C86.1618713,39.1735161 85.1019541,40.233933 85.1019541,41.5420236 L84.2152907,41.5420236 C84.2152907,39.7440115 85.6721806,38.2864347 87.4693454,38.2864347 C89.2665102,38.2864347 90.7234001,39.7440115 90.7234001,41.5420236 Z" id="Shape" fill="#FFFFFF" fill-rule="nonzero"></path>
                <rect id="Rectangle-path" fill="#BA68C8" fill-rule="nonzero" x="15.2772106" y="69.28106" width="95.6177821" height="18.30049"></rect>
                <rect id="Rectangle-path" fill="#FFFFFF" fill-rule="nonzero" opacity="0.4" x="15.2772106" y="69.28106" width="95.6177821" height="18.30049"></rect>
                <rect id="Rectangle-path" fill="#FFFFFF" fill-rule="nonzero" x="21.4040547" y="74.6124194" width="7.63417196" height="7.63777115"></rect>
                <polyline id="Shape" stroke="#BA68C8" stroke-width="1.5" stroke-linecap="round" stroke-linejoin="round" points="23.0709819 78.4446112 24.49851 80.2808698 27.3712995 76.5817402"></polyline>
                <g id="Group" opacity="0.6" transform="translate(97.532975, 72.740678)" fill-rule="nonzero" fill="#FFFFFF">
                    <rect id="Rectangle-path" x="0.647264289" y="4.78136893" width="7.67850513" height="5.18942639"></rect>
                    <path d="M7.74057157,4.22250763 L6.85390816,4.22250763 C6.90785918,3.34011187 6.46796108,2.50063769 5.71187184,2.04311652 C4.9557826,1.58559535 4.00838447,1.58559535 3.25229523,2.04311652 C2.49620599,2.50063769 2.0563079,3.34011187 2.11025892,4.22250763 L1.22359551,4.22250763 C1.16073197,3.01723713 1.76768169,1.87560638 2.80176492,1.25407933 C3.83584816,0.632552274 5.12831892,0.632552274 6.16240215,1.25407933 C7.19648539,1.87560638 7.80343511,3.01723713 7.74057157,4.22250763 Z" id="Shape"></path>
                </g>
            </g>
            <g id="freepik--asset-2--inject-287" transform="translate(203.302394, 119.794149)" fill-rule="nonzero">
                <rect id="Rectangle-path" fill="#BA68C8" x="37.2132633" y="0.549990489" width="74.6659257" height="48.5854502"></rect>
                <rect id="Rectangle-path" fill="#FFFFFF" opacity="0.5" x="37.2132633" y="0.549990489" width="74.6659257" height="48.5854502"></rect>
                <rect id="Rectangle-path" fill="#BA68C8" x="39.9441866" y="9.65144601" width="69.2040791" height="37.0445207"></rect>
                <rect id="Rectangle-path" fill="#FFFFFF" x="45.5833659" y="15.1868342" width="51.1870787" height="1.59674658"></rect>
                <rect id="Rectangle-path" fill="#FFFFFF" x="45.5833659" y="20.0746529" width="24.5605765" height="1.59674658"></rect>
                <rect id="Rectangle-path" fill="#FFFFFF" x="45.5833659" y="24.9536007" width="30.9356864" height="1.59674658"></rect>
                <rect id="Rectangle-path" fill="#FFFFFF" x="45.5833659" y="29.8325486" width="10.9059599" height="1.59674658"></rect>
                <rect id="Rectangle-path" fill="#FFFFFF" x="45.5833659" y="34.7114965" width="7.05784074" height="1.59674658"></rect>
                <path d="M114.016048,96.3547854 L114.016048,123.446252 C114.018925,124.962463 112.908663,126.250823 111.409257,126.4712 C111.255859,126.484551 111.101591,126.484551 110.948192,126.4712 L76.1643869,126.4712 C74.4749541,126.4712 73.1053981,125.100998 73.1053981,123.410769 L73.1053981,96.3547854 C73.1027523,95.8901554 73.2090413,95.4313782 73.4157303,95.0152924 C73.9251835,93.9595935 74.9926415,93.2878114 76.1643869,93.2854836 L89.8012702,93.2854836 C90.4380599,93.2748393 91.0565473,93.0706423 91.574597,92.7000099 C92.0965408,92.3200383 92.4870652,91.7866902 92.6917929,91.1742298 C93.1026825,89.9100928 94.2802443,89.054257 95.6089155,89.0541052 L102.852956,89.0541052 C104.182535,89.0514547 105.361571,89.908362 105.770078,91.1742298 C106.184068,92.4348597 107.360899,93.2865855 108.687201,93.2854836 L110.912726,93.2854836 C111.732499,93.2760014 112.521963,93.5951824 113.104991,94.1718191 C113.688019,94.7484558 114.016103,95.5345706 114.016048,96.3547854 L114.016048,96.3547854 Z" id="Shape" fill="#BA68C8"></path>
                <path d="M111.409257,97.6321827 L111.409257,126.4712 L111.409257,126.4712 L76.1643869,126.4712 C74.4749541,126.4712 73.1053981,125.100998 73.1053981,123.410769 L73.1053981,96.3547854 C73.1027523,95.8901554 73.2090413,95.4313782 73.4157303,95.0152924 L108.7936,95.0152924 C110.228249,95.0390216 111.385539,96.1968579 111.409257,97.6321827 Z" id="Shape" fill="#EC3E4D" opacity="0.3"></path>
                <polygon id="Shape" fill="#BA68C8" points="31.0066194 56.4804749 31.0066194 90.3581149 24.3921104 96.9757424 0.132999511 96.9757424 0.132999511 56.4804749"></polygon>
                <polygon id="Shape" fill="#FFFFFF" opacity="0.4" points="31.0066194 56.4804749 31.0066194 90.3581149 24.3921104 96.9757424 0.132999511 96.9757424 0.132999511 56.4804749"></polygon>
                <polygon id="Shape" fill="#BA68C8" points="31.0066194 90.3581149 24.3921104 90.3581149 24.3921104 96.9757424"></polygon>
                <rect id="Rectangle-path" fill="#BA68C8" x="3.98111871" y="63.355356" width="23.2837811" height="1.26852645"></rect>
                <rect id="Rectangle-path" fill="#BA68C8" x="3.98111871" y="67.2496435" width="19.5863947" height="1.26852645"></rect>
                <rect id="Rectangle-path" fill="#BA68C8" x="3.98111871" y="71.1350602" width="23.2837811" height="1.26852645"></rect>
                <rect id="Rectangle-path" fill="#BA68C8" x="3.98111871" y="75.0293477" width="8.68930142" height="1.26852645"></rect>
                <rect id="Rectangle-path" fill="#BA68C8" x="3.98111871" y="78.9236352" width="5.63031265" height="1.26852645"></rect>
            </g>
            <g id="freepik--Selection--inject-287" transform="translate(186.455789, 40.843901)">
                <rect id="Rectangle-path" fill="#BA68C8" fill-rule="nonzero" x="5.54164631" y="6.1208619" width="63.1215681" height="52.17813"></rect>
                <path d="M5.54164631,6.1208619 L5.54164631,58.2989919 L68.6632145,58.2989919 L68.6632145,6.1208619 L5.54164631,6.1208619 Z M66.6061553,56.2409629 L7.60757206,56.2409629 L7.60757206,8.17889082 L66.6061553,8.17889082 L66.6061553,56.2409629 Z" id="Shape" fill="#FFFFFF" fill-rule="nonzero" opacity="0.6"></path>
                <polygon id="Shape" fill="#FFFFFF" fill-rule="nonzero" opacity="0.3" points="7.60757206 41.9944351 25.6955056 28.8478882 39.1373229 41.9944351 52.5791402 34.3123099 66.6061553 42.952483 66.6061553 56.2409629 7.60757206 56.2409629"></polygon>
                <path d="M50.2206155,20.0391696 C50.215721,22.4239267 48.2803018,24.3536442 45.8966658,24.3503813 C43.5130297,24.3471184 41.5828959,22.4121094 41.584524,20.0273479 C41.5861522,17.6425864 43.5189264,15.7102172 45.9025647,15.7102122 C47.0493209,15.7102098 48.1489799,16.166578 48.9590268,16.978671 C49.7690738,17.790764 50.2229703,18.8918752 50.2206155,20.0391696 L50.2206155,20.0391696 Z" id="Shape" fill="#FFFFFF" fill-rule="nonzero" opacity="0.6"></path>
                <polyline id="Shape" stroke="#263238" points="72.7861993 60.4634706 72.7861993 62.2376334 71.0128725 62.2376334"></polyline>
                <path d="M68.2287494,62.2465042 L4.74364924,62.2465042" id="Shape" stroke="#263238" stroke-dasharray="4.181238174438477,3.135928869247437"></path>
                <polyline id="Shape" stroke="#263238" points="3.35158769 62.2376334 1.57826087 62.2376334 1.57826087 60.4634706"></polyline>
                <path d="M1.57826087,57.8998052 L1.57826087,5.33135942" id="Shape" stroke="#263238" stroke-dasharray="3.8548424243927,2.89113187789917"></path>
                <polyline id="Shape" stroke="#263238" points="1.57826087 4.04509134 1.57826087 2.27092847 3.35158769 2.27092847"></polyline>
                <path d="M6.1357108,2.27092847 L69.6208109,2.27092847" id="Shape" stroke="#263238" stroke-dasharray="4.181238174438477,3.135928869247437"></path>
                <polyline id="Shape" stroke="#263238" points="71.0128725 2.27092847 72.7861993 2.27092847 72.7861993 4.04509134"></polyline>
                <path d="M72.7861993,6.60875669 L72.7861993,59.1860733" id="Shape" stroke="#263238" stroke-dasharray="3.8548424243927,2.89113187789917"></path>
                <rect id="Rectangle-path" fill="#263238" fill-rule="nonzero" x="71.3852711" y="0.869339806" width="2.79298974" height="2.79430652"></rect>
                <rect id="Rectangle-path" fill="#263238" fill-rule="nonzero" x="71.3852711" y="60.8449156" width="2.79298974" height="2.79430652"></rect>
                <rect id="Rectangle-path" fill="#263238" fill-rule="nonzero" x="0.177332682" y="60.8449156" width="2.79298974" height="2.79430652"></rect>
                <rect id="Rectangle-path" fill="#263238" fill-rule="nonzero" x="0.177332682" y="0.869339806" width="2.79298974" height="2.79430652"></rect>
                <rect id="Rectangle-path" fill="#263238" fill-rule="nonzero" x="35.7059355" y="0.869339806" width="2.79298974" height="2.79430652"></rect>
                <rect id="Rectangle-path" fill="#263238" fill-rule="nonzero" x="35.7857352" y="60.8449156" width="2.79298974" height="2.79430652"></rect>
                <rect id="Rectangle-path" fill="#263238" fill-rule="nonzero" x="71.3852711" y="30.8615631" width="2.79298974" height="2.79430652"></rect>
                <rect id="Rectangle-path" fill="#263238" fill-rule="nonzero" x="0.177332682" y="30.8615631" width="2.79298974" height="2.79430652"></rect>
            </g>
            <g id="freepik--Character--inject-287" transform="translate(89.809477, 59.472611)" fill-rule="nonzero">
                <path d="M15.9599414,69.7423424 L6.5258427,77.406726 C6.5258427,77.406726 4.22051783,77.45108 3.49345383,78.2139701 C2.76638984,78.9768601 -0.0531998046,84.6453105 0.381265266,85.4170713 C0.815730337,86.1888322 5.42638007,87.7146122 6.41057645,86.8009183 C7.39477284,85.8872245 9.07056668,80.6445732 9.07056668,80.0857119 L21.1291891,71.9955292 L15.9599414,69.7423424 Z" id="Shape" fill="#EBB376"></path>
                <path d="M10.8882267,73.2817973 L12.9984856,77.8857499 C12.9984856,77.8857499 25.9703713,71.8535962 28.7810943,68.3052704 C29.4992916,67.418189 30.4923547,65.936763 31.5652174,64.2779207 C33.3385442,61.5368391 35.3246702,58.2368962 36.7078652,55.9216136 C37.7363947,54.1918048 38.4279922,53.0119865 38.4279922,53.0119865 L31.0864191,41.426703 C29.4815584,42.6597462 24.5694431,62.4594038 23.6916463,63.5239015 C22.8138495,64.5883992 10.8882267,73.2817973 10.8882267,73.2817973 Z" id="Shape" fill="#F6A623"></path>
                <path d="M31.5652174,64.2424375 C33.3385442,61.5013558 35.3246702,58.2014129 36.7078652,55.8861304 L33.294211,47.4588567 C33.294211,47.4588567 31.4410845,57.1280444 31.5652174,64.2424375 Z" id="Shape" fill="#000000" opacity="0.1"></path>
                <path d="M91.3706644,25.947132 L100.662897,18.7262891 C100.662897,18.7262891 101.416561,16.5440687 102.365291,16.0650448 C103.314021,15.5860208 109.556131,14.6900686 110.167929,15.3021547 C110.779726,15.9142409 110.806326,20.8198013 109.635931,21.5117248 C108.465535,22.2036483 102.959355,22.1859067 102.436224,21.9818779 L92.2839277,29.3978787 L91.3706644,25.947132 Z" id="Shape" fill="#EBB376"></path>
                <polygon id="Shape" fill="#EBB376" points="12.8832193 224.431603 18.4425989 225.416263 20.7301905 217.822846 22.8049829 210.850386 16.3944064 208.60607 14.5324133 216.980119"></polygon>
                <polygon id="Shape" fill="#000000" opacity="0.2" points="14.4969468 217.157535 20.7035906 217.97365 22.7961163 210.930223 16.3855398 208.641553"></polygon>
                <polygon id="Shape" fill="#EBB376" points="50.0344162 224.564665 55.6913288 224.564665 56.6134587 216.980119 57.455789 209.901209 50.7437469 208.881065 50.3713483 217.201889"></polygon>
                <polygon id="Shape" fill="#000000" opacity="0.2" points="50.3713483 217.698655 56.6134587 217.42366 57.455789 210.122979 50.7437469 208.987515"></polygon>
                <path d="M13.9738153,211.063286 L23.1241817,212.677774 C32.3543478,189.666881 38.9245237,170.452698 43.5174402,154.511844 C46.017831,145.907154 47.9950904,138.260512 49.4935515,131.447727 L49.1034196,156.507777 L49.1034196,213.023736 L58.3335857,213.023736 C80.9346361,105.686882 64.9214949,80.7332813 64.9214949,80.7332813 L37.8782609,76.209166 C36.805834,81.218784 36.0506675,86.2911549 35.6172692,91.3960002 L34.3936737,100.364393 L23.8246458,154.990868 L13.9738153,211.063286 Z" id="Shape" fill="#263238"></path>
                <polygon id="Shape" fill="#BA68C8" points="24.5605765 211.55118 13.2112848 207.781084 13.3620176 212.615678 22.7517831 215.605143"></polygon>
                <polygon id="Shape" fill="#FFFFFF" opacity="0.6" points="24.5605765 211.55118 13.2112848 207.781084 13.3620176 212.615678 22.7517831 215.605143"></polygon>
                <polygon id="Shape" fill="#BA68C8" points="59.5926478 212.074558 47.7645579 210.335879 48.7487543 215.072894 58.5109184 216.385774"></polygon>
                <polygon id="Shape" fill="#FFFFFF" opacity="0.6" points="59.5926478 212.074558 47.7645579 210.335879 48.7487543 215.072894 58.5109184 216.385774"></polygon>
                <path d="M42.3204446,158.725481 C42.746043,157.288409 43.207108,155.88682 43.5972399,154.511844 C45.8670982,146.696657 47.374426,139.679843 49.1477528,133.372694 L49.1477528,133.372694 L50.0344162,121.769668 C50.0344162,121.769668 44.2445042,109.022308 46.4079629,100.053915 C46.2128969,100.559551 42.382511,110.335189 43.8898388,120.101955 C44.2433032,132.997177 43.7189597,145.901515 42.3204446,158.725481 L42.3204446,158.725481 Z" id="Shape" fill="#000000" opacity="0.2"></path>
                <path d="M41.5401808,29.7438405 C41.6149446,29.7967119 41.6952124,29.8413261 41.7795799,29.8769027 C42.9105231,30.5334569 44.1618742,30.9557985 45.459233,31.1188167 C49.2364191,31.4913909 51.6658769,30.6664052 53.0845383,28.7946634 L53.0845383,28.7946634 C55.0529311,26.0092277 55.0440645,21.5294664 54.0332682,16.2513319 C53.7009977,14.1432589 53.0366122,12.1012566 52.0648754,10.2014365 L52.0648754,10.1038575 C52.0648754,10.0861159 51.9850757,9.95305369 51.9407426,9.89095799 C50.7333136,7.72421049 48.5098597,6.31803122 46.0355642,6.15634515 C44.9754939,6.05919233 43.9079217,6.08001832 42.8524426,6.21844085 C32.4607474,7.45148405 32.8065462,24.8382802 41.5401808,29.7438405 Z" id="Shape" fill="#EBB376"></path>
                <path d="M41.7795799,29.8769027 C42.9135266,30.4870183 44.1591764,30.8611912 45.4414998,30.9768837 C49.2186859,31.3494579 51.6481436,30.4002808 53.0490718,28.5019265 C50.9296461,29.3311934 48.5971135,29.4433573 46.4079629,28.8212758 C44.7850051,28.4407915 43.0773516,28.8302677 41.7795799,29.8769027 L41.7795799,29.8769027 Z" id="Shape" fill="#000000" opacity="0.2"></path>
                <path d="M40.9993161,38.366272 C40.0683195,41.2581575 43.7834392,42.8460333 43.7834392,42.8460333 C50.3181485,40.7791335 51.807743,37.5235447 51.807743,37.5235447 C46.8424279,34.2768266 49.1477528,26.710022 49.1477528,26.710022 L48.0305569,27.1269503 L40.4141182,27.854357 C40.4141182,27.854357 42.0987787,32.0413814 42.284978,32.9728169 L42.284978,32.9728169 C43.1982413,37.9138605 40.9993161,38.366272 40.9993161,38.366272 Z" id="Shape" fill="#EBB376"></path>
                <path d="M52.0737421,10.13047 C52.0737421,10.13047 53.5899365,17.3247004 47.108427,21.3431793 C47.108427,21.3431793 45.1400342,29.2736873 40.7953835,29.9478692 C34.8813385,30.8349507 28.5594284,23.0996005 29.490425,14.2287862 C30.7051539,2.73221082 47.4808256,-0.372574202 52.0737421,10.13047 Z" id="Shape" fill="#263238"></path>
                <path d="M50.3270151,18.7972556 C50.1762824,17.6617914 49.0147533,15.8787577 47.2857596,16.3666525 C45.556766,16.8545473 45.0779678,21.502854 49.6886175,21.9197822 C50.3447484,21.9818779 50.6373473,21.165763 50.3270151,18.7972556 Z" id="Shape" fill="#EBB376"></path>
                <path d="M56.2853933,223.544521 L49.9812164,223.544521 C49.7098967,223.53956 49.4742617,223.730402 49.4226185,223.996933 L48.1280899,229.8428 C48.0729077,230.09463 48.120533,230.35808 48.260385,230.57462 C48.400237,230.791159 48.6207334,230.942855 48.8728872,230.996005 C48.943563,231.004552 49.0150105,231.004552 49.0856864,230.996005 C51.6658769,230.996005 51.8786761,230.800848 55.1149976,230.800848 C57.1099902,230.800848 63.1393014,231.004876 65.8968246,231.004876 C68.6543478,231.004876 69.0090132,228.281536 67.8829507,228.033154 C62.8201026,226.924302 59.0163166,225.371909 57.3937225,223.943708 C57.0886724,223.674121 56.6921981,223.531323 56.2853933,223.544521 L56.2853933,223.544521 Z" id="Shape" fill="#263238"></path>
                <path d="M56.7464582,224.431603 C56.6818564,224.419334 56.6341482,224.36426 56.631192,224.298541 C56.6224015,224.23858 56.6503416,224.179179 56.7021251,224.147737 C56.9415242,223.996933 59.0606497,222.692923 59.7877137,223.074368 C59.9556,223.15265 60.0603647,223.323846 60.0537128,223.509038 C60.1030369,223.825883 59.9776062,224.144696 59.7256473,224.342895 C59.3585811,224.599765 58.9128238,224.719109 58.4665852,224.679986 C57.8856017,224.663281 57.308452,224.579942 56.7464582,224.431603 L56.7464582,224.431603 Z M57.1986566,224.218703 C57.9659193,224.474192 58.8009862,224.433052 59.539448,224.103383 C59.6952911,223.962078 59.7715691,223.753044 59.7433806,223.544521 C59.7433806,223.411459 59.6901808,223.358234 59.6458476,223.358234 C59.5828651,223.326006 59.5125869,223.310721 59.441915,223.31388 C58.6424545,223.461508 57.8782388,223.759512 57.1897899,224.192091 L57.1986566,224.218703 Z" id="Shape" fill="#BA68C8"></path>
                <path d="M56.6932584,224.431603 C56.6461265,224.400227 56.6191352,224.346219 56.6223254,224.28967 C56.6223254,224.200962 56.7907914,222.311478 57.5089888,221.690521 C57.6918325,221.531982 57.9345145,221.460761 58.1739863,221.495363 C58.4170163,221.49146 58.6271453,221.664148 58.6705178,221.903421 C58.812384,222.595344 57.5001221,224.041287 56.8173913,224.40499 L56.7464582,224.40499 C56.7306677,224.417308 56.7125824,224.426355 56.6932584,224.431603 Z M57.7483879,221.876808 C57.2841028,222.466871 57.0117806,223.18515 56.9681241,223.934837 C57.6508549,223.42033 58.4843185,222.32922 58.4045188,221.903421 C58.4045188,221.859067 58.4045188,221.743746 58.1739863,221.743746 L58.1030532,221.743746 C57.9711756,221.744639 57.8445013,221.795333 57.7483879,221.885679 L57.7483879,221.876808 Z" id="Shape" fill="#BA68C8"></path>
                <path d="M18.6642648,223.544521 L12.3512213,223.544521 C12.0823312,223.546487 11.8505325,223.734222 11.7926234,223.996933 L10.4980948,229.8428 C10.4429126,230.09463 10.4905379,230.35808 10.6303899,230.57462 C10.7702418,230.791159 10.9907383,230.942855 11.242892,230.996005 C11.3135679,231.004552 11.3850154,231.004552 11.4556913,230.996005 C14.0447484,230.996005 14.248681,230.800848 17.4938691,230.800848 C19.4888617,230.800848 25.4738398,231.004876 28.2668295,231.004876 C31.0598192,231.004876 31.3878847,228.281536 30.2618222,228.033154 C25.1989741,226.924302 21.3951881,225.371909 19.7637274,223.943708 C19.461866,223.67468 19.0683275,223.531796 18.6642648,223.544521 Z" id="Shape" fill="#263238"></path>
                <path d="M19.1075965,224.431603 C19.0429947,224.419334 18.9952864,224.36426 18.9923302,224.298541 C18.9876027,224.237076 19.0186631,224.178378 19.0721299,224.147737 C19.3026624,223.996933 21.421788,222.692923 22.1577186,223.074368 C22.320992,223.157728 22.4237516,223.325648 22.4237176,223.509038 C22.4730418,223.825883 22.347611,224.144696 22.0956522,224.342895 C21.7273171,224.597028 21.2825615,224.716103 20.8365901,224.679986 C20.2526385,224.663881 19.6724842,224.580537 19.1075965,224.431603 Z M19.5597948,224.218703 C20.3270576,224.474192 21.1621245,224.433052 21.9005862,224.103383 C22.0583992,223.962982 22.1378272,223.754385 22.1133854,223.544521 C22.1133854,223.411459 22.051319,223.358234 22.0069858,223.358234 C21.9475646,223.32503 21.8798488,223.309633 21.8119199,223.31388 C21.0131572,223.463955 20.2493854,223.761786 19.5597948,224.192091 L19.5597948,224.218703 Z" id="Shape" fill="#BA68C8"></path>
                <path d="M19.0721299,224.431603 C19.0200893,224.403962 18.988917,224.348518 18.9923302,224.28967 C18.9923302,224.200962 19.1607963,222.311478 19.9233268,221.690521 C20.1016282,221.530159 20.3425491,221.4585 20.5794577,221.495363 C20.8245429,221.490762 21.0375936,221.662778 21.0848559,221.903421 C21.2178554,222.595344 19.9055936,224.041287 19.2317294,224.40499 L19.1519297,224.40499 L19.0721299,224.431603 Z M20.1183928,221.876808 C19.6567868,222.467662 19.387534,223.186008 19.3469956,223.934837 C20.0208598,223.42033 20.8543234,222.32922 20.7745237,221.903421 C20.7745237,221.859067 20.7745237,221.743746 20.5528578,221.743746 L20.4730581,221.743746 C20.3411805,221.744639 20.2145061,221.795333 20.1183928,221.885679 L20.1183928,221.876808 Z" id="Shape" fill="#BA68C8"></path>
                <path d="M64.965828,80.8486019 C64.965828,80.8486019 70.1262091,49.4015651 61.259575,35.3058411 C61.259575,35.3058411 43.5263068,34.2058601 31.1130191,41.4000905 C31.1130191,41.4000905 36.2556668,55.3982356 37.027064,80.8486019 L64.965828,80.8486019 Z" id="Shape" fill="#F6A623"></path>
                <path d="M66.5795554,56.7732118 C66.9608207,52.5063501 65.692892,48.3991631 65.5155594,44.7798708 C63.2976524,42.8210143 61.3372371,40.5884257 59.6813141,38.1356309 C59.6813141,38.1356309 58.0764533,50.8829911 66.5795554,56.7732118 Z" id="Shape" fill="#000000" opacity="0.1"></path>
                <path d="M59.0606497,35.2437454 C59.0606497,35.2437454 76.6077186,33.1857165 79.2499756,32.0768647 C80.8991695,31.3849411 93.8001221,22.9487967 93.8001221,22.9487967 L96.8236444,27.4995245 C96.8236444,27.4995245 83.6300928,38.1445017 81.395701,39.3864157 C76.1643869,42.2605595 64.4072301,46.3233925 64.4072301,46.3233925 C64.4072301,46.3233925 57.3050562,41.3379948 59.0606497,35.2437454 Z" id="Shape" fill="#F6A623"></path>
                <path d="M51.807743,14.8940973 C51.807743,14.8940973 59.1049829,7.59341708 52.2244748,2.67898593 C45.3439668,-2.23544521 38.4279922,4.17815356 38.4279922,4.17815356 C38.4279922,4.17815356 21.9715193,8.15227838 25.4738398,19.1077341 C28.9761602,30.0631898 31.2637518,30.9857545 26.050171,36.60098 C20.8365901,42.2162055 15.5166097,50.5636418 20.8454568,55.8861304 C26.1743039,61.208619 44.7853688,55.7353265 50.451148,47.7072395 C56.1169272,39.6791526 46.1064973,22.4254187 51.807743,14.8940973 Z" id="Shape" fill="#263238"></path>
                <polygon id="Shape" fill="#000000" points="37.0093307 80.8486019 36.8940645 77.8680083 65.2850269 78.5865443 65.2850269 81.3453675"></polygon>
                <rect id="Rectangle-path" fill="#263238" x="44.8651685" y="78.072037" width="1.1437958" height="2.93623955"></rect>
                <rect id="Rectangle-path" fill="#263238" x="58.1030532" y="78.4002572" width="1.01079629" height="3.21123479"></rect>
                <rect id="Rectangle-path" fill="#263238" x="37.6743283" y="77.9123624" width="1" height="3.43300515"></rect>
            </g>
        </g>
    </g>
</svg>