<svg width="668" height="200" viewBox="0 0 668 200" fill="none" xmlns="http://www.w3.org/2000/svg">
<g clip-path="url(#clip0_21_23218)">
<path d="M65 165H663" stroke="#E4C417"/>
<path d="M65 171V165" stroke="#E4C417"/>
<path d="M65 183.119C64.358 183.119 63.8111 182.945 63.3594 182.595C62.9077 182.243 62.5625 181.733 62.3239 181.065C62.0852 180.395 61.9659 179.585 61.9659 178.636C61.9659 177.693 62.0852 176.888 62.3239 176.22C62.5653 175.55 62.9119 175.038 63.3636 174.686C63.8182 174.331 64.3636 174.153 65 174.153C65.6364 174.153 66.1804 174.331 66.6321 174.686C67.0866 175.038 67.4332 175.55 67.6719 176.22C67.9134 176.888 68.0341 177.693 68.0341 178.636C68.0341 179.585 67.9148 180.395 67.6761 181.065C67.4375 181.733 67.0923 182.243 66.6406 182.595C66.1889 182.945 65.642 183.119 65 183.119ZM65 182.182C65.6364 182.182 66.1307 181.875 66.483 181.261C66.8352 180.648 67.0114 179.773 67.0114 178.636C67.0114 177.881 66.9304 177.237 66.7685 176.706C66.6094 176.175 66.3793 175.77 66.0781 175.491C65.7798 175.213 65.4205 175.074 65 175.074C64.3693 175.074 63.8764 175.385 63.5213 176.007C63.1662 176.626 62.9886 177.503 62.9886 178.636C62.9886 179.392 63.0682 180.034 63.2273 180.562C63.3864 181.091 63.6151 181.493 63.9134 181.768C64.2145 182.044 64.5767 182.182 65 182.182Z" fill="#E4C417"/>
<path d="M63.3594 182.595L62.7444 183.384L62.7475 183.386L63.3594 182.595ZM62.3239 181.065L61.3818 181.401L61.3822 181.402L62.3239 181.065ZM62.3239 176.22L61.383 175.881L61.3822 175.884L62.3239 176.22ZM63.3636 174.686L63.9786 175.475L63.9793 175.474L63.3636 174.686ZM66.6321 174.686L66.014 175.472L66.0195 175.476L66.6321 174.686ZM67.6719 176.22L66.7298 176.555L66.7315 176.56L67.6719 176.22ZM67.6761 181.065L68.6178 181.402L68.6182 181.401L67.6761 181.065ZM66.6406 182.595L67.2525 183.386L67.2556 183.384L66.6406 182.595ZM66.483 181.261L65.6157 180.763L65.6157 180.763L66.483 181.261ZM66.7685 176.706L65.8105 176.993L65.8119 176.998L66.7685 176.706ZM66.0781 175.491L65.3958 176.223L65.3993 176.226L66.0781 175.491ZM63.5213 176.007L64.3888 176.505L64.3898 176.503L63.5213 176.007ZM63.2273 180.562L62.2697 180.851L62.2697 180.851L63.2273 180.562ZM63.9134 181.768L63.2348 182.503L63.2383 182.506L63.9134 181.768ZM65 182.119C64.5505 182.119 64.2262 182.001 63.9712 181.804L62.7475 183.386C63.396 183.888 64.1655 184.119 65 184.119V182.119ZM63.9743 181.807C63.7041 181.596 63.4555 181.26 63.2655 180.729L61.3822 181.402C61.6695 182.206 62.1112 182.89 62.7444 183.384L63.9743 181.807ZM63.266 180.73C63.076 180.196 62.9659 179.507 62.9659 178.636H60.9659C60.9659 179.664 61.0944 180.593 61.3818 181.401L63.266 180.73ZM62.9659 178.636C62.9659 177.772 63.0759 177.087 63.2655 176.557L61.3822 175.884C61.0946 176.688 60.9659 177.614 60.9659 178.636H62.9659ZM63.2647 176.559C63.4578 176.023 63.7083 175.685 63.9786 175.475L62.7487 173.898C62.1155 174.391 61.6729 175.076 61.383 175.881L63.2647 176.559ZM63.9793 175.474C64.2397 175.271 64.5623 175.153 65 175.153V173.153C64.1649 173.153 63.3967 173.391 62.748 173.898L63.9793 175.474ZM65 175.153C65.4377 175.153 65.7577 175.271 66.0141 175.472L67.2501 173.9C66.6031 173.391 65.835 173.153 65 173.153V175.153ZM66.0195 175.476C66.2907 175.687 66.54 176.022 66.7298 176.555L68.614 175.885C68.3265 175.077 67.8826 174.39 67.2447 173.896L66.0195 175.476ZM66.7315 176.56C66.9229 177.09 67.0341 177.773 67.0341 178.636H69.0341C69.0341 177.613 68.9038 176.686 68.6123 175.88L66.7315 176.56ZM67.0341 178.636C67.0341 179.507 66.924 180.196 66.734 180.73L68.6182 181.401C68.9056 180.593 69.0341 179.664 69.0341 178.636H67.0341ZM66.7345 180.729C66.5445 181.26 66.2959 181.596 66.0257 181.807L67.2556 183.384C67.8888 182.89 68.3305 182.206 68.6178 181.402L66.7345 180.729ZM66.0288 181.804C65.7738 182.001 65.4495 182.119 65 182.119V184.119C65.8345 184.119 66.604 183.888 67.2525 183.386L66.0288 181.804ZM65 183.182C66.0405 183.182 66.8438 182.641 67.3502 181.759L65.6157 180.763C65.4176 181.109 65.2322 181.182 65 181.182V183.182ZM67.3502 181.759C67.827 180.929 68.0114 179.852 68.0114 178.636H66.0114C66.0114 179.693 65.8434 180.367 65.6157 180.763L67.3502 181.759ZM68.0114 178.636C68.0114 177.815 67.924 177.067 67.725 176.414L65.8119 176.998C65.9368 177.407 66.0114 177.946 66.0114 178.636H68.0114ZM67.7264 176.419C67.5334 175.775 67.2279 175.193 66.757 174.757L65.3993 176.226C65.5306 176.347 65.6853 176.575 65.8105 176.993L67.7264 176.419ZM66.7604 174.76C66.2708 174.303 65.6652 174.074 65 174.074V176.074C65.1757 176.074 65.2888 176.123 65.3958 176.223L66.7604 174.76ZM65 174.074C63.9552 174.074 63.1568 174.628 62.6528 175.511L64.3898 176.503C64.596 176.141 64.7835 176.074 65 176.074V174.074ZM62.6538 175.51C62.1751 176.344 61.9886 177.421 61.9886 178.636H63.9886C63.9886 177.585 64.1573 176.908 64.3888 176.505L62.6538 175.51ZM61.9886 178.636C61.9886 179.456 62.0743 180.202 62.2697 180.851L64.1848 180.274C64.0621 179.867 63.9886 179.328 63.9886 178.636H61.9886ZM62.2697 180.851C62.4625 181.491 62.7664 182.07 63.2348 182.503L64.5919 181.034C64.4637 180.915 64.3102 180.691 64.1848 180.274L62.2697 180.851ZM63.2383 182.506C63.7311 182.957 64.337 183.182 65 183.182V181.182C64.8164 181.182 64.6978 181.131 64.5884 181.031L63.2383 182.506Z" fill="#E4C417"/>
<path d="M114.833 171V165" stroke="#E4C417"/>
<path d="M116.016 174.273V183H114.959V175.381H114.908L112.777 176.795V175.722L114.959 174.273H116.016Z" fill="#E4C417"/>
<path d="M116.016 174.273H117.016V173.273H116.016V174.273ZM116.016 183V184H117.016V183H116.016ZM114.959 183H113.959V184H114.959V183ZM114.959 175.381H115.959V174.381H114.959V175.381ZM114.908 175.381V174.381H114.606L114.355 174.548L114.908 175.381ZM112.777 176.795H111.777V178.66L113.33 177.629L112.777 176.795ZM112.777 175.722L112.224 174.889L111.777 175.185V175.722H112.777ZM114.959 174.273V173.273H114.657L114.406 173.44L114.959 174.273ZM115.016 174.273V183H117.016V174.273H115.016ZM116.016 182H114.959V184H116.016V182ZM115.959 183V175.381H113.959V183H115.959ZM114.959 174.381H114.908V176.381H114.959V174.381ZM114.355 174.548L112.224 175.962L113.33 177.629L115.461 176.214L114.355 174.548ZM113.777 176.795V175.722H111.777V176.795H113.777ZM113.33 176.555L115.512 175.106L114.406 173.44L112.224 174.889L113.33 176.555ZM114.959 175.273H116.016V173.273H114.959V175.273Z" fill="#E4C417"/>
<path d="M164.667 171V165" stroke="#E4C417"/>
<path d="M161.937 183V182.233L164.818 179.08C165.156 178.71 165.435 178.389 165.653 178.116C165.872 177.841 166.034 177.582 166.139 177.341C166.247 177.097 166.301 176.841 166.301 176.574C166.301 176.267 166.227 176.001 166.079 175.777C165.935 175.553 165.736 175.379 165.483 175.257C165.23 175.135 164.946 175.074 164.631 175.074C164.295 175.074 164.003 175.143 163.753 175.283C163.506 175.419 163.314 175.611 163.177 175.858C163.044 176.105 162.977 176.395 162.977 176.727H161.971C161.971 176.216 162.089 175.767 162.325 175.381C162.561 174.994 162.882 174.693 163.288 174.477C163.697 174.261 164.156 174.153 164.665 174.153C165.176 174.153 165.629 174.261 166.024 174.477C166.419 174.693 166.729 174.984 166.953 175.351C167.177 175.717 167.29 176.125 167.29 176.574C167.29 176.895 167.231 177.209 167.115 177.516C167.001 177.82 166.802 178.159 166.518 178.534C166.237 178.906 165.846 179.361 165.346 179.898L163.386 181.994V182.062H167.443V183H161.937Z" fill="#E4C417"/>
<path d="M161.937 183H160.937V184H161.937V183ZM161.937 182.233L161.199 181.558L160.937 181.845V182.233H161.937ZM164.818 179.08L164.08 178.404L164.08 178.405L164.818 179.08ZM165.653 178.116L166.433 178.742L166.436 178.738L165.653 178.116ZM166.139 177.341L165.224 176.937L165.222 176.942L166.139 177.341ZM166.079 175.777L165.239 176.319L165.244 176.327L166.079 175.777ZM165.483 175.257L165.918 174.357L165.918 174.357L165.483 175.257ZM163.753 175.283L164.236 176.158L164.239 176.156L163.753 175.283ZM163.177 175.858L162.302 175.375L162.298 175.383L163.177 175.858ZM162.977 176.727V177.727H163.977V176.727H162.977ZM161.971 176.727H160.971V177.727H161.971V176.727ZM162.325 175.381L163.179 175.902L163.179 175.902L162.325 175.381ZM163.288 174.477L162.821 173.593L162.819 173.594L163.288 174.477ZM166.024 174.477L166.504 173.6L166.504 173.6L166.024 174.477ZM167.115 177.516L166.18 177.161L166.178 177.165L167.115 177.516ZM166.518 178.534L165.721 177.93L165.721 177.931L166.518 178.534ZM165.346 179.898L166.077 180.581L166.078 180.579L165.346 179.898ZM163.386 181.994L162.656 181.311L162.386 181.6V181.994H163.386ZM163.386 182.062H162.386V183.062H163.386V182.062ZM167.443 182.062H168.443V181.062H167.443V182.062ZM167.443 183V184H168.443V183H167.443ZM162.937 183V182.233H160.937V183H162.937ZM162.676 182.907L165.556 179.754L164.08 178.405L161.199 181.558L162.676 182.907ZM165.556 179.755C165.903 179.376 166.197 179.037 166.433 178.742L164.873 177.491C164.672 177.741 164.409 178.045 164.08 178.404L165.556 179.755ZM166.436 178.738C166.692 178.416 166.907 178.083 167.056 177.74L165.222 176.942C165.161 177.082 165.052 177.266 164.87 177.495L166.436 178.738ZM167.054 177.745C167.218 177.373 167.301 176.98 167.301 176.574H165.301C165.301 176.702 165.276 176.82 165.224 176.937L167.054 177.745ZM167.301 176.574C167.301 176.1 167.185 175.637 166.915 175.227L165.244 176.327C165.27 176.366 165.301 176.434 165.301 176.574H167.301ZM166.92 175.235C166.67 174.848 166.327 174.554 165.918 174.357L165.048 176.158C165.144 176.204 165.199 176.257 165.239 176.319L166.92 175.235ZM165.918 174.357C165.513 174.161 165.078 174.074 164.631 174.074V176.074C164.814 176.074 164.946 176.109 165.048 176.158L165.918 174.357ZM164.631 174.074C164.154 174.074 163.689 174.174 163.266 174.409L164.239 176.156C164.317 176.113 164.436 176.074 164.631 176.074V174.074ZM163.27 174.407C162.857 174.635 162.529 174.962 162.302 175.375L164.053 176.341C164.098 176.259 164.154 176.203 164.236 176.158L163.27 174.407ZM162.298 175.383C162.072 175.8 161.977 176.259 161.977 176.727H163.977C163.977 176.53 164.016 176.41 164.057 176.333L162.298 175.383ZM162.977 175.727H161.971V177.727H162.977V175.727ZM162.971 176.727C162.971 176.375 163.051 176.111 163.179 175.902L161.472 174.86C161.128 175.423 160.971 176.057 160.971 176.727H162.971ZM163.179 175.902C163.32 175.671 163.507 175.494 163.758 175.36L162.819 173.594C162.257 173.893 161.802 174.318 161.472 174.86L163.179 175.902ZM163.755 175.362C164.006 175.229 164.302 175.153 164.665 175.153V173.153C164.01 173.153 163.388 173.294 162.821 173.593L163.755 175.362ZM164.665 175.153C165.031 175.153 165.316 175.23 165.544 175.355L166.504 173.6C165.943 173.293 165.321 173.153 164.665 173.153V175.153ZM165.544 175.355C165.793 175.491 165.971 175.663 166.1 175.873L167.806 174.829C167.486 174.306 167.044 173.895 166.504 173.6L165.544 175.355ZM166.1 175.873C166.224 176.075 166.29 176.301 166.29 176.574H168.29C168.29 175.949 168.131 175.359 167.806 174.829L166.1 175.873ZM166.29 176.574C166.29 176.771 166.254 176.965 166.18 177.161L168.05 177.871C168.208 177.453 168.29 177.019 168.29 176.574H166.29ZM166.178 177.165C166.11 177.348 165.971 177.601 165.721 177.93L167.315 179.138C167.634 178.717 167.892 178.291 168.052 177.866L166.178 177.165ZM165.721 177.931C165.468 178.265 165.103 178.692 164.615 179.216L166.078 180.579C166.59 180.03 167.006 179.547 167.316 179.137L165.721 177.931ZM164.616 179.215L162.656 181.311L164.117 182.677L166.077 180.581L164.616 179.215ZM162.386 181.994V182.062H164.386V181.994H162.386ZM163.386 183.062H167.443V181.062H163.386V183.062ZM166.443 182.062V183H168.443V182.062H166.443ZM167.443 182H161.937V184H167.443V182Z" fill="#E4C417"/>
<path d="M214.5 171V165" stroke="#E4C417"/>
<path d="M214.532 183.119C213.969 183.119 213.468 183.023 213.028 182.83C212.59 182.636 212.242 182.368 211.984 182.024C211.728 181.678 211.589 181.276 211.566 180.818H212.64C212.663 181.099 212.759 181.342 212.93 181.547C213.1 181.749 213.323 181.905 213.599 182.016C213.874 182.126 214.18 182.182 214.515 182.182C214.89 182.182 215.222 182.116 215.512 181.986C215.802 181.855 216.029 181.673 216.194 181.44C216.359 181.207 216.441 180.938 216.441 180.631C216.441 180.31 216.362 180.027 216.202 179.783C216.043 179.536 215.81 179.342 215.504 179.203C215.197 179.064 214.822 178.994 214.379 178.994H213.68V178.057H214.379C214.725 178.057 215.029 177.994 215.29 177.869C215.555 177.744 215.761 177.568 215.908 177.341C216.059 177.114 216.134 176.847 216.134 176.54C216.134 176.244 216.069 175.987 215.938 175.768C215.808 175.55 215.623 175.379 215.384 175.257C215.148 175.135 214.87 175.074 214.549 175.074C214.248 175.074 213.964 175.129 213.697 175.24C213.433 175.348 213.217 175.506 213.049 175.713C212.881 175.918 212.79 176.165 212.776 176.455H211.754C211.771 175.997 211.908 175.597 212.167 175.253C212.425 174.906 212.763 174.636 213.181 174.443C213.602 174.25 214.063 174.153 214.566 174.153C215.106 174.153 215.569 174.263 215.955 174.482C216.342 174.697 216.638 174.983 216.846 175.338C217.053 175.693 217.157 176.077 217.157 176.489C217.157 176.98 217.028 177.399 216.769 177.746C216.513 178.092 216.165 178.332 215.725 178.466V178.534C216.276 178.625 216.707 178.859 217.016 179.237C217.326 179.612 217.481 180.077 217.481 180.631C217.481 181.105 217.352 181.531 217.093 181.909C216.837 182.284 216.488 182.58 216.045 182.795C215.602 183.011 215.097 183.119 214.532 183.119Z" fill="#E4C417"/>
<path d="M213.028 182.83L212.624 183.744L212.626 183.745L213.028 182.83ZM211.984 182.024L211.179 182.618L211.184 182.625L211.984 182.024ZM211.566 180.818V179.818H210.515L210.567 180.868L211.566 180.818ZM212.64 180.818L213.637 180.738L213.562 179.818H212.64V180.818ZM212.93 181.547L212.161 182.187L212.166 182.192L212.93 181.547ZM213.599 182.016L213.226 182.943L213.226 182.943L213.599 182.016ZM216.194 181.44L215.377 180.863L215.377 180.863L216.194 181.44ZM216.202 179.783L215.362 180.324L215.364 180.328L216.202 179.783ZM215.504 179.203L215.09 180.114L215.09 180.114L215.504 179.203ZM213.68 178.994H212.68V179.994H213.68V178.994ZM213.68 178.057V177.057H212.68V178.057H213.68ZM215.29 177.869L214.863 176.965L214.859 176.967L215.29 177.869ZM215.908 177.341L215.075 176.789L215.07 176.796L215.908 177.341ZM215.938 175.768L216.797 175.256L216.797 175.256L215.938 175.768ZM215.384 175.257L214.924 176.145L214.929 176.147L215.384 175.257ZM213.697 175.24L214.075 176.166L214.08 176.164L213.697 175.24ZM213.049 175.713L213.823 176.347L213.827 176.342L213.049 175.713ZM212.776 176.455V177.455H213.728L213.775 176.504L212.776 176.455ZM211.754 176.455L210.754 176.417L210.716 177.455H211.754V176.455ZM212.167 175.253L212.966 175.854L212.968 175.851L212.167 175.253ZM213.181 174.443L212.764 173.535L212.761 173.536L213.181 174.443ZM215.955 174.482L215.463 175.352L215.467 175.354L215.955 174.482ZM216.846 175.338L215.982 175.842L215.982 175.842L216.846 175.338ZM216.769 177.746L215.968 177.148L215.964 177.152L216.769 177.746ZM215.725 178.466L215.435 177.509L214.725 177.724V178.466H215.725ZM215.725 178.534H214.725V179.383L215.562 179.521L215.725 178.534ZM217.016 179.237L216.243 179.871L216.245 179.874L217.016 179.237ZM217.093 181.909L216.268 181.344L216.267 181.346L217.093 181.909ZM216.045 182.795L216.483 183.694L216.483 183.694L216.045 182.795ZM214.532 182.119C214.085 182.119 213.723 182.043 213.429 181.914L212.626 183.745C213.213 184.003 213.854 184.119 214.532 184.119V182.119ZM213.432 181.915C213.133 181.783 212.927 181.615 212.783 181.423L211.184 182.625C211.557 183.12 212.048 183.49 212.624 183.744L213.432 181.915ZM212.788 181.43C212.657 181.252 212.578 181.043 212.565 180.769L210.567 180.868C210.599 181.509 210.799 182.103 211.179 182.618L212.788 181.43ZM211.566 181.818H212.64V179.818H211.566V181.818ZM211.643 180.899C211.681 181.373 211.851 181.814 212.161 182.187L213.698 180.907C213.668 180.87 213.644 180.826 213.637 180.738L211.643 180.899ZM212.166 182.192C212.454 182.533 212.818 182.779 213.226 182.943L213.972 181.088C213.828 181.03 213.746 180.964 213.693 180.901L212.166 182.192ZM213.226 182.943C213.634 183.108 214.068 183.182 214.515 183.182V181.182C214.291 181.182 214.114 181.145 213.972 181.088L213.226 182.943ZM214.515 183.182C215.006 183.182 215.483 183.096 215.923 182.897L215.101 181.074C214.962 181.137 214.773 181.182 214.515 181.182V183.182ZM215.923 182.897C216.356 182.702 216.731 182.412 217.01 182.018L215.377 180.863C215.327 180.934 215.247 181.008 215.101 181.074L215.923 182.897ZM217.01 182.018C217.304 181.603 217.441 181.128 217.441 180.631H215.441C215.441 180.747 215.414 180.812 215.377 180.863L217.01 182.018ZM217.441 180.631C217.441 180.136 217.316 179.66 217.04 179.237L215.364 180.328C215.407 180.394 215.441 180.483 215.441 180.631H217.441ZM217.043 179.241C216.766 178.81 216.372 178.499 215.917 178.292L215.09 180.114C215.248 180.185 215.321 180.261 215.362 180.324L217.043 179.241ZM215.917 178.292C215.446 178.079 214.921 177.994 214.379 177.994V179.994C214.722 179.994 214.947 180.049 215.09 180.114L215.917 178.292ZM214.379 177.994H213.68V179.994H214.379V177.994ZM214.68 178.994V178.057H212.68V178.994H214.68ZM213.68 179.057H214.379V177.057H213.68V179.057ZM214.379 179.057C214.846 179.057 215.302 178.972 215.722 178.771L214.859 176.967C214.756 177.016 214.605 177.057 214.379 177.057V179.057ZM215.718 178.773C216.136 178.575 216.49 178.281 216.747 177.886L215.07 176.796C215.031 176.856 214.973 176.913 214.863 176.965L215.718 178.773ZM216.742 177.893C217.014 177.482 217.134 177.018 217.134 176.54H215.134C215.134 176.676 215.104 176.745 215.075 176.789L216.742 177.893ZM217.134 176.54C217.134 176.093 217.034 175.653 216.797 175.256L215.08 176.281C215.104 176.322 215.134 176.396 215.134 176.54H217.134ZM216.797 175.256C216.565 174.867 216.236 174.57 215.84 174.367L214.929 176.147C215.009 176.189 215.05 176.232 215.08 176.281L216.797 175.256ZM215.844 174.369C215.44 174.16 214.997 174.074 214.549 174.074V176.074C214.743 176.074 214.857 176.11 214.924 176.145L215.844 174.369ZM214.549 174.074C214.122 174.074 213.707 174.153 213.314 174.316L214.08 176.164C214.22 176.105 214.374 176.074 214.549 176.074V174.074ZM213.318 174.314C212.91 174.481 212.552 174.737 212.271 175.084L213.827 176.342C213.881 176.275 213.956 176.215 214.075 176.166L213.318 174.314ZM212.276 175.079C211.959 175.466 211.801 175.924 211.777 176.406L213.775 176.504C213.78 176.406 213.804 176.369 213.822 176.347L212.276 175.079ZM212.776 175.455H211.754V177.455H212.776V175.455ZM212.753 176.492C212.763 176.225 212.838 176.024 212.966 175.854L211.368 174.652C210.978 175.169 210.778 175.77 210.754 176.417L212.753 176.492ZM212.968 175.851C213.121 175.646 213.324 175.479 213.601 175.351L212.761 173.536C212.203 173.794 211.73 174.166 211.365 174.655L212.968 175.851ZM213.599 175.352C213.877 175.224 214.195 175.153 214.566 175.153V173.153C213.932 173.153 213.326 173.276 212.764 173.535L213.599 175.352ZM214.566 175.153C214.97 175.153 215.256 175.235 215.463 175.352L216.448 173.611C215.882 173.291 215.241 173.153 214.566 173.153V175.153ZM215.467 175.354C215.71 175.49 215.872 175.653 215.982 175.842L217.709 174.834C217.405 174.313 216.973 173.905 216.443 173.609L215.467 175.354ZM215.982 175.842C216.1 176.044 216.157 176.254 216.157 176.489H218.157C218.157 175.9 218.006 175.342 217.709 174.834L215.982 175.842ZM216.157 176.489C216.157 176.795 216.08 176.997 215.968 177.148L217.571 178.344C217.975 177.801 218.157 177.165 218.157 176.489H216.157ZM215.964 177.152C215.846 177.313 215.684 177.433 215.435 177.509L216.015 179.423C216.647 179.231 217.181 178.872 217.574 178.339L215.964 177.152ZM214.725 178.466V178.534H216.725V178.466H214.725ZM215.562 179.521C215.91 179.578 216.109 179.708 216.243 179.871L217.79 178.603C217.304 178.011 216.642 177.672 215.888 177.547L215.562 179.521ZM216.245 179.874C216.387 180.045 216.481 180.275 216.481 180.631H218.481C218.481 179.879 218.265 179.179 217.787 178.6L216.245 179.874ZM216.481 180.631C216.481 180.911 216.408 181.139 216.268 181.344L217.918 182.474C218.295 181.923 218.481 181.299 218.481 180.631H216.481ZM216.267 181.346C216.117 181.565 215.907 181.75 215.607 181.896L216.483 183.694C217.068 183.409 217.557 183.003 217.919 182.472L216.267 181.346ZM215.607 181.896C215.319 182.037 214.968 182.119 214.532 182.119V184.119C215.227 184.119 215.884 183.986 216.483 183.694L215.607 181.896Z" fill="#E4C417"/>
<path d="M264.333 171V165" stroke="#E4C417"/>
<path d="M261.183 181.21V180.341L265.018 174.273H265.648V175.619H265.222L262.325 180.205V180.273H267.489V181.21H261.183ZM265.29 183V180.946V180.541V174.273H266.296V183H265.29Z" fill="#E4C417"/>
<path d="M261.183 181.21H260.183V182.21H261.183V181.21ZM261.183 180.341L260.337 179.807L260.183 180.051V180.341H261.183ZM265.018 174.273V173.273H264.467L264.172 173.738L265.018 174.273ZM265.648 174.273H266.648V173.273H265.648V174.273ZM265.648 175.619V176.619H266.648V175.619H265.648ZM265.222 175.619V174.619H264.671L264.377 175.085L265.222 175.619ZM262.325 180.205L261.479 179.67L261.325 179.915V180.205H262.325ZM262.325 180.273H261.325V181.273H262.325V180.273ZM267.489 180.273H268.489V179.273H267.489V180.273ZM267.489 181.21V182.21H268.489V181.21H267.489ZM265.29 183H264.29V184H265.29V183ZM265.29 174.273V173.273H264.29V174.273H265.29ZM266.296 174.273H267.296V173.273H266.296V174.273ZM266.296 183V184H267.296V183H266.296ZM262.183 181.21V180.341H260.183V181.21H262.183ZM262.028 180.875L265.863 174.807L264.172 173.738L260.337 179.807L262.028 180.875ZM265.018 175.273H265.648V173.273H265.018V175.273ZM264.648 174.273V175.619H266.648V174.273H264.648ZM265.648 174.619H265.222V176.619H265.648V174.619ZM264.377 175.085L261.479 179.67L263.17 180.739L266.068 176.154L264.377 175.085ZM261.325 180.205V180.273H263.325V180.205H261.325ZM262.325 181.273H267.489V179.273H262.325V181.273ZM266.489 180.273V181.21H268.489V180.273H266.489ZM267.489 180.21H261.183V182.21H267.489V180.21ZM266.29 183V180.946H264.29V183H266.29ZM266.29 180.946V180.541H264.29V180.946H266.29ZM266.29 180.541V174.273H264.29V180.541H266.29ZM265.29 175.273H266.296V173.273H265.29V175.273ZM265.296 174.273V183H267.296V174.273H265.296ZM266.296 182H265.29V184H266.296V182Z" fill="#E4C417"/>
<path d="M314.167 171V165" stroke="#E4C417"/>
<path d="M314.147 183.119C313.647 183.119 313.197 183.02 312.796 182.821C312.396 182.622 312.075 182.349 311.833 182.003C311.592 181.656 311.46 181.261 311.437 180.818H312.46C312.499 181.213 312.678 181.54 312.996 181.798C313.317 182.054 313.701 182.182 314.147 182.182C314.505 182.182 314.823 182.098 315.102 181.93C315.383 181.763 315.603 181.533 315.762 181.24C315.924 180.945 316.005 180.611 316.005 180.239C316.005 179.858 315.921 179.518 315.754 179.22C315.589 178.919 315.362 178.682 315.072 178.509C314.782 178.335 314.451 178.247 314.079 178.244C313.812 178.241 313.538 178.283 313.256 178.368C312.975 178.45 312.744 178.557 312.562 178.688L311.573 178.568L312.102 174.273H316.636V175.21H312.988L312.681 177.784H312.732C312.911 177.642 313.136 177.524 313.406 177.43C313.675 177.337 313.957 177.29 314.249 177.29C314.783 177.29 315.259 177.418 315.677 177.673C316.097 177.926 316.427 178.273 316.666 178.713C316.907 179.153 317.028 179.656 317.028 180.222C317.028 180.778 316.903 181.276 316.653 181.713C316.406 182.148 316.065 182.491 315.63 182.744C315.195 182.994 314.701 183.119 314.147 183.119Z" fill="#E4C417"/>
<path d="M312.796 182.821L312.352 183.717L312.352 183.717L312.796 182.821ZM311.833 182.003L312.654 181.431L312.654 181.431L311.833 182.003ZM311.437 180.818V179.818H310.384L310.438 180.869L311.437 180.818ZM312.46 180.818L313.455 180.718L313.364 179.818H312.46V180.818ZM312.996 181.798L312.366 182.574L312.373 182.581L312.996 181.798ZM315.102 181.93L314.59 181.071L314.586 181.074L315.102 181.93ZM315.762 181.24L314.885 180.759L314.884 180.762L315.762 181.24ZM315.754 179.22L314.876 179.7L314.882 179.71L315.754 179.22ZM314.079 178.244L314.068 179.244L314.071 179.244L314.079 178.244ZM313.256 178.368L313.538 179.328L313.546 179.325L313.256 178.368ZM312.562 178.688L312.442 179.68L312.829 179.727L313.145 179.5L312.562 178.688ZM311.573 178.568L310.581 178.446L310.458 179.441L311.453 179.561L311.573 178.568ZM312.102 174.273V173.273H311.217L311.109 174.151L312.102 174.273ZM316.636 174.273H317.636V173.273H316.636V174.273ZM316.636 175.21V176.21H317.636V175.21H316.636ZM312.988 175.21V174.21H312.1L311.995 175.092L312.988 175.21ZM312.681 177.784L311.688 177.666L311.555 178.784H312.681V177.784ZM312.732 177.784V178.784H313.081L313.354 178.567L312.732 177.784ZM315.677 177.673L315.155 178.526L315.162 178.53L315.677 177.673ZM316.666 178.713L315.786 179.19L315.789 179.194L316.666 178.713ZM316.653 181.713L315.784 181.217L315.783 181.219L316.653 181.713ZM315.63 182.744L316.129 183.611L316.133 183.609L315.63 182.744ZM314.147 182.119C313.783 182.119 313.488 182.048 313.241 181.925L312.352 183.717C312.906 183.992 313.511 184.119 314.147 184.119V182.119ZM313.241 181.925C312.982 181.797 312.793 181.632 312.654 181.431L311.013 182.574C311.356 183.067 311.81 183.448 312.352 183.717L313.241 181.925ZM312.654 181.431C312.525 181.246 312.449 181.033 312.435 180.767L310.438 180.869C310.47 181.489 310.659 182.067 311.013 182.574L312.654 181.431ZM311.437 181.818H312.46V179.818H311.437V181.818ZM311.465 180.918C311.532 181.588 311.849 182.154 312.366 182.574L313.627 181.022C313.508 180.925 313.467 180.838 313.455 180.718L311.465 180.918ZM312.373 182.581C312.887 182.99 313.496 183.182 314.147 183.182V181.182C313.906 181.182 313.748 181.118 313.619 181.016L312.373 182.581ZM314.147 183.182C314.668 183.182 315.168 183.058 315.617 182.787L314.586 181.074C314.479 181.138 314.342 181.182 314.147 181.182V183.182ZM315.614 182.789C316.052 182.528 316.397 182.165 316.641 181.718L314.884 180.762C314.809 180.9 314.714 180.997 314.59 181.071L315.614 182.789ZM316.639 181.721C316.89 181.263 317.005 180.761 317.005 180.239H315.005C315.005 180.461 314.958 180.626 314.885 180.759L316.639 181.721ZM317.005 180.239C317.005 179.706 316.886 179.194 316.625 178.73L314.882 179.71C314.956 179.842 315.005 180.01 315.005 180.239H317.005ZM316.631 178.74C316.382 178.286 316.03 177.917 315.585 177.65L314.558 179.367C314.693 179.447 314.796 179.553 314.876 179.7L316.631 178.74ZM315.585 177.65C315.127 177.376 314.618 177.248 314.086 177.244L314.071 179.244C314.284 179.246 314.437 179.294 314.558 179.367L315.585 177.65ZM314.089 177.244C313.711 177.24 313.335 177.299 312.966 177.411L313.546 179.325C313.74 179.266 313.913 179.243 314.068 179.244L314.089 177.244ZM312.975 177.408C312.617 177.513 312.275 177.662 311.978 177.875L313.145 179.5C313.212 179.452 313.333 179.387 313.538 179.328L312.975 177.408ZM312.682 177.695L311.693 177.575L311.453 179.561L312.442 179.68L312.682 177.695ZM312.566 178.69L313.094 174.395L311.109 174.151L310.581 178.446L312.566 178.69ZM312.102 175.273H316.636V173.273H312.102V175.273ZM315.636 174.273V175.21H317.636V174.273H315.636ZM316.636 174.21H312.988V176.21H316.636V174.21ZM311.995 175.092L311.688 177.666L313.674 177.902L313.981 175.329L311.995 175.092ZM312.681 178.784H312.732V176.784H312.681V178.784ZM313.354 178.567C313.426 178.51 313.545 178.441 313.734 178.375L313.077 176.486C312.727 176.608 312.397 176.774 312.111 177.001L313.354 178.567ZM313.734 178.375C313.896 178.319 314.066 178.29 314.249 178.29V176.29C313.848 176.29 313.455 176.354 313.077 176.486L313.734 178.375ZM314.249 178.29C314.616 178.29 314.908 178.375 315.155 178.526L316.199 176.82C315.61 176.46 314.95 176.29 314.249 176.29V178.29ZM315.162 178.53C315.426 178.689 315.631 178.903 315.786 179.19L317.545 178.237C317.223 177.643 316.769 177.163 316.192 176.816L315.162 178.53ZM315.789 179.194C315.94 179.469 316.028 179.803 316.028 180.222H318.028C318.028 179.51 317.874 178.838 317.542 178.232L315.789 179.194ZM316.028 180.222C316.028 180.623 315.939 180.946 315.784 181.217L317.521 182.209C317.866 181.605 318.028 180.934 318.028 180.222H316.028ZM315.783 181.219C315.624 181.499 315.41 181.715 315.127 181.88L316.133 183.609C316.719 183.268 317.187 182.797 317.522 182.207L315.783 181.219ZM315.131 181.877C314.864 182.031 314.545 182.119 314.147 182.119V184.119C314.857 184.119 315.527 183.957 316.129 183.611L315.131 181.877Z" fill="#E4C417"/>
<path d="M364 171V165" stroke="#E4C417"/>
<path d="M364.057 183.119C363.699 183.114 363.341 183.045 362.983 182.915C362.625 182.784 362.298 182.564 362.003 182.254C361.708 181.942 361.47 181.52 361.291 180.989C361.112 180.455 361.023 179.784 361.023 178.977C361.023 178.205 361.095 177.52 361.24 176.923C361.385 176.324 361.595 175.82 361.871 175.411C362.146 174.999 362.479 174.686 362.868 174.473C363.26 174.26 363.702 174.153 364.193 174.153C364.682 174.153 365.117 174.251 365.497 174.447C365.881 174.641 366.193 174.911 366.435 175.257C366.676 175.604 366.833 176.003 366.904 176.455H365.864C365.767 176.062 365.58 175.737 365.301 175.479C365.023 175.22 364.654 175.091 364.193 175.091C363.517 175.091 362.985 175.385 362.595 175.973C362.209 176.561 362.014 177.386 362.012 178.449H362.08C362.239 178.207 362.428 178.001 362.646 177.831C362.868 177.658 363.112 177.524 363.379 177.43C363.646 177.337 363.929 177.29 364.227 177.29C364.727 177.29 365.185 177.415 365.6 177.665C366.014 177.912 366.347 178.254 366.597 178.692C366.847 179.126 366.972 179.625 366.972 180.188C366.972 180.727 366.851 181.222 366.61 181.67C366.368 182.116 366.029 182.472 365.591 182.736C365.156 182.997 364.645 183.125 364.057 183.119ZM364.057 182.182C364.415 182.182 364.736 182.092 365.02 181.913C365.307 181.734 365.533 181.494 365.698 181.193C365.865 180.892 365.949 180.557 365.949 180.188C365.949 179.827 365.868 179.499 365.706 179.203C365.547 178.905 365.327 178.668 365.046 178.491C364.767 178.315 364.449 178.227 364.091 178.227C363.821 178.227 363.57 178.281 363.337 178.389C363.104 178.494 362.899 178.639 362.723 178.824C362.55 179.009 362.414 179.22 362.314 179.459C362.215 179.695 362.165 179.943 362.165 180.205C362.165 180.551 362.246 180.875 362.408 181.176C362.573 181.477 362.797 181.72 363.081 181.905C363.368 182.089 363.693 182.182 364.057 182.182Z" fill="#E4C417"/>
<path d="M364.057 183.119L364.041 184.119L364.047 184.119L364.057 183.119ZM362.983 182.915L362.64 183.854L362.64 183.854L362.983 182.915ZM362.003 182.254L361.276 182.941L361.28 182.945L362.003 182.254ZM361.291 180.989L360.343 181.306L360.344 181.308L361.291 180.989ZM361.24 176.923L362.212 177.159L362.212 177.158L361.24 176.923ZM361.871 175.411L362.7 175.969L362.702 175.967L361.871 175.411ZM362.868 174.473L362.391 173.594L362.388 173.596L362.868 174.473ZM365.497 174.447L365.04 175.337L365.047 175.341L365.497 174.447ZM366.435 175.257L367.255 174.685L367.255 174.685L366.435 175.257ZM366.904 176.455V177.455H368.073L367.891 176.299L366.904 176.455ZM365.864 176.455L364.893 176.694L365.08 177.455H365.864V176.455ZM365.301 175.479L364.621 176.211L364.621 176.211L365.301 175.479ZM362.595 175.973L361.761 175.421L361.76 175.424L362.595 175.973ZM362.012 178.449L361.012 178.446L361.009 179.449H362.012V178.449ZM362.08 178.449V179.449H362.618L362.915 178.999L362.08 178.449ZM362.646 177.831L363.261 178.62L363.263 178.619L362.646 177.831ZM365.6 177.665L365.083 178.521L365.088 178.524L365.6 177.665ZM366.597 178.692L365.729 179.188L365.73 179.19L366.597 178.692ZM366.61 181.67L367.489 182.147L367.49 182.144L366.61 181.67ZM365.591 182.736L366.106 183.593L366.108 183.592L365.591 182.736ZM365.02 181.913L364.491 181.065L364.487 181.067L365.02 181.913ZM365.698 181.193L364.824 180.707L364.82 180.713L365.698 181.193ZM365.706 179.203L364.824 179.674L364.829 179.684L365.706 179.203ZM365.046 178.491L364.511 179.337L364.515 179.339L365.046 178.491ZM363.337 178.389L363.748 179.301L363.757 179.297L363.337 178.389ZM362.723 178.824L362 178.134L361.994 178.14L362.723 178.824ZM362.314 179.459L363.236 179.847L363.237 179.843L362.314 179.459ZM362.408 181.176L361.527 181.65L361.531 181.656L362.408 181.176ZM363.081 181.905L362.536 182.743L362.54 182.746L363.081 181.905ZM364.073 182.119C363.834 182.116 363.586 182.07 363.326 181.975L362.64 183.854C363.096 184.021 363.565 184.112 364.041 184.119L364.073 182.119ZM363.326 181.975C363.129 181.904 362.929 181.776 362.727 181.564L361.28 182.945C361.668 183.352 362.121 183.665 362.64 183.854L363.326 181.975ZM362.73 181.567C362.559 181.387 362.385 181.103 362.239 180.669L360.344 181.308C360.555 181.936 360.856 182.497 361.276 182.941L362.73 181.567ZM362.24 180.671C362.106 180.273 362.023 179.719 362.023 178.977H360.023C360.023 179.849 360.119 180.636 360.343 181.306L362.24 180.671ZM362.023 178.977C362.023 178.265 362.09 177.662 362.212 177.159L360.268 176.687C360.101 177.378 360.023 178.144 360.023 178.977H362.023ZM362.212 177.158C362.336 176.647 362.505 176.258 362.7 175.969L361.042 174.852C360.685 175.381 360.434 176.001 360.268 176.688L362.212 177.158ZM362.702 175.967C362.899 175.672 363.116 175.477 363.348 175.35L362.388 173.596C361.842 173.895 361.394 174.325 361.04 174.854L362.702 175.967ZM363.346 175.352C363.577 175.226 363.851 175.153 364.193 175.153V173.153C363.552 173.153 362.944 173.294 362.391 173.594L363.346 175.352ZM364.193 175.153C364.545 175.153 364.819 175.223 365.04 175.336L365.955 173.558C365.414 173.28 364.819 173.153 364.193 173.153V175.153ZM365.047 175.341C365.285 175.46 365.469 175.621 365.614 175.829L367.255 174.685C366.917 174.2 366.476 173.821 365.947 173.554L365.047 175.341ZM365.614 175.829C365.762 176.041 365.866 176.295 365.916 176.61L367.891 176.299C367.799 175.71 367.59 175.166 367.255 174.685L365.614 175.829ZM366.904 175.455H365.864V177.455H366.904V175.455ZM366.835 176.215C366.695 175.646 366.412 175.146 365.982 174.746L364.621 176.211C364.747 176.329 364.84 176.479 364.893 176.694L366.835 176.215ZM365.982 174.746C365.481 174.281 364.85 174.091 364.193 174.091V176.091C364.457 176.091 364.565 176.16 364.621 176.211L365.982 174.746ZM364.193 174.091C363.165 174.091 362.326 174.568 361.761 175.421L363.429 176.525C363.643 176.202 363.87 176.091 364.193 176.091V174.091ZM361.76 175.424C361.225 176.237 361.015 177.282 361.012 178.446L363.012 178.452C363.014 177.491 363.193 176.885 363.431 176.522L361.76 175.424ZM362.012 179.449H362.08V177.449H362.012V179.449ZM362.915 178.999C363.016 178.845 363.132 178.72 363.261 178.62L362.032 177.042C361.723 177.282 361.461 177.57 361.245 177.899L362.915 178.999ZM363.263 178.619C363.398 178.513 363.546 178.432 363.711 178.374L363.048 176.487C362.679 176.616 362.338 176.802 362.03 177.043L363.263 178.619ZM363.711 178.374C363.866 178.32 364.036 178.29 364.227 178.29V176.29C363.822 176.29 363.427 176.354 363.048 176.487L363.711 178.374ZM364.227 178.29C364.552 178.29 364.83 178.368 365.083 178.521L366.116 176.808C365.54 176.461 364.903 176.29 364.227 176.29V178.29ZM365.088 178.524C365.348 178.679 365.56 178.893 365.729 179.188L367.465 178.196C367.133 177.615 366.681 177.145 366.112 176.806L365.088 178.524ZM365.73 179.19C365.882 179.456 365.972 179.778 365.972 180.188H367.972C367.972 179.472 367.811 178.797 367.464 178.193L365.73 179.19ZM365.972 180.188C365.972 180.572 365.887 180.902 365.729 181.197L367.49 182.144C367.815 181.541 367.972 180.883 367.972 180.188H365.972ZM365.73 181.194C365.574 181.482 365.36 181.707 365.074 181.88L366.108 183.592C366.697 183.236 367.162 182.751 367.489 182.147L365.73 181.194ZM365.076 181.879C364.823 182.031 364.5 182.124 364.067 182.119L364.047 184.119C364.79 184.126 365.489 183.964 366.106 183.593L365.076 181.879ZM364.057 183.182C364.591 183.182 365.099 183.046 365.553 182.759L364.487 181.067C364.373 181.139 364.239 181.182 364.057 181.182V183.182ZM365.549 182.762C365.984 182.491 366.329 182.123 366.575 181.673L364.82 180.713C364.737 180.866 364.63 180.978 364.491 181.065L365.549 182.762ZM366.571 181.68C366.828 181.219 366.949 180.714 366.949 180.188H364.949C364.949 180.399 364.903 180.565 364.824 180.707L366.571 181.68ZM366.949 180.188C366.949 179.671 366.831 179.176 366.583 178.723L364.829 179.684C364.905 179.821 364.949 179.982 364.949 180.188H366.949ZM366.588 178.733C366.349 178.283 366.009 177.915 365.576 177.644L364.515 179.339C364.645 179.421 364.745 179.527 364.824 179.674L366.588 178.733ZM365.58 177.646C365.128 177.36 364.621 177.227 364.091 177.227V179.227C364.277 179.227 364.406 179.27 364.511 179.337L365.58 177.646ZM364.091 177.227C363.684 177.227 363.288 177.31 362.916 177.482L363.757 179.297C363.852 179.253 363.959 179.227 364.091 179.227V177.227ZM362.926 177.478C362.575 177.636 362.265 177.856 362 178.134L363.447 179.514C363.534 179.423 363.632 179.353 363.748 179.301L362.926 177.478ZM361.994 178.14C361.737 178.414 361.536 178.727 361.391 179.074L363.237 179.843C363.291 179.713 363.363 179.604 363.452 179.508L361.994 178.14ZM361.393 179.07C361.24 179.432 361.165 179.813 361.165 180.205H363.165C363.165 180.074 363.189 179.958 363.236 179.847L361.393 179.07ZM361.165 180.205C361.165 180.714 361.286 181.201 361.527 181.65L363.289 180.703C363.206 180.549 363.165 180.388 363.165 180.205H361.165ZM361.531 181.656C361.774 182.1 362.111 182.467 362.536 182.743L363.626 181.066C363.483 180.973 363.372 180.854 363.285 180.696L361.531 181.656ZM362.54 182.746C362.999 183.041 363.515 183.182 364.057 183.182V181.182C363.872 181.182 363.737 181.138 363.622 181.064L362.54 182.746Z" fill="#E4C417"/>
<path d="M413.833 171V165" stroke="#E4C417"/>
<path d="M411.582 183L415.485 175.278V175.21H410.985V174.273H416.576V175.261L412.69 183H411.582Z" fill="#E4C417"/>
<path d="M411.582 183L410.689 182.549L409.956 184H411.582V183ZM415.485 175.278L416.378 175.73L416.485 175.517V175.278H415.485ZM415.485 175.21H416.485V174.21H415.485V175.21ZM410.985 175.21H409.985V176.21H410.985V175.21ZM410.985 174.273V173.273H409.985V174.273H410.985ZM416.576 174.273H417.576V173.273H416.576V174.273ZM416.576 175.261L417.47 175.71L417.576 175.498V175.261H416.576ZM412.69 183V184H413.306L413.583 183.449L412.69 183ZM412.474 183.451L416.378 175.73L414.593 174.827L410.689 182.549L412.474 183.451ZM416.485 175.278V175.21H414.485V175.278H416.485ZM415.485 174.21H410.985V176.21H415.485V174.21ZM411.985 175.21V174.273H409.985V175.21H411.985ZM410.985 175.273H416.576V173.273H410.985V175.273ZM415.576 174.273V175.261H417.576V174.273H415.576ZM415.682 174.813L411.796 182.551L413.583 183.449L417.47 175.71L415.682 174.813ZM412.69 182H411.582V184H412.69V182Z" fill="#E4C417"/>
<path d="M463.667 171V165" stroke="#E4C417"/>
<path d="M463.668 183.119C463.083 183.119 462.566 183.016 462.117 182.808C461.671 182.598 461.323 182.31 461.073 181.943C460.823 181.574 460.7 181.153 460.702 180.682C460.7 180.312 460.772 179.972 460.92 179.659C461.067 179.344 461.269 179.081 461.525 178.871C461.783 178.658 462.072 178.523 462.39 178.466V178.415C461.972 178.307 461.64 178.072 461.393 177.712C461.146 177.348 461.023 176.935 461.026 176.472C461.023 176.028 461.136 175.632 461.363 175.283C461.59 174.933 461.903 174.658 462.3 174.456C462.701 174.254 463.157 174.153 463.668 174.153C464.174 174.153 464.626 174.254 465.023 174.456C465.421 174.658 465.734 174.933 465.961 175.283C466.191 175.632 466.308 176.028 466.31 176.472C466.308 176.935 466.181 177.348 465.931 177.712C465.684 178.072 465.356 178.307 464.947 178.415V178.466C465.262 178.523 465.546 178.658 465.799 178.871C466.052 179.081 466.254 179.344 466.404 179.659C466.555 179.972 466.631 180.312 466.634 180.682C466.631 181.153 466.504 181.574 466.251 181.943C466.001 182.31 465.653 182.598 465.207 182.808C464.764 183.016 464.251 183.119 463.668 183.119ZM463.668 182.182C464.063 182.182 464.404 182.118 464.691 181.99C464.978 181.862 465.2 181.682 465.356 181.449C465.512 181.216 465.592 180.943 465.594 180.631C465.592 180.301 465.506 180.01 465.339 179.757C465.171 179.504 464.942 179.305 464.653 179.161C464.366 179.016 464.038 178.943 463.668 178.943C463.296 178.943 462.964 179.016 462.671 179.161C462.381 179.305 462.153 179.504 461.985 179.757C461.82 180.01 461.739 180.301 461.742 180.631C461.739 180.943 461.815 181.216 461.968 181.449C462.124 181.682 462.347 181.862 462.637 181.99C462.927 182.118 463.271 182.182 463.668 182.182ZM463.668 178.04C463.981 178.04 464.258 177.977 464.499 177.852C464.744 177.727 464.935 177.553 465.075 177.328C465.214 177.104 465.285 176.841 465.288 176.54C465.285 176.244 465.215 175.987 465.079 175.768C464.942 175.547 464.754 175.376 464.512 175.257C464.271 175.135 463.989 175.074 463.668 175.074C463.342 175.074 463.056 175.135 462.812 175.257C462.567 175.376 462.379 175.547 462.245 175.768C462.112 175.987 462.046 176.244 462.049 176.54C462.046 176.841 462.113 177.104 462.249 177.328C462.389 177.553 462.58 177.727 462.825 177.852C463.069 177.977 463.35 178.04 463.668 178.04Z" fill="#E4C417"/>
<path d="M462.117 182.808L461.691 183.713L461.698 183.716L462.117 182.808ZM461.073 181.943L460.245 182.504L460.247 182.507L461.073 181.943ZM460.702 180.682L461.703 180.688L461.702 180.674L460.702 180.682ZM460.92 179.659L461.824 180.086L461.825 180.083L460.92 179.659ZM461.525 178.871L462.16 179.643L462.161 179.642L461.525 178.871ZM462.39 178.466L462.566 179.45L463.39 179.303V178.466H462.39ZM462.39 178.415H463.39V177.64L462.64 177.447L462.39 178.415ZM461.393 177.712L460.566 178.274L460.568 178.277L461.393 177.712ZM461.026 176.472L462.026 176.478L462.026 176.465L461.026 176.472ZM461.363 175.283L462.201 175.828L462.201 175.828L461.363 175.283ZM462.3 174.456L461.851 173.563L461.848 173.564L462.3 174.456ZM465.961 175.283L465.123 175.828L465.126 175.833L465.961 175.283ZM466.31 176.472L467.31 176.478L467.31 176.465L466.31 176.472ZM465.931 177.712L465.107 177.145L465.106 177.146L465.931 177.712ZM464.947 178.415L464.692 177.448L463.947 177.644V178.415H464.947ZM464.947 178.466H463.947V179.302L464.769 179.45L464.947 178.466ZM465.799 178.871L465.155 179.635L465.16 179.64L465.799 178.871ZM466.404 179.659L465.502 180.09L465.503 180.093L466.404 179.659ZM466.634 180.682L467.634 180.688L467.634 180.674L466.634 180.682ZM466.251 181.943L465.426 181.378L465.425 181.38L466.251 181.943ZM465.207 182.808L465.631 183.714L465.633 183.713L465.207 182.808ZM464.691 181.99L464.284 181.077L464.284 181.077L464.691 181.99ZM465.356 181.449L464.525 180.892L464.525 180.892L465.356 181.449ZM465.594 180.631L466.594 180.64L466.595 180.631L466.594 180.622L465.594 180.631ZM465.339 179.757L464.505 180.31L464.505 180.31L465.339 179.757ZM464.653 179.161L464.202 180.053L464.206 180.055L464.653 179.161ZM462.671 179.161L462.227 178.264L462.224 178.266L462.671 179.161ZM461.985 179.757L461.152 179.205L461.147 179.211L461.985 179.757ZM461.742 180.631L462.742 180.64L462.742 180.631L462.742 180.622L461.742 180.631ZM461.968 181.449L461.133 181.999L461.138 182.006L461.968 181.449ZM462.637 181.99L463.041 181.075L463.041 181.075L462.637 181.99ZM464.499 177.852L464.044 176.962L464.04 176.964L464.499 177.852ZM465.075 177.328L465.924 177.855L465.924 177.855L465.075 177.328ZM465.288 176.54L466.288 176.549L466.288 176.54L466.288 176.53L465.288 176.54ZM465.079 175.768L464.227 176.293L464.23 176.297L465.079 175.768ZM464.512 175.257L464.061 176.149L464.069 176.154L464.512 175.257ZM462.812 175.257L463.251 176.156L463.259 176.152L462.812 175.257ZM462.245 175.768L463.099 176.289L463.102 176.285L462.245 175.768ZM462.049 176.54L463.049 176.549L463.049 176.54L463.049 176.53L462.049 176.54ZM462.249 177.328L461.395 177.847L461.4 177.855L462.249 177.328ZM463.668 182.119C463.202 182.119 462.832 182.037 462.537 181.9L461.698 183.716C462.3 183.994 462.965 184.119 463.668 184.119V182.119ZM462.544 181.904C462.24 181.761 462.038 181.583 461.899 181.38L460.247 182.507C460.608 183.036 461.102 183.435 461.691 183.713L462.544 181.904ZM461.901 181.383C461.771 181.19 461.701 180.97 461.702 180.688L459.702 180.676C459.698 181.337 459.875 181.957 460.245 182.504L461.901 181.383ZM461.702 180.674C461.701 180.445 461.745 180.254 461.824 180.086L460.016 179.232C459.799 179.689 459.699 180.18 459.702 180.69L461.702 180.674ZM461.825 180.083C461.913 179.896 462.025 179.754 462.16 179.643L460.89 178.098C460.513 178.408 460.222 178.792 460.014 179.235L461.825 180.083ZM462.161 179.642C462.292 179.534 462.423 179.476 462.566 179.45L462.214 177.481C461.721 177.57 461.275 177.781 460.889 178.099L462.161 179.642ZM463.39 178.466V178.415H461.39V178.466H463.39ZM462.64 177.447C462.46 177.4 462.33 177.311 462.218 177.146L460.568 178.277C460.949 178.834 461.485 179.214 462.14 179.383L462.64 177.447ZM462.22 177.15C462.093 176.963 462.025 176.75 462.026 176.478L460.026 176.465C460.022 177.12 460.198 177.733 460.566 178.274L462.22 177.15ZM462.026 176.465C462.025 176.205 462.088 176.003 462.201 175.828L460.525 174.737C460.184 175.262 460.022 175.852 460.026 176.478L462.026 176.465ZM462.201 175.828C462.326 175.636 462.501 175.476 462.753 175.348L461.848 173.564C461.305 173.84 460.855 174.23 460.525 174.737L462.201 175.828ZM462.75 175.349C462.993 175.227 463.291 175.153 463.668 175.153V173.153C463.023 173.153 462.409 173.282 461.851 173.563L462.75 175.349ZM463.668 175.153C464.038 175.153 464.331 175.226 464.571 175.348L465.476 173.564C464.92 173.282 464.31 173.153 463.668 173.153V175.153ZM464.571 175.348C464.823 175.476 464.998 175.636 465.123 175.828L466.799 174.737C466.469 174.23 466.019 173.84 465.476 173.564L464.571 175.348ZM465.126 175.833C465.243 176.011 465.309 176.216 465.31 176.478L467.31 176.465C467.306 175.841 467.139 175.253 466.796 174.733L465.126 175.833ZM465.31 176.465C465.309 176.739 465.238 176.955 465.107 177.145L466.755 178.278C467.124 177.741 467.306 177.131 467.31 176.478L465.31 176.465ZM465.106 177.146C464.99 177.317 464.86 177.403 464.692 177.448L465.202 179.382C465.851 179.21 466.378 178.828 466.756 178.277L465.106 177.146ZM463.947 178.415V178.466H465.947V178.415H463.947ZM464.769 179.45C464.907 179.475 465.031 179.531 465.155 179.635L466.443 178.106C466.061 177.784 465.617 177.571 465.124 177.482L464.769 179.45ZM465.16 179.64C465.295 179.752 465.409 179.897 465.502 180.09L467.307 179.228C467.098 178.791 466.809 178.41 466.438 178.102L465.16 179.64ZM465.503 180.093C465.586 180.264 465.633 180.458 465.634 180.69L467.634 180.674C467.63 180.167 467.524 179.679 467.305 179.225L465.503 180.093ZM465.634 180.676C465.633 180.959 465.559 181.183 465.426 181.378L467.076 182.508C467.448 181.965 467.63 181.348 467.634 180.688L465.634 180.676ZM465.425 181.38C465.286 181.583 465.084 181.761 464.78 181.904L465.633 183.713C466.222 183.435 466.715 183.036 467.077 182.507L465.425 181.38ZM464.783 181.903C464.495 182.037 464.132 182.119 463.668 182.119V184.119C464.37 184.119 465.032 183.994 465.631 183.714L464.783 181.903ZM463.668 183.182C464.169 183.182 464.655 183.101 465.098 182.903L464.284 181.077C464.154 181.135 463.958 181.182 463.668 181.182V183.182ZM465.098 182.903C465.536 182.709 465.913 182.413 466.186 182.006L464.525 180.892C464.486 180.95 464.42 181.016 464.284 181.077L465.098 182.903ZM466.186 182.006C466.464 181.593 466.59 181.124 466.594 180.64L464.595 180.622C464.593 180.762 464.561 180.839 464.525 180.892L466.186 182.006ZM466.594 180.622C466.59 180.116 466.456 179.633 466.172 179.205L464.505 180.31C464.557 180.387 464.593 180.486 464.595 180.639L466.594 180.622ZM466.172 179.205C465.901 178.796 465.535 178.484 465.1 178.266L464.206 180.055C464.35 180.127 464.441 180.213 464.505 180.31L466.172 179.205ZM465.103 178.268C464.657 178.043 464.171 177.943 463.668 177.943V179.943C463.904 179.943 464.074 179.989 464.202 180.053L465.103 178.268ZM463.668 177.943C463.164 177.943 462.676 178.042 462.227 178.264L463.115 180.057C463.251 179.989 463.429 179.943 463.668 179.943V177.943ZM462.224 178.266C461.789 178.484 461.422 178.796 461.152 179.205L462.819 180.31C462.883 180.213 462.974 180.127 463.118 180.055L462.224 178.266ZM461.147 179.211C460.865 179.644 460.738 180.132 460.742 180.639L462.742 180.622C462.741 180.47 462.775 180.376 462.823 180.303L461.147 179.211ZM460.742 180.622C460.738 181.108 460.857 181.58 461.133 181.999L462.803 180.899C462.772 180.851 462.741 180.778 462.742 180.64L460.742 180.622ZM461.138 182.006C461.413 182.416 461.793 182.711 462.233 182.905L463.041 181.075C462.901 181.014 462.836 180.948 462.799 180.892L461.138 182.006ZM462.233 182.905C462.678 183.101 463.166 183.182 463.668 183.182V181.182C463.375 181.182 463.175 181.134 463.041 181.075L462.233 182.905ZM463.668 179.04C464.117 179.04 464.556 178.949 464.959 178.74L464.04 176.964C463.96 177.005 463.845 177.04 463.668 177.04V179.04ZM464.955 178.743C465.355 178.538 465.685 178.241 465.924 177.855L464.225 176.801C464.185 176.865 464.133 176.917 464.044 176.962L464.955 178.743ZM465.924 177.855C466.173 177.454 466.283 177.007 466.288 176.549L464.288 176.53C464.286 176.675 464.255 176.753 464.225 176.801L465.924 177.855ZM466.288 176.53C466.283 176.078 466.175 175.636 465.927 175.239L464.23 176.297C464.256 176.339 464.286 176.41 464.288 176.549L466.288 176.53ZM465.931 175.244C465.692 174.857 465.359 174.56 464.955 174.361L464.069 176.154C464.148 176.193 464.193 176.237 464.227 176.293L465.931 175.244ZM464.964 174.365C464.558 174.16 464.117 174.074 463.668 174.074V176.074C463.862 176.074 463.983 176.11 464.061 176.149L464.964 174.365ZM463.668 174.074C463.217 174.074 462.772 174.159 462.365 174.363L463.259 176.152C463.34 176.111 463.467 176.074 463.668 176.074V174.074ZM462.373 174.359C461.965 174.558 461.627 174.857 461.389 175.252L463.102 176.285C463.13 176.237 463.17 176.195 463.251 176.156L462.373 174.359ZM461.391 175.247C461.146 175.649 461.045 176.096 461.049 176.549L463.049 176.53C463.048 176.393 463.077 176.325 463.099 176.289L461.391 175.247ZM461.049 176.53C461.045 176.99 461.148 177.441 461.395 177.847L463.104 176.809C463.078 176.766 463.048 176.692 463.049 176.549L461.049 176.53ZM461.4 177.855C461.639 178.241 461.969 178.538 462.369 178.743L463.28 176.962C463.191 176.917 463.139 176.865 463.099 176.801L461.4 177.855ZM462.369 178.743C462.775 178.95 463.217 179.04 463.668 179.04V177.04C463.483 177.04 463.362 177.004 463.28 176.962L462.369 178.743Z" fill="#E4C417"/>
<path d="M513.5 171V165" stroke="#E4C417"/>
<path d="M513.438 174.153C513.796 174.156 514.154 174.224 514.512 174.358C514.869 174.491 515.196 174.713 515.492 175.023C515.787 175.33 516.024 175.749 516.203 176.28C516.382 176.811 516.472 177.477 516.472 178.278C516.472 179.054 516.398 179.743 516.25 180.345C516.105 180.945 515.895 181.45 515.619 181.862C515.347 182.274 515.014 182.587 514.622 182.8C514.233 183.013 513.793 183.119 513.301 183.119C512.813 183.119 512.377 183.023 511.993 182.83C511.612 182.634 511.3 182.362 511.056 182.016C510.814 181.666 510.659 181.261 510.591 180.801H511.631C511.725 181.202 511.911 181.533 512.189 181.794C512.47 182.053 512.841 182.182 513.301 182.182C513.975 182.182 514.506 181.888 514.895 181.3C515.287 180.712 515.483 179.881 515.483 178.807H515.415C515.256 179.045 515.067 179.251 514.848 179.425C514.629 179.598 514.387 179.732 514.119 179.825C513.852 179.919 513.568 179.966 513.267 179.966C512.767 179.966 512.308 179.842 511.891 179.595C511.476 179.345 511.144 179.003 510.894 178.568C510.646 178.131 510.523 177.631 510.523 177.068C510.523 176.534 510.642 176.045 510.881 175.602C511.122 175.156 511.46 174.801 511.895 174.537C512.333 174.273 512.847 174.145 513.438 174.153ZM513.438 175.091C513.08 175.091 512.757 175.18 512.47 175.359C512.186 175.536 511.96 175.774 511.793 176.075C511.628 176.374 511.546 176.705 511.546 177.068C511.546 177.432 511.625 177.763 511.784 178.061C511.946 178.357 512.166 178.592 512.445 178.768C512.726 178.942 513.046 179.028 513.404 179.028C513.673 179.028 513.925 178.976 514.158 178.871C514.391 178.763 514.594 178.616 514.767 178.432C514.943 178.244 515.081 178.033 515.181 177.797C515.28 177.558 515.33 177.31 515.33 177.051C515.33 176.71 515.247 176.391 515.083 176.092C514.921 175.794 514.696 175.553 514.409 175.368C514.125 175.183 513.801 175.091 513.438 175.091Z" fill="#E4C417"/>
<path d="M513.438 174.153L513.423 175.153L513.43 175.153L513.438 174.153ZM514.512 174.358L514.861 173.421L514.861 173.421L514.512 174.358ZM515.492 175.023L514.768 175.713L514.771 175.716L515.492 175.023ZM516.203 176.28L515.256 176.599L515.256 176.599L516.203 176.28ZM516.25 180.345L515.279 180.107L515.278 180.11L516.25 180.345ZM515.619 181.862L514.788 181.306L514.786 181.31L515.619 181.862ZM514.622 182.8L514.145 181.921L514.142 181.923L514.622 182.8ZM511.993 182.83L511.535 183.719L511.543 183.723L511.993 182.83ZM511.056 182.016L510.233 182.584L510.238 182.592L511.056 182.016ZM510.591 180.801V179.801H509.432L509.602 180.948L510.591 180.801ZM511.631 180.801L512.605 180.573L512.424 179.801H511.631V180.801ZM512.189 181.794L511.505 182.523L511.512 182.53L512.189 181.794ZM514.895 181.3L514.063 180.745L514.061 180.748L514.895 181.3ZM515.483 178.807H516.483V177.807H515.483V178.807ZM515.415 178.807V177.807H514.88L514.583 178.252L515.415 178.807ZM511.891 179.595L511.375 180.452L511.381 180.456L511.891 179.595ZM510.894 178.568L510.023 179.06L510.027 179.067L510.894 178.568ZM510.881 175.602L510.001 175.126L510 175.128L510.881 175.602ZM511.895 174.537L511.378 173.681L511.376 173.682L511.895 174.537ZM512.47 175.359L512.997 176.209L513 176.208L512.47 175.359ZM511.793 176.075L510.919 175.589L510.917 175.592L511.793 176.075ZM511.784 178.061L510.902 178.532L510.907 178.542L511.784 178.061ZM512.445 178.768L511.91 179.614L511.92 179.62L512.445 178.768ZM514.158 178.871L514.569 179.782L514.578 179.778L514.158 178.871ZM514.767 178.432L514.038 177.747L514.038 177.748L514.767 178.432ZM515.181 177.797L516.102 178.185L516.104 178.181L515.181 177.797ZM515.083 176.092L514.204 176.569L514.207 176.576L515.083 176.092ZM514.409 175.368L513.864 176.206L513.868 176.209L514.409 175.368ZM513.43 175.153C513.663 175.155 513.906 175.199 514.162 175.295L514.861 173.421C514.401 173.249 513.928 173.157 513.446 173.153L513.43 175.153ZM514.162 175.295C514.362 175.369 514.564 175.5 514.768 175.713L516.215 174.332C515.828 173.927 515.377 173.613 514.861 173.421L514.162 175.295ZM514.771 175.716C514.937 175.889 515.11 176.166 515.256 176.599L517.151 175.961C516.939 175.332 516.637 174.77 516.212 174.329L514.771 175.716ZM515.256 176.599C515.389 176.994 515.472 177.543 515.472 178.278H517.472C517.472 177.411 517.376 176.628 517.151 175.961L515.256 176.599ZM515.472 178.278C515.472 178.993 515.404 179.599 515.279 180.107L517.221 180.583C517.392 179.887 517.472 179.115 517.472 178.278H515.472ZM515.278 180.11C515.154 180.622 514.985 181.013 514.788 181.306L516.451 182.418C516.806 181.888 517.056 181.267 517.222 180.58L515.278 180.11ZM514.786 181.31C514.593 181.601 514.378 181.794 514.145 181.921L515.1 183.678C515.65 183.379 516.1 182.948 516.453 182.414L514.786 181.31ZM514.142 181.923C513.916 182.047 513.643 182.119 513.301 182.119V184.119C513.942 184.119 514.551 183.979 515.103 183.677L514.142 181.923ZM513.301 182.119C512.947 182.119 512.669 182.05 512.443 181.936L511.543 183.723C512.084 183.995 512.678 184.119 513.301 184.119V182.119ZM512.451 181.94C512.212 181.818 512.023 181.653 511.873 181.439L510.238 182.592C510.576 183.071 511.013 183.45 511.535 183.719L512.451 181.94ZM511.878 181.447C511.732 181.235 511.628 180.978 511.58 180.655L509.602 180.948C509.69 181.545 509.896 182.097 510.233 182.584L511.878 181.447ZM510.591 181.801H511.631V179.801H510.591V181.801ZM510.657 181.029C510.792 181.606 511.071 182.116 511.505 182.523L512.874 181.065C512.75 180.949 512.657 180.797 512.605 180.573L510.657 181.029ZM511.512 182.53C512.015 182.992 512.645 183.182 513.301 183.182V181.182C513.038 181.182 512.926 181.113 512.866 181.058L511.512 182.53ZM513.301 183.182C514.329 183.182 515.165 182.704 515.729 181.852L514.061 180.748C513.847 181.072 513.62 181.182 513.301 181.182V183.182ZM515.727 181.854C516.272 181.037 516.483 179.982 516.483 178.807H514.483C514.483 179.779 514.302 180.386 514.063 180.745L515.727 181.854ZM515.483 177.807H515.415V179.807H515.483V177.807ZM514.583 178.252C514.48 178.406 514.362 178.534 514.227 178.641L515.469 180.209C515.772 179.969 516.032 179.685 516.247 179.362L514.583 178.252ZM514.227 178.641C514.097 178.744 513.952 178.824 513.788 178.882L514.451 180.769C514.821 180.639 515.162 180.452 515.469 180.209L514.227 178.641ZM513.788 178.882C513.634 178.936 513.463 178.966 513.267 178.966V180.966C513.674 180.966 514.071 180.902 514.451 180.769L513.788 178.882ZM513.267 178.966C512.941 178.966 512.659 178.888 512.4 178.735L511.381 180.456C511.958 180.797 512.594 180.966 513.267 180.966V178.966ZM512.407 178.739C512.143 178.579 511.929 178.363 511.76 178.07L510.027 179.067C510.358 179.643 510.809 180.111 511.375 180.452L512.407 178.739ZM511.764 178.076C511.612 177.806 511.523 177.479 511.523 177.068H509.523C509.523 177.782 509.681 178.455 510.023 179.06L511.764 178.076ZM511.523 177.068C511.523 176.689 511.606 176.365 511.761 176.076L510 175.128C509.678 175.726 509.523 176.379 509.523 177.068H511.523ZM511.76 176.078C511.917 175.789 512.131 175.564 512.414 175.391L511.376 173.682C510.79 174.038 510.328 174.524 510.001 175.126L511.76 176.078ZM512.412 175.393C512.666 175.24 512.99 175.147 513.423 175.153L513.452 173.154C512.704 173.143 512 173.306 511.378 173.681L512.412 175.393ZM513.438 174.091C512.904 174.091 512.396 174.227 511.941 174.511L513 176.208C513.118 176.134 513.255 176.091 513.438 176.091V174.091ZM511.943 174.509C511.51 174.778 511.167 175.144 510.919 175.589L512.667 176.562C512.754 176.404 512.862 176.293 512.997 176.209L511.943 174.509ZM510.917 175.592C510.665 176.048 510.546 176.547 510.546 177.068H512.546C512.546 176.862 512.591 176.699 512.668 176.559L510.917 175.592ZM510.546 177.068C510.546 177.583 510.66 178.078 510.902 178.532L512.667 177.59C512.591 177.448 512.546 177.28 512.546 177.068H510.546ZM510.907 178.542C511.149 178.982 511.485 179.345 511.91 179.614L512.979 177.923C512.847 177.84 512.744 177.731 512.661 177.58L510.907 178.542ZM511.92 179.62C512.372 179.898 512.876 180.028 513.404 180.028V178.028C513.215 178.028 513.08 177.985 512.969 177.917L511.92 179.62ZM513.404 180.028C513.807 180.028 514.2 179.949 514.569 179.782L513.747 177.959C513.65 178.003 513.54 178.028 513.404 178.028V180.028ZM514.578 179.778C514.926 179.617 515.234 179.396 515.496 179.116L514.038 177.748C513.954 177.837 513.856 177.909 513.737 177.963L514.578 179.778ZM515.496 179.116C515.753 178.843 515.956 178.531 516.102 178.185L514.259 177.408C514.206 177.534 514.134 177.646 514.038 177.747L515.496 179.116ZM516.104 178.181C516.254 177.821 516.33 177.442 516.33 177.051H514.33C514.33 177.178 514.306 177.295 514.257 177.412L516.104 178.181ZM516.33 177.051C516.33 176.541 516.204 176.055 515.958 175.609L514.207 176.576C514.29 176.726 514.33 176.879 514.33 177.051H516.33ZM515.961 175.615C515.719 175.168 515.378 174.802 514.95 174.527L513.868 176.209C514.014 176.303 514.122 176.42 514.204 176.569L515.961 175.615ZM514.954 174.529C514.496 174.232 513.98 174.091 513.438 174.091V176.091C513.623 176.091 513.754 176.135 513.864 176.206L514.954 174.529Z" fill="#E4C417"/>
<path d="M563.333 171V165" stroke="#E4C417"/>
<path d="M560.766 174.273V183H559.709V175.381H559.658L557.527 176.795V175.722L559.709 174.273H560.766ZM566.122 183.119C565.48 183.119 564.933 182.945 564.482 182.595C564.03 182.243 563.685 181.733 563.446 181.065C563.208 180.395 563.088 179.585 563.088 178.636C563.088 177.693 563.208 176.888 563.446 176.22C563.688 175.55 564.034 175.038 564.486 174.686C564.94 174.331 565.486 174.153 566.122 174.153C566.759 174.153 567.303 174.331 567.754 174.686C568.209 175.038 568.556 175.55 568.794 176.22C569.036 176.888 569.156 177.693 569.156 178.636C569.156 179.585 569.037 180.395 568.798 181.065C568.56 181.733 568.215 182.243 567.763 182.595C567.311 182.945 566.764 183.119 566.122 183.119ZM566.122 182.182C566.759 182.182 567.253 181.875 567.605 181.261C567.958 180.648 568.134 179.773 568.134 178.636C568.134 177.881 568.053 177.237 567.891 176.706C567.732 176.175 567.502 175.77 567.2 175.491C566.902 175.213 566.543 175.074 566.122 175.074C565.492 175.074 564.999 175.385 564.644 176.007C564.289 176.626 564.111 177.503 564.111 178.636C564.111 179.392 564.19 180.034 564.35 180.562C564.509 181.091 564.737 181.493 565.036 181.768C565.337 182.044 565.699 182.182 566.122 182.182Z" fill="#E4C417"/>
<path d="M560.766 174.273H561.766V173.273H560.766V174.273ZM560.766 183V184H561.766V183H560.766ZM559.709 183H558.709V184H559.709V183ZM559.709 175.381H560.709V174.381H559.709V175.381ZM559.658 175.381V174.381H559.356L559.105 174.548L559.658 175.381ZM557.527 176.795H556.527V178.66L558.08 177.629L557.527 176.795ZM557.527 175.722L556.974 174.889L556.527 175.185V175.722H557.527ZM559.709 174.273V173.273H559.407L559.156 173.44L559.709 174.273ZM559.766 174.273V183H561.766V174.273H559.766ZM560.766 182H559.709V184H560.766V182ZM560.709 183V175.381H558.709V183H560.709ZM559.709 174.381H559.658V176.381H559.709V174.381ZM559.105 174.548L556.974 175.962L558.08 177.629L560.211 176.214L559.105 174.548ZM558.527 176.795V175.722H556.527V176.795H558.527ZM558.08 176.555L560.262 175.106L559.156 173.44L556.974 174.889L558.08 176.555ZM559.709 175.273H560.766V173.273H559.709V175.273ZM564.482 182.595L563.867 183.384L563.87 183.386L564.482 182.595ZM563.446 181.065L562.504 181.401L562.505 181.402L563.446 181.065ZM563.446 176.22L562.505 175.881L562.505 175.884L563.446 176.22ZM564.486 174.686L565.101 175.475L565.102 175.474L564.486 174.686ZM567.754 174.686L567.136 175.472L567.142 175.476L567.754 174.686ZM568.794 176.22L567.852 176.555L567.854 176.56L568.794 176.22ZM568.798 181.065L569.74 181.402L569.741 181.401L568.798 181.065ZM567.763 182.595L568.375 183.386L568.378 183.384L567.763 182.595ZM567.605 181.261L566.738 180.763L566.738 180.763L567.605 181.261ZM567.891 176.706L566.933 176.993L566.934 176.998L567.891 176.706ZM567.2 175.491L566.518 176.223L566.522 176.226L567.2 175.491ZM564.644 176.007L565.511 176.505L565.512 176.503L564.644 176.007ZM564.35 180.562L563.392 180.851L563.392 180.851L564.35 180.562ZM565.036 181.768L564.357 182.503L564.361 182.506L565.036 181.768ZM566.122 182.119C565.673 182.119 565.348 182.001 565.094 181.804L563.87 183.386C564.518 183.888 565.288 184.119 566.122 184.119V182.119ZM565.097 181.807C564.826 181.596 564.578 181.26 564.388 180.729L562.505 181.402C562.792 182.206 563.234 182.89 563.867 183.384L565.097 181.807ZM564.388 180.73C564.198 180.196 564.088 179.507 564.088 178.636H562.088C562.088 179.664 562.217 180.593 562.504 181.401L564.388 180.73ZM564.088 178.636C564.088 177.772 564.198 177.087 564.388 176.557L562.505 175.884C562.217 176.688 562.088 177.614 562.088 178.636H564.088ZM564.387 176.559C564.58 176.023 564.831 175.685 565.101 175.475L563.871 173.898C563.238 174.391 562.795 175.076 562.505 175.881L564.387 176.559ZM565.102 175.474C565.362 175.271 565.685 175.153 566.122 175.153V173.153C565.287 173.153 564.519 173.391 563.87 173.898L565.102 175.474ZM566.122 175.153C566.56 175.153 566.88 175.271 567.136 175.472L568.372 173.9C567.725 173.391 566.957 173.153 566.122 173.153V175.153ZM567.142 175.476C567.413 175.687 567.662 176.022 567.852 176.555L569.736 175.885C569.449 175.077 569.005 174.39 568.367 173.896L567.142 175.476ZM567.854 176.56C568.045 177.09 568.156 177.773 568.156 178.636H570.156C570.156 177.613 570.026 176.686 569.735 175.88L567.854 176.56ZM568.156 178.636C568.156 179.507 568.046 180.196 567.856 180.73L569.741 181.401C570.028 180.593 570.156 179.664 570.156 178.636H568.156ZM567.857 180.729C567.667 181.26 567.418 181.596 567.148 181.807L568.378 183.384C569.011 182.89 569.453 182.206 569.74 181.402L567.857 180.729ZM567.151 181.804C566.896 182.001 566.572 182.119 566.122 182.119V184.119C566.957 184.119 567.726 183.888 568.375 183.386L567.151 181.804ZM566.122 183.182C567.163 183.182 567.966 182.641 568.473 181.759L566.738 180.763C566.54 181.109 566.355 181.182 566.122 181.182V183.182ZM568.473 181.759C568.949 180.929 569.134 179.852 569.134 178.636H567.134C567.134 179.693 566.966 180.367 566.738 180.763L568.473 181.759ZM569.134 178.636C569.134 177.815 569.046 177.067 568.847 176.414L566.934 176.998C567.059 177.407 567.134 177.946 567.134 178.636H569.134ZM568.849 176.419C568.656 175.775 568.35 175.193 567.879 174.757L566.522 176.226C566.653 176.347 566.808 176.575 566.933 176.993L568.849 176.419ZM567.883 174.76C567.393 174.303 566.788 174.074 566.122 174.074V176.074C566.298 176.074 566.411 176.123 566.518 176.223L567.883 174.76ZM566.122 174.074C565.077 174.074 564.279 174.628 563.775 175.511L565.512 176.503C565.718 176.141 565.906 176.074 566.122 176.074V174.074ZM563.776 175.51C563.297 176.344 563.111 177.421 563.111 178.636H565.111C565.111 177.585 565.28 176.908 565.511 176.505L563.776 175.51ZM563.111 178.636C563.111 179.456 563.197 180.202 563.392 180.851L565.307 180.274C565.184 179.867 565.111 179.328 565.111 178.636H563.111ZM563.392 180.851C563.585 181.491 563.889 182.07 564.357 182.503L565.714 181.034C565.586 180.915 565.433 180.691 565.307 180.274L563.392 180.851ZM564.361 182.506C564.853 182.957 565.459 183.182 566.122 183.182V181.182C565.939 181.182 565.82 181.131 565.711 181.031L564.361 182.506Z" fill="#E4C417"/>
<path d="M613.167 171V165" stroke="#E4C417"/>
<path d="M611.56 174.273V183H610.503V175.381H610.452L608.322 176.795V175.722L610.503 174.273H611.56ZM617.138 174.273V183H616.082V175.381H616.03L613.9 176.795V175.722L616.082 174.273H617.138Z" fill="#E4C417"/>
<path d="M611.56 174.273H612.56V173.273H611.56V174.273ZM611.56 183V184H612.56V183H611.56ZM610.503 183H609.503V184H610.503V183ZM610.503 175.381H611.503V174.381H610.503V175.381ZM610.452 175.381V174.381H610.15L609.899 174.548L610.452 175.381ZM608.322 176.795H607.322V178.66L608.875 177.629L608.322 176.795ZM608.322 175.722L607.768 174.889L607.322 175.185V175.722H608.322ZM610.503 174.273V173.273H610.202L609.95 173.44L610.503 174.273ZM610.56 174.273V183H612.56V174.273H610.56ZM611.56 182H610.503V184H611.56V182ZM611.503 183V175.381H609.503V183H611.503ZM610.503 174.381H610.452V176.381H610.503V174.381ZM609.899 174.548L607.768 175.962L608.875 177.629L611.005 176.214L609.899 174.548ZM609.322 176.795V175.722H607.322V176.795H609.322ZM608.875 176.555L611.057 175.106L609.95 173.44L607.768 174.889L608.875 176.555ZM610.503 175.273H611.56V173.273H610.503V175.273ZM617.138 174.273H618.138V173.273H617.138V174.273ZM617.138 183V184H618.138V183H617.138ZM616.082 183H615.082V184H616.082V183ZM616.082 175.381H617.082V174.381H616.082V175.381ZM616.03 175.381V174.381H615.729L615.477 174.548L616.03 175.381ZM613.9 176.795H612.9V178.66L614.453 177.629L613.9 176.795ZM613.9 175.722L613.347 174.889L612.9 175.185V175.722H613.9ZM616.082 174.273V173.273H615.78L615.528 173.44L616.082 174.273ZM616.138 174.273V183H618.138V174.273H616.138ZM617.138 182H616.082V184H617.138V182ZM617.082 183V175.381H615.082V183H617.082ZM616.082 174.381H616.03V176.381H616.082V174.381ZM615.477 174.548L613.347 175.962L614.453 177.629L616.584 176.214L615.477 174.548ZM614.9 176.795V175.722H612.9V176.795H614.9ZM614.453 176.555L616.635 175.106L615.528 173.44L613.347 174.889L614.453 176.555ZM616.082 175.273H617.138V173.273H616.082V175.273Z" fill="#E4C417"/>
<path d="M663 171V165" stroke="#E4C417"/>
<path d="M657.55 174.273V183H656.493V175.381H656.442L654.311 176.795V175.722L656.493 174.273H657.55ZM660.06 183V182.233L662.94 179.08C663.278 178.71 663.557 178.389 663.776 178.116C663.994 177.841 664.156 177.582 664.261 177.341C664.369 177.097 664.423 176.841 664.423 176.574C664.423 176.267 664.349 176.001 664.202 175.777C664.057 175.553 663.858 175.379 663.605 175.257C663.352 175.135 663.068 175.074 662.753 175.074C662.418 175.074 662.125 175.143 661.875 175.283C661.628 175.419 661.436 175.611 661.3 175.858C661.166 176.105 661.099 176.395 661.099 176.727H660.094C660.094 176.216 660.212 175.767 660.447 175.381C660.683 174.994 661.004 174.693 661.411 174.477C661.82 174.261 662.278 174.153 662.787 174.153C663.298 174.153 663.751 174.261 664.146 174.477C664.541 174.693 664.851 174.984 665.075 175.351C665.3 175.717 665.412 176.125 665.412 176.574C665.412 176.895 665.354 177.209 665.237 177.516C665.124 177.82 664.925 178.159 664.641 178.534C664.359 178.906 663.969 179.361 663.469 179.898L661.509 181.994V182.062H665.565V183H660.06Z" fill="#E4C417"/>
<path d="M657.55 174.273H658.55V173.273H657.55V174.273ZM657.55 183V184H658.55V183H657.55ZM656.493 183H655.493V184H656.493V183ZM656.493 175.381H657.493V174.381H656.493V175.381ZM656.442 175.381V174.381H656.14L655.889 174.548L656.442 175.381ZM654.311 176.795H653.311V178.66L654.864 177.629L654.311 176.795ZM654.311 175.722L653.758 174.889L653.311 175.185V175.722H654.311ZM656.493 174.273V173.273H656.191L655.94 173.44L656.493 174.273ZM656.55 174.273V183H658.55V174.273H656.55ZM657.55 182H656.493V184H657.55V182ZM657.493 183V175.381H655.493V183H657.493ZM656.493 174.381H656.442V176.381H656.493V174.381ZM655.889 174.548L653.758 175.962L654.864 177.629L656.995 176.214L655.889 174.548ZM655.311 176.795V175.722H653.311V176.795H655.311ZM654.864 176.555L657.046 175.106L655.94 173.44L653.758 174.889L654.864 176.555ZM656.493 175.273H657.55V173.273H656.493V175.273ZM660.06 183H659.06V184H660.06V183ZM660.06 182.233L659.321 181.558L659.06 181.845V182.233H660.06ZM662.94 179.08L662.203 178.404L662.202 178.405L662.94 179.08ZM663.776 178.116L664.556 178.742L664.559 178.738L663.776 178.116ZM664.261 177.341L663.347 176.937L663.344 176.942L664.261 177.341ZM664.202 175.777L663.362 176.319L663.366 176.327L664.202 175.777ZM663.605 175.257L664.04 174.357L664.04 174.357L663.605 175.257ZM661.875 175.283L662.358 176.158L662.361 176.156L661.875 175.283ZM661.3 175.858L660.424 175.375L660.42 175.383L661.3 175.858ZM661.099 176.727V177.727H662.099V176.727H661.099ZM660.094 176.727H659.094V177.727H660.094V176.727ZM660.447 175.381L661.301 175.902L661.301 175.902L660.447 175.381ZM661.411 174.477L660.944 173.593L660.941 173.594L661.411 174.477ZM664.146 174.477L664.626 173.6L664.626 173.6L664.146 174.477ZM665.237 177.516L664.302 177.161L664.301 177.165L665.237 177.516ZM664.641 178.534L663.844 177.93L663.843 177.931L664.641 178.534ZM663.469 179.898L664.199 180.581L664.201 180.579L663.469 179.898ZM661.509 181.994L660.778 181.311L660.509 181.6V181.994H661.509ZM661.509 182.062H660.509V183.062H661.509V182.062ZM665.565 182.062H666.565V181.062H665.565V182.062ZM665.565 183V184H666.565V183H665.565ZM661.06 183V182.233H659.06V183H661.06ZM660.798 182.907L663.679 179.754L662.202 178.405L659.321 181.558L660.798 182.907ZM663.678 179.755C664.025 179.376 664.319 179.037 664.556 178.742L662.995 177.491C662.795 177.741 662.532 178.045 662.203 178.404L663.678 179.755ZM664.559 178.738C664.815 178.416 665.029 178.083 665.178 177.74L663.344 176.942C663.283 177.082 663.174 177.266 662.992 177.495L664.559 178.738ZM665.176 177.745C665.34 177.373 665.423 176.98 665.423 176.574H663.423C663.423 176.702 663.398 176.82 663.347 176.937L665.176 177.745ZM665.423 176.574C665.423 176.1 665.307 175.637 665.037 175.227L663.366 176.327C663.392 176.366 663.423 176.434 663.423 176.574H665.423ZM665.042 175.235C664.792 174.848 664.449 174.554 664.04 174.357L663.17 176.158C663.266 176.204 663.321 176.257 663.362 176.319L665.042 175.235ZM664.04 174.357C663.636 174.161 663.2 174.074 662.753 174.074V176.074C662.936 176.074 663.069 176.109 663.17 176.158L664.04 174.357ZM662.753 174.074C662.277 174.074 661.811 174.174 661.389 174.409L662.361 176.156C662.439 176.113 662.559 176.074 662.753 176.074V174.074ZM661.392 174.407C660.98 174.635 660.652 174.962 660.424 175.375L662.175 176.341C662.22 176.259 662.276 176.203 662.358 176.158L661.392 174.407ZM660.42 175.383C660.194 175.8 660.099 176.259 660.099 176.727H662.099C662.099 176.53 662.138 176.41 662.18 176.333L660.42 175.383ZM661.099 175.727H660.094V177.727H661.099V175.727ZM661.094 176.727C661.094 176.375 661.173 176.111 661.301 175.902L659.594 174.86C659.25 175.423 659.094 176.057 659.094 176.727H661.094ZM661.301 175.902C661.442 175.671 661.629 175.494 661.88 175.36L660.941 173.594C660.379 173.893 659.925 174.318 659.594 174.86L661.301 175.902ZM661.877 175.362C662.129 175.229 662.425 175.153 662.787 175.153V173.153C662.132 173.153 661.511 173.294 660.944 173.593L661.877 175.362ZM662.787 175.153C663.154 175.153 663.438 175.23 663.667 175.355L664.626 173.6C664.065 173.293 663.443 173.153 662.787 173.153V175.153ZM663.667 175.355C663.916 175.491 664.094 175.663 664.222 175.873L665.928 174.829C665.608 174.306 665.167 173.895 664.626 173.6L663.667 175.355ZM664.222 175.873C664.346 176.075 664.412 176.301 664.412 176.574H666.412C666.412 175.949 666.253 175.359 665.928 174.829L664.222 175.873ZM664.412 176.574C664.412 176.771 664.377 176.965 664.302 177.161L666.172 177.871C666.331 177.453 666.412 177.019 666.412 176.574H664.412ZM664.301 177.165C664.232 177.348 664.093 177.601 663.844 177.93L665.438 179.138C665.757 178.717 666.015 178.291 666.174 177.866L664.301 177.165ZM663.843 177.931C663.59 178.265 663.225 178.692 662.737 179.216L664.201 180.579C664.712 180.03 665.128 179.547 665.438 179.137L663.843 177.931ZM662.738 179.215L660.778 181.311L662.239 182.677L664.199 180.581L662.738 179.215ZM660.509 181.994V182.062H662.509V181.994H660.509ZM661.509 183.062H665.565V181.062H661.509V183.062ZM664.565 182.062V183H666.565V182.062H664.565ZM665.565 182H660.06V184H665.565V182Z" fill="#E4C417"/>
<path d="M65 5V165" stroke="#E4C417"/>
<path d="M59 165H65" stroke="#E4C417"/>
<path d="M50.25 165.119C49.608 165.119 49.0611 164.945 48.6094 164.595C48.1577 164.243 47.8125 163.733 47.5739 163.065C47.3352 162.395 47.2159 161.585 47.2159 160.636C47.2159 159.693 47.3352 158.888 47.5739 158.22C47.8153 157.55 48.1619 157.038 48.6136 156.686C49.0682 156.331 49.6136 156.153 50.25 156.153C50.8864 156.153 51.4304 156.331 51.8821 156.686C52.3366 157.038 52.6832 157.55 52.9219 158.22C53.1634 158.888 53.2841 159.693 53.2841 160.636C53.2841 161.585 53.1648 162.395 52.9261 163.065C52.6875 163.733 52.3423 164.243 51.8906 164.595C51.4389 164.945 50.892 165.119 50.25 165.119ZM50.25 164.182C50.8864 164.182 51.3807 163.875 51.733 163.261C52.0852 162.648 52.2614 161.773 52.2614 160.636C52.2614 159.881 52.1804 159.237 52.0185 158.706C51.8594 158.175 51.6293 157.77 51.3281 157.491C51.0298 157.213 50.6705 157.074 50.25 157.074C49.6193 157.074 49.1264 157.385 48.7713 158.007C48.4162 158.626 48.2386 159.503 48.2386 160.636C48.2386 161.392 48.3182 162.034 48.4773 162.562C48.6364 163.091 48.8651 163.493 49.1634 163.768C49.4645 164.044 49.8267 164.182 50.25 164.182Z" fill="#E4C417"/>
<path d="M59 125H65" stroke="#E4C417"/>
<path d="M32.837 125V124.233L35.7177 121.08C36.0558 120.71 36.3342 120.389 36.5529 120.116C36.7717 119.841 36.9336 119.582 37.0387 119.341C37.1467 119.097 37.2006 118.841 37.2006 118.574C37.2006 118.267 37.1268 118.001 36.979 117.777C36.8342 117.553 36.6353 117.379 36.3825 117.257C36.1296 117.135 35.8455 117.074 35.5302 117.074C35.195 117.074 34.9023 117.143 34.6523 117.283C34.4052 117.419 34.2134 117.611 34.0771 117.858C33.9435 118.105 33.8768 118.395 33.8768 118.727H32.8711C32.8711 118.216 32.989 117.767 33.2248 117.381C33.4606 116.994 33.7816 116.693 34.1879 116.477C34.5969 116.261 35.0558 116.153 35.5643 116.153C36.0756 116.153 36.5288 116.261 36.9237 116.477C37.3185 116.693 37.6282 116.984 37.8526 117.351C38.0771 117.717 38.1893 118.125 38.1893 118.574C38.1893 118.895 38.131 119.209 38.0146 119.516C37.9009 119.82 37.7021 120.159 37.418 120.534C37.1367 120.906 36.7461 121.361 36.2461 121.898L34.2859 123.994V124.062H38.3427V125H32.837ZM42.8299 125.119C42.3299 125.119 41.8796 125.02 41.479 124.821C41.0785 124.622 40.7575 124.349 40.516 124.003C40.2745 123.656 40.1424 123.261 40.1197 122.818H41.1424C41.1822 123.213 41.3612 123.54 41.6793 123.798C42.0004 124.054 42.3839 124.182 42.8299 124.182C43.1879 124.182 43.506 124.098 43.7844 123.93C44.0657 123.763 44.2859 123.533 44.445 123.24C44.6069 122.945 44.6879 122.611 44.6879 122.239C44.6879 121.858 44.604 121.518 44.4364 121.22C44.2717 120.919 44.0444 120.682 43.7546 120.509C43.4648 120.335 43.1339 120.247 42.7617 120.244C42.4947 120.241 42.2205 120.283 41.9393 120.368C41.658 120.45 41.4265 120.557 41.2447 120.688L40.256 120.568L40.7844 116.273H45.3185V117.21H41.6708L41.364 119.784H41.4151C41.5941 119.642 41.8185 119.524 42.0884 119.43C42.3583 119.337 42.6396 119.29 42.9322 119.29C43.4663 119.29 43.9421 119.418 44.3597 119.673C44.7802 119.926 45.1097 120.273 45.3484 120.713C45.5898 121.153 45.7106 121.656 45.7106 122.222C45.7106 122.778 45.5856 123.276 45.3356 123.713C45.0884 124.148 44.7475 124.491 44.3129 124.744C43.8782 124.994 43.3839 125.119 42.8299 125.119ZM50.25 125.119C49.608 125.119 49.0611 124.945 48.6094 124.595C48.1577 124.243 47.8125 123.733 47.5739 123.065C47.3352 122.395 47.2159 121.585 47.2159 120.636C47.2159 119.693 47.3352 118.888 47.5739 118.22C47.8153 117.55 48.1619 117.038 48.6136 116.686C49.0682 116.331 49.6136 116.153 50.25 116.153C50.8864 116.153 51.4304 116.331 51.8821 116.686C52.3366 117.038 52.6832 117.55 52.9219 118.22C53.1634 118.888 53.2841 119.693 53.2841 120.636C53.2841 121.585 53.1648 122.395 52.9261 123.065C52.6875 123.733 52.3423 124.243 51.8906 124.595C51.4389 124.945 50.892 125.119 50.25 125.119ZM50.25 124.182C50.8864 124.182 51.3807 123.875 51.733 123.261C52.0852 122.648 52.2614 121.773 52.2614 120.636C52.2614 119.881 52.1804 119.237 52.0185 118.706C51.8594 118.175 51.6293 117.77 51.3281 117.491C51.0298 117.213 50.6705 117.074 50.25 117.074C49.6193 117.074 49.1264 117.385 48.7713 118.007C48.4162 118.626 48.2386 119.503 48.2386 120.636C48.2386 121.392 48.3182 122.034 48.4773 122.562C48.6364 123.091 48.8651 123.493 49.1634 123.768C49.4645 124.044 49.8267 124.182 50.25 124.182Z" fill="#E4C417"/>
<path d="M59 85H65" stroke="#E4C417"/>
<path d="M35.3299 85.1193C34.8299 85.1193 34.3796 85.0199 33.979 84.821C33.5785 84.6222 33.2575 84.3494 33.016 84.0028C32.7745 83.6562 32.6424 83.2614 32.6197 82.8182H33.6424C33.6822 83.2131 33.8612 83.5398 34.1793 83.7983C34.5004 84.054 34.8839 84.1818 35.3299 84.1818C35.6879 84.1818 36.006 84.098 36.2844 83.9304C36.5657 83.7628 36.7859 83.5327 36.945 83.2401C37.1069 82.9446 37.1879 82.6108 37.1879 82.2386C37.1879 81.858 37.104 81.5185 36.9364 81.2202C36.7717 80.919 36.5444 80.6818 36.2546 80.5085C35.9648 80.3352 35.6339 80.2472 35.2617 80.2443C34.9947 80.2415 34.7205 80.2827 34.4393 80.3679C34.158 80.4503 33.9265 80.5568 33.7447 80.6875L32.756 80.5682L33.2844 76.2727H37.8185V77.2102H34.1708L33.864 79.7841H33.9151C34.0941 79.642 34.3185 79.5241 34.5884 79.4304C34.8583 79.3366 35.1396 79.2898 35.4322 79.2898C35.9663 79.2898 36.4421 79.4176 36.8597 79.6733C37.2802 79.9261 37.6097 80.2727 37.8484 80.7131C38.0898 81.1534 38.2106 81.6562 38.2106 82.2216C38.2106 82.7784 38.0856 83.2756 37.8356 83.7131C37.5884 84.1477 37.2475 84.4915 36.8129 84.7443C36.3782 84.9943 35.8839 85.1193 35.3299 85.1193ZM42.75 85.1193C42.108 85.1193 41.5611 84.9446 41.1094 84.5952C40.6577 84.2429 40.3125 83.733 40.0739 83.0653C39.8352 82.3949 39.7159 81.5852 39.7159 80.6364C39.7159 79.6932 39.8352 78.8878 40.0739 78.2202C40.3153 77.5497 40.6619 77.0384 41.1136 76.6861C41.5682 76.331 42.1136 76.1534 42.75 76.1534C43.3864 76.1534 43.9304 76.331 44.3821 76.6861C44.8366 77.0384 45.1832 77.5497 45.4219 78.2202C45.6634 78.8878 45.7841 79.6932 45.7841 80.6364C45.7841 81.5852 45.6648 82.3949 45.4261 83.0653C45.1875 83.733 44.8423 84.2429 44.3906 84.5952C43.9389 84.9446 43.392 85.1193 42.75 85.1193ZM42.75 84.1818C43.3864 84.1818 43.8807 83.875 44.233 83.2614C44.5852 82.6477 44.7614 81.7727 44.7614 80.6364C44.7614 79.8807 44.6804 79.2372 44.5185 78.706C44.3594 78.1747 44.1293 77.7699 43.8281 77.4915C43.5298 77.2131 43.1705 77.0739 42.75 77.0739C42.1193 77.0739 41.6264 77.3849 41.2713 78.0071C40.9162 78.6264 40.7386 79.5028 40.7386 80.6364C40.7386 81.392 40.8182 82.0341 40.9773 82.5625C41.1364 83.0909 41.3651 83.4929 41.6634 83.7685C41.9645 84.044 42.3267 84.1818 42.75 84.1818ZM50.25 85.1193C49.608 85.1193 49.0611 84.9446 48.6094 84.5952C48.1577 84.2429 47.8125 83.733 47.5739 83.0653C47.3352 82.3949 47.2159 81.5852 47.2159 80.6364C47.2159 79.6932 47.3352 78.8878 47.5739 78.2202C47.8153 77.5497 48.1619 77.0384 48.6136 76.6861C49.0682 76.331 49.6136 76.1534 50.25 76.1534C50.8864 76.1534 51.4304 76.331 51.8821 76.6861C52.3366 77.0384 52.6832 77.5497 52.9219 78.2202C53.1634 78.8878 53.2841 79.6932 53.2841 80.6364C53.2841 81.5852 53.1648 82.3949 52.9261 83.0653C52.6875 83.733 52.3423 84.2429 51.8906 84.5952C51.4389 84.9446 50.892 85.1193 50.25 85.1193ZM50.25 84.1818C50.8864 84.1818 51.3807 83.875 51.733 83.2614C52.0852 82.6477 52.2614 81.7727 52.2614 80.6364C52.2614 79.8807 52.1804 79.2372 52.0185 78.706C51.8594 78.1747 51.6293 77.7699 51.3281 77.4915C51.0298 77.2131 50.6705 77.0739 50.25 77.0739C49.6193 77.0739 49.1264 77.3849 48.7713 78.0071C48.4162 78.6264 48.2386 79.5028 48.2386 80.6364C48.2386 81.392 48.3182 82.0341 48.4773 82.5625C48.6364 83.0909 48.8651 83.4929 49.1634 83.7685C49.4645 84.044 49.8267 84.1818 50.25 84.1818Z" fill="#E4C417"/>
<path d="M59 45H65" stroke="#E4C417"/>
<path d="M33.6371 45L37.5405 37.2784V37.2102H33.0405V36.2727H38.6314V37.2614L34.745 45H33.6371ZM42.8299 45.1193C42.3299 45.1193 41.8796 45.0199 41.479 44.821C41.0785 44.6222 40.7575 44.3494 40.516 44.0028C40.2745 43.6562 40.1424 43.2614 40.1197 42.8182H41.1424C41.1822 43.2131 41.3612 43.5398 41.6793 43.7983C42.0004 44.054 42.3839 44.1818 42.8299 44.1818C43.1879 44.1818 43.506 44.098 43.7844 43.9304C44.0657 43.7628 44.2859 43.5327 44.445 43.2401C44.6069 42.9446 44.6879 42.6108 44.6879 42.2386C44.6879 41.858 44.604 41.5185 44.4364 41.2202C44.2717 40.919 44.0444 40.6818 43.7546 40.5085C43.4648 40.3352 43.1339 40.2472 42.7617 40.2443C42.4947 40.2415 42.2205 40.2827 41.9393 40.3679C41.658 40.4503 41.4265 40.5568 41.2447 40.6875L40.256 40.5682L40.7844 36.2727H45.3185V37.2102H41.6708L41.364 39.7841H41.4151C41.5941 39.642 41.8185 39.5241 42.0884 39.4304C42.3583 39.3366 42.6396 39.2898 42.9322 39.2898C43.4663 39.2898 43.9421 39.4176 44.3597 39.6733C44.7802 39.9261 45.1097 40.2727 45.3484 40.7131C45.5898 41.1534 45.7106 41.6562 45.7106 42.2216C45.7106 42.7784 45.5856 43.2756 45.3356 43.7131C45.0884 44.1477 44.7475 44.4915 44.3129 44.7443C43.8782 44.9943 43.3839 45.1193 42.8299 45.1193ZM50.25 45.1193C49.608 45.1193 49.0611 44.9446 48.6094 44.5952C48.1577 44.2429 47.8125 43.733 47.5739 43.0653C47.3352 42.3949 47.2159 41.5852 47.2159 40.6364C47.2159 39.6932 47.3352 38.8878 47.5739 38.2202C47.8153 37.5497 48.1619 37.0384 48.6136 36.6861C49.0682 36.331 49.6136 36.1534 50.25 36.1534C50.8864 36.1534 51.4304 36.331 51.8821 36.6861C52.3366 37.0384 52.6832 37.5497 52.9219 38.2202C53.1634 38.8878 53.2841 39.6932 53.2841 40.6364C53.2841 41.5852 53.1648 42.3949 52.9261 43.0653C52.6875 43.733 52.3423 44.2429 51.8906 44.5952C51.4389 44.9446 50.892 45.1193 50.25 45.1193ZM50.25 44.1818C50.8864 44.1818 51.3807 43.875 51.733 43.2614C52.0852 42.6477 52.2614 41.7727 52.2614 40.6364C52.2614 39.8807 52.1804 39.2372 52.0185 38.706C51.8594 38.1747 51.6293 37.7699 51.3281 37.4915C51.0298 37.2131 50.6705 37.0739 50.25 37.0739C49.6193 37.0739 49.1264 37.3849 48.7713 38.0071C48.4162 38.6264 48.2386 39.5028 48.2386 40.6364C48.2386 41.392 48.3182 42.0341 48.4773 42.5625C48.6364 43.0909 48.8651 43.4929 49.1634 43.7685C49.4645 44.044 49.8267 44.1818 50.25 44.1818Z" fill="#E4C417"/>
<path d="M59 5H65" stroke="#E4C417"/>
<path d="M29.8935 0.872725V9.6H28.8366V1.98068H28.7855L26.6548 3.39545V2.32159L28.8366 0.872725H29.8935ZM35.25 9.71932C34.608 9.71932 34.0611 9.5446 33.6094 9.19517C33.1577 8.8429 32.8125 8.33295 32.5739 7.66534C32.3352 6.99488 32.2159 6.18523 32.2159 5.23636C32.2159 4.29318 32.3352 3.48778 32.5739 2.82017C32.8153 2.14971 33.1619 1.63835 33.6136 1.28608C34.0682 0.930964 34.6136 0.753407 35.25 0.753407C35.8864 0.753407 36.4304 0.930964 36.8821 1.28608C37.3366 1.63835 37.6832 2.14971 37.9219 2.82017C38.1634 3.48778 38.2841 4.29318 38.2841 5.23636C38.2841 6.18523 38.1648 6.99488 37.9261 7.66534C37.6875 8.33295 37.3423 8.8429 36.8906 9.19517C36.4389 9.5446 35.892 9.71932 35.25 9.71932ZM35.25 8.78182C35.8864 8.78182 36.3807 8.475 36.733 7.86136C37.0852 7.24773 37.2614 6.37273 37.2614 5.23636C37.2614 4.48068 37.1804 3.83721 37.0185 3.30596C36.8594 2.77471 36.6293 2.36988 36.3281 2.09148C36.0298 1.81307 35.6705 1.67386 35.25 1.67386C34.6193 1.67386 34.1264 1.98494 33.7713 2.6071C33.4162 3.22642 33.2386 4.10284 33.2386 5.23636C33.2386 5.99204 33.3182 6.63409 33.4773 7.1625C33.6364 7.69091 33.8651 8.0929 34.1634 8.36846C34.4645 8.64403 34.8267 8.78182 35.25 8.78182ZM42.75 9.71932C42.108 9.71932 41.5611 9.5446 41.1094 9.19517C40.6577 8.8429 40.3125 8.33295 40.0739 7.66534C39.8352 6.99488 39.7159 6.18523 39.7159 5.23636C39.7159 4.29318 39.8352 3.48778 40.0739 2.82017C40.3153 2.14971 40.6619 1.63835 41.1136 1.28608C41.5682 0.930964 42.1136 0.753407 42.75 0.753407C43.3864 0.753407 43.9304 0.930964 44.3821 1.28608C44.8366 1.63835 45.1832 2.14971 45.4219 2.82017C45.6634 3.48778 45.7841 4.29318 45.7841 5.23636C45.7841 6.18523 45.6648 6.99488 45.4261 7.66534C45.1875 8.33295 44.8423 8.8429 44.3906 9.19517C43.9389 9.5446 43.392 9.71932 42.75 9.71932ZM42.75 8.78182C43.3864 8.78182 43.8807 8.475 44.233 7.86136C44.5852 7.24773 44.7614 6.37273 44.7614 5.23636C44.7614 4.48068 44.6804 3.83721 44.5185 3.30596C44.3594 2.77471 44.1293 2.36988 43.8281 2.09148C43.5298 1.81307 43.1705 1.67386 42.75 1.67386C42.1193 1.67386 41.6264 1.98494 41.2713 2.6071C40.9162 3.22642 40.7386 4.10284 40.7386 5.23636C40.7386 5.99204 40.8182 6.63409 40.9773 7.1625C41.1364 7.69091 41.3651 8.0929 41.6634 8.36846C41.9645 8.64403 42.3267 8.78182 42.75 8.78182ZM50.25 9.71932C49.608 9.71932 49.0611 9.5446 48.6094 9.19517C48.1577 8.8429 47.8125 8.33295 47.5739 7.66534C47.3352 6.99488 47.2159 6.18523 47.2159 5.23636C47.2159 4.29318 47.3352 3.48778 47.5739 2.82017C47.8153 2.14971 48.1619 1.63835 48.6136 1.28608C49.0682 0.930964 49.6136 0.753407 50.25 0.753407C50.8864 0.753407 51.4304 0.930964 51.8821 1.28608C52.3366 1.63835 52.6832 2.14971 52.9219 2.82017C53.1634 3.48778 53.2841 4.29318 53.2841 5.23636C53.2841 6.18523 53.1648 6.99488 52.9261 7.66534C52.6875 8.33295 52.3423 8.8429 51.8906 9.19517C51.4389 9.5446 50.892 9.71932 50.25 9.71932ZM50.25 8.78182C50.8864 8.78182 51.3807 8.475 51.733 7.86136C52.0852 7.24773 52.2614 6.37273 52.2614 5.23636C52.2614 4.48068 52.1804 3.83721 52.0185 3.30596C51.8594 2.77471 51.6293 2.36988 51.3281 2.09148C51.0298 1.81307 50.6705 1.67386 50.25 1.67386C49.6193 1.67386 49.1264 1.98494 48.7713 2.6071C48.4162 3.22642 48.2386 4.10284 48.2386 5.23636C48.2386 5.99204 48.3182 6.63409 48.4773 7.1625C48.6364 7.69091 48.8651 8.0929 49.1634 8.36846C49.4645 8.64403 49.8267 8.78182 50.25 8.78182Z" fill="#E4C417"/>
<path d="M65 34.84L114.833 83.64L164.667 109.88L214.5 15L264.333 151.48L314.167 157.24L364 131.16L413.833 106.68L463.667 33.24L513.5 24.6L563.333 35.8L613.167 75L663 115.32" stroke="#EF5DA8" stroke-width="2"/>
<path d="M65 38.08C66.6569 38.08 68 36.7369 68 35.08C68 33.4231 66.6569 32.08 65 32.08C63.3431 32.08 62 33.4231 62 35.08C62 36.7369 63.3431 38.08 65 38.08Z" fill="#EF5DA8"/>
<path d="M114.833 86.88C116.49 86.88 117.833 85.5369 117.833 83.88C117.833 82.2231 116.49 80.88 114.833 80.88C113.176 80.88 111.833 82.2231 111.833 83.88C111.833 85.5369 113.176 86.88 114.833 86.88Z" fill="#EF5DA8"/>
<path d="M164.667 113.12C166.324 113.12 167.667 111.777 167.667 110.12C167.667 108.463 166.324 107.12 164.667 107.12C163.01 107.12 161.667 108.463 161.667 110.12C161.667 111.777 163.01 113.12 164.667 113.12Z" fill="#EF5DA8"/>
<path d="M214.5 18.24C216.157 18.24 217.5 16.8969 217.5 15.24C217.5 13.5831 216.157 12.24 214.5 12.24C212.843 12.24 211.5 13.5831 211.5 15.24C211.5 16.8969 212.843 18.24 214.5 18.24Z" fill="#EF5DA8"/>
<path d="M264.333 154.72C265.99 154.72 267.333 153.377 267.333 151.72C267.333 150.063 265.99 148.72 264.333 148.72C262.676 148.72 261.333 150.063 261.333 151.72C261.333 153.377 262.676 154.72 264.333 154.72Z" fill="#EF5DA8"/>
<path d="M314.167 160.48C315.824 160.48 317.167 159.137 317.167 157.48C317.167 155.823 315.824 154.48 314.167 154.48C312.51 154.48 311.167 155.823 311.167 157.48C311.167 159.137 312.51 160.48 314.167 160.48Z" fill="#EF5DA8"/>
<path d="M364 134.4C365.657 134.4 367 133.057 367 131.4C367 129.743 365.657 128.4 364 128.4C362.343 128.4 361 129.743 361 131.4C361 133.057 362.343 134.4 364 134.4Z" fill="#EF5DA8"/>
<path d="M413.833 109.92C415.49 109.92 416.833 108.577 416.833 106.92C416.833 105.263 415.49 103.92 413.833 103.92C412.176 103.92 410.833 105.263 410.833 106.92C410.833 108.577 412.176 109.92 413.833 109.92Z" fill="#EF5DA8"/>
<path d="M463.667 36.48C465.324 36.48 466.667 35.1368 466.667 33.48C466.667 31.8231 465.324 30.48 463.667 30.48C462.01 30.48 460.667 31.8231 460.667 33.48C460.667 35.1368 462.01 36.48 463.667 36.48Z" fill="#EF5DA8"/>
<path d="M513.5 27.84C515.157 27.84 516.5 26.4969 516.5 24.84C516.5 23.1831 515.157 21.84 513.5 21.84C511.843 21.84 510.5 23.1831 510.5 24.84C510.5 26.4969 511.843 27.84 513.5 27.84Z" fill="#EF5DA8"/>
<path d="M563.333 39.04C564.99 39.04 566.333 37.6969 566.333 36.04C566.333 34.3831 564.99 33.04 563.333 33.04C561.676 33.04 560.333 34.3831 560.333 36.04C560.333 37.6969 561.676 39.04 563.333 39.04Z" fill="#EF5DA8"/>
<path d="M613.167 78.24C614.824 78.24 616.167 76.8969 616.167 75.24C616.167 73.5831 614.824 72.24 613.167 72.24C611.51 72.24 610.167 73.5831 610.167 75.24C610.167 76.8969 611.51 78.24 613.167 78.24Z" fill="#EF5DA8"/>
<path d="M663 118.56C664.657 118.56 666 117.217 666 115.56C666 113.903 664.657 112.56 663 112.56C661.343 112.56 660 113.903 660 115.56C660 117.217 661.343 118.56 663 118.56Z" fill="#EF5DA8"/>
<path d="M65 140.04L114.833 73L164.667 140.2L214.5 9.96L264.333 109.32L314.167 78.28L364 121.96L413.833 36.2L463.667 135.24L513.5 106.44L563.333 95.56L613.167 77.32L663 137.16" stroke="#1C253D" stroke-width="2"/>
<path d="M65 143.04C66.6569 143.04 68 141.697 68 140.04C68 138.383 66.6569 137.04 65 137.04C63.3431 137.04 62 138.383 62 140.04C62 141.697 63.3431 143.04 65 143.04Z" fill="#1C253D"/>
<path d="M114.833 76C116.49 76 117.833 74.6569 117.833 73C117.833 71.3431 116.49 70 114.833 70C113.176 70 111.833 71.3431 111.833 73C111.833 74.6569 113.176 76 114.833 76Z" fill="#1C253D"/>
<path d="M164.667 143.2C166.324 143.2 167.667 141.857 167.667 140.2C167.667 138.543 166.324 137.2 164.667 137.2C163.01 137.2 161.667 138.543 161.667 140.2C161.667 141.857 163.01 143.2 164.667 143.2Z" fill="#1C253D"/>
<path d="M214.5 12.96C216.157 12.96 217.5 11.6169 217.5 9.96C217.5 8.30314 216.157 6.96 214.5 6.96C212.843 6.96 211.5 8.30314 211.5 9.96C211.5 11.6169 212.843 12.96 214.5 12.96Z" fill="#1C253D"/>
<path d="M264.333 112.32C265.99 112.32 267.333 110.977 267.333 109.32C267.333 107.663 265.99 106.32 264.333 106.32C262.676 106.32 261.333 107.663 261.333 109.32C261.333 110.977 262.676 112.32 264.333 112.32Z" fill="#1C253D"/>
<path d="M314.167 81.28C315.824 81.28 317.167 79.9369 317.167 78.28C317.167 76.6231 315.824 75.28 314.167 75.28C312.51 75.28 311.167 76.6231 311.167 78.28C311.167 79.9369 312.51 81.28 314.167 81.28Z" fill="#1C253D"/>
<path d="M364 124.96C365.657 124.96 367 123.617 367 121.96C367 120.303 365.657 118.96 364 118.96C362.343 118.96 361 120.303 361 121.96C361 123.617 362.343 124.96 364 124.96Z" fill="#1C253D"/>
<path d="M413.833 39.2C415.49 39.2 416.833 37.8569 416.833 36.2C416.833 34.5431 415.49 33.2 413.833 33.2C412.176 33.2 410.833 34.5431 410.833 36.2C410.833 37.8569 412.176 39.2 413.833 39.2Z" fill="#1C253D"/>
<path d="M463.667 138.24C465.324 138.24 466.667 136.897 466.667 135.24C466.667 133.583 465.324 132.24 463.667 132.24C462.01 132.24 460.667 133.583 460.667 135.24C460.667 136.897 462.01 138.24 463.667 138.24Z" fill="#1C253D"/>
<path d="M513.5 109.44C515.157 109.44 516.5 108.097 516.5 106.44C516.5 104.783 515.157 103.44 513.5 103.44C511.843 103.44 510.5 104.783 510.5 106.44C510.5 108.097 511.843 109.44 513.5 109.44Z" fill="#1C253D"/>
<path d="M563.333 98.56C564.99 98.56 566.333 97.2169 566.333 95.56C566.333 93.9031 564.99 92.56 563.333 92.56C561.676 92.56 560.333 93.9031 560.333 95.56C560.333 97.2169 561.676 98.56 563.333 98.56Z" fill="#1C253D"/>
<path d="M613.167 80.32C614.824 80.32 616.167 78.9769 616.167 77.32C616.167 75.6631 614.824 74.32 613.167 74.32C611.51 74.32 610.167 75.6631 610.167 77.32C610.167 78.9769 611.51 80.32 613.167 80.32Z" fill="#1C253D"/>
<path d="M663 140.16C664.657 140.16 666 138.817 666 137.16C666 135.503 664.657 134.16 663 134.16C661.343 134.16 660 135.503 660 137.16C660 138.817 661.343 140.16 663 140.16Z" fill="#1C253D"/>
</g>
<defs>
<clipPath id="clip0_21_23218">
<rect width="668" height="200" fill="white"/>
</clipPath>
</defs>
</svg>
