<svg width="48" height="48" viewBox="0 0 48 48" fill="none" xmlns="http://www.w3.org/2000/svg">
<path d="M30.6667 34.6667C30.6667 35.0203 30.5263 35.3594 30.2762 35.6095C30.0262 35.8595 29.687 36 29.3334 36H10.6667C10.3734 36 10.0934 36.2667 9.85341 36.44L5.33341 40V18.6667C5.33341 18.313 5.47389 17.9739 5.72394 17.7238C5.97399 17.4738 6.31313 17.3333 6.66675 17.3333H11.8134V14.6667H6.66675C5.60588 14.6667 4.58847 15.0881 3.83832 15.8382C3.08818 16.5884 2.66675 17.6058 2.66675 18.6667V42.6667C2.66873 42.9143 2.73964 43.1565 2.87152 43.3661C3.0034 43.5756 3.19104 43.7444 3.41341 43.8533C3.62765 43.9508 3.86386 43.9897 4.09805 43.9663C4.33223 43.9429 4.55604 43.8579 4.74675 43.72L11.6134 38.6667H29.5334C30.0388 38.6816 30.5418 38.5926 31.0114 38.4053C31.4809 38.2179 31.907 37.9361 32.2632 37.5774C32.6195 37.2186 32.8983 36.7906 33.0824 36.3197C33.2664 35.8489 33.3519 35.3452 33.3334 34.84V33.3333H30.6667V34.6667Z" fill="#1C253D"/>
<path d="M41.3334 5.33334H18.6667C17.6059 5.33334 16.5885 5.75477 15.8383 6.50492C15.0882 7.25506 14.6667 8.27248 14.6667 9.33334V25.3333C14.6667 26.3942 15.0882 27.4116 15.8383 28.1618C16.5885 28.9119 17.6059 29.3333 18.6667 29.3333H36.7334L43.1068 34.28C43.2962 34.4201 43.5194 34.5075 43.7536 34.5332C43.9878 34.559 44.2247 34.5222 44.4401 34.4267C44.667 34.3186 44.8587 34.1486 44.9932 33.9363C45.1276 33.724 45.1994 33.478 45.2001 33.2267V9.33334C45.2007 8.29518 44.7976 7.29746 44.076 6.55103C43.3545 5.8046 42.371 5.36795 41.3334 5.33334V5.33334ZM42.6667 30.5867L38.0001 26.9467C37.7673 26.7661 37.4813 26.6676 37.1867 26.6667H18.6667C18.3131 26.6667 17.974 26.5262 17.7239 26.2762C17.4739 26.0261 17.3334 25.687 17.3334 25.3333V9.33334C17.3334 8.97972 17.4739 8.64058 17.7239 8.39053C17.974 8.14049 18.3131 8.00001 18.6667 8.00001H41.3334C41.6898 8.03236 42.0221 8.1939 42.2677 8.45422C42.5133 8.71453 42.6552 9.05566 42.6667 9.41334V30.5867Z" fill="#1C253D"/>
</svg>
