<svg width="48" height="48" viewBox="0 0 48 48" fill="none" xmlns="http://www.w3.org/2000/svg">
<path d="M42.9999 8H38.6666V10.6667H42.6666V40H5.33327V10.6667H9.33327V8H4.99994C4.68825 8.00521 4.38065 8.07177 4.09469 8.19588C3.80874 8.31999 3.55003 8.49921 3.33335 8.72332C3.11667 8.94743 2.94627 9.21203 2.83186 9.502C2.71746 9.79198 2.66131 10.1017 2.6666 10.4133V40.2533C2.66131 40.565 2.71746 40.8747 2.83186 41.1647C2.94627 41.4546 3.11667 41.7192 3.33335 41.9433C3.55003 42.1675 3.80874 42.3467 4.09469 42.4708C4.38065 42.5949 4.68825 42.6615 4.99994 42.6667H42.9999C43.3116 42.6615 43.6192 42.5949 43.9052 42.4708C44.1911 42.3467 44.4498 42.1675 44.6665 41.9433C44.8832 41.7192 45.0536 41.4546 45.168 41.1647C45.2824 40.8747 45.3386 40.565 45.3333 40.2533V10.4133C45.3386 10.1017 45.2824 9.79198 45.168 9.502C45.0536 9.21203 44.8832 8.94743 44.6665 8.72332C44.4498 8.49921 44.1911 8.31999 43.9052 8.19588C43.6192 8.07177 43.3116 8.00521 42.9999 8V8Z" fill="#1C253D"/>
<path d="M10.6667 18.6667H13.3334V21.3333H10.6667V18.6667Z" fill="#1C253D"/>
<path d="M18.6667 18.6667H21.3334V21.3333H18.6667V18.6667Z" fill="#1C253D"/>
<path d="M26.6667 18.6667H29.3334V21.3333H26.6667V18.6667Z" fill="#1C253D"/>
<path d="M34.6667 18.6667H37.3334V21.3333H34.6667V18.6667Z" fill="#1C253D"/>
<path d="M10.6667 25.3333H13.3334V28H10.6667V25.3333Z" fill="#1C253D"/>
<path d="M18.6667 25.3333H21.3334V28H18.6667V25.3333Z" fill="#1C253D"/>
<path d="M26.6667 25.3333H29.3334V28H26.6667V25.3333Z" fill="#1C253D"/>
<path d="M34.6667 25.3333H37.3334V28H34.6667V25.3333Z" fill="#1C253D"/>
<path d="M10.6667 32H13.3334V34.6667H10.6667V32Z" fill="#1C253D"/>
<path d="M18.6667 32H21.3334V34.6667H18.6667V32Z" fill="#1C253D"/>
<path d="M26.6667 32H29.3334V34.6667H26.6667V32Z" fill="#1C253D"/>
<path d="M34.6667 32H37.3334V34.6667H34.6667V32Z" fill="#1C253D"/>
<path d="M13.3333 13.3333C13.687 13.3333 14.0261 13.1928 14.2761 12.9428C14.5262 12.6928 14.6667 12.3536 14.6667 12V3.99999C14.6667 3.64637 14.5262 3.30723 14.2761 3.05718C14.0261 2.80713 13.687 2.66666 13.3333 2.66666C12.9797 2.66666 12.6406 2.80713 12.3905 3.05718C12.1405 3.30723 12 3.64637 12 3.99999V12C12 12.3536 12.1405 12.6928 12.3905 12.9428C12.6406 13.1928 12.9797 13.3333 13.3333 13.3333Z" fill="#1C253D"/>
<path d="M34.6666 13.3333C35.0202 13.3333 35.3593 13.1928 35.6094 12.9428C35.8594 12.6928 35.9999 12.3536 35.9999 12V3.99999C35.9999 3.64637 35.8594 3.30723 35.6094 3.05718C35.3593 2.80713 35.0202 2.66666 34.6666 2.66666C34.313 2.66666 33.9738 2.80713 33.7238 3.05718C33.4737 3.30723 33.3333 3.64637 33.3333 3.99999V12C33.3333 12.3536 33.4737 12.6928 33.7238 12.9428C33.9738 13.1928 34.313 13.3333 34.6666 13.3333Z" fill="#1C253D"/>
<path d="M17.3333 8H30.6666V10.6667H17.3333V8Z" fill="#1C253D"/>
</svg>
