<svg width="48" height="48" viewBox="0 0 48 48" fill="none" xmlns="http://www.w3.org/2000/svg">
<path d="M42.6667 6.66666H5.33341C4.62617 6.66666 3.94789 6.94761 3.4478 7.4477C2.9477 7.9478 2.66675 8.62608 2.66675 9.33332V38.6667C2.66675 39.3739 2.9477 40.0522 3.4478 40.5523C3.94789 41.0524 4.62617 41.3333 5.33341 41.3333H42.6667C43.374 41.3333 44.0523 41.0524 44.5524 40.5523C45.0525 40.0522 45.3334 39.3739 45.3334 38.6667V9.33332C45.3334 8.62608 45.0525 7.9478 44.5524 7.4477C44.0523 6.94761 43.374 6.66666 42.6667 6.66666V6.66666ZM5.33341 9.33332H42.6667V12.2667H5.33341V9.33332ZM5.33341 38.6667V14.4H42.6667V38.6667H5.33341Z" fill="#1C253D"/>
<path d="M22.6667 30.6667H30.6667V33.3333H22.6667V30.6667Z" fill="#1C253D"/>
<path d="M9.33325 20.9067L18.3866 25.0667L9.33325 29.2133V32.1467L22.1333 26.2667V23.8533L9.33325 17.9733V20.9067Z" fill="#1C253D"/>
</svg>
