<svg width="49" height="48" viewBox="0 0 49 48" fill="none" xmlns="http://www.w3.org/2000/svg">
<path d="M13.1333 30.5067V14.1333H32.8667L34.9733 12H11V30.5067H13.1333V30.5067Z" fill="#1C253D"/>
<path d="M8.33317 9.33335H40.3332V30.6667H42.9998V8.66669C42.9998 8.13625 42.7891 7.62755 42.4141 7.25247C42.039 6.8774 41.5303 6.66669 40.9998 6.66669H7.6665C7.13607 6.66669 6.62736 6.8774 6.25229 7.25247C5.87722 7.62755 5.6665 8.13625 5.6665 8.66669V30.6667H8.33317V9.33335Z" fill="#1C253D"/>
<path d="M1.6665 33.3333V37.8666C1.6665 38.7861 2.03174 39.6678 2.68187 40.318C3.33199 40.9681 4.21375 41.3333 5.13317 41.3333H43.4532C44.3726 41.3333 45.2544 40.9681 45.9045 40.318C46.5546 39.6678 46.9198 38.7861 46.9198 37.8666V33.3333H1.6665ZM44.3332 37.8666C44.3332 38.0788 44.2489 38.2823 44.0989 38.4323C43.9488 38.5824 43.7453 38.6666 43.5332 38.6666H5.07984C4.86766 38.6666 4.66418 38.5824 4.51415 38.4323C4.36412 38.2823 4.27984 38.0788 4.27984 37.8666V35.3733H17.5465C17.7132 35.7666 17.9914 36.1025 18.3469 36.3394C18.7023 36.5764 19.1193 36.704 19.5465 36.7066H29.0532C29.4803 36.704 29.8974 36.5764 30.2528 36.3394C30.6082 36.1025 30.8865 35.7666 31.0532 35.3733H44.3332V37.8666Z" fill="#1C253D"/>
</svg>
