<svg width="49" height="48" viewBox="0 0 49 48" fill="none" xmlns="http://www.w3.org/2000/svg">
<path d="M31.1066 30.76H16.4399V32.76H32.1066C32.3718 32.76 32.6262 32.6547 32.8137 32.4671C33.0013 32.2796 33.1066 32.0252 33.1066 31.76V15.1067H31.1066V30.76Z" fill="#1C253D"/>
<path d="M43.2666 24.2C43.5495 24.2 43.8208 24.0876 44.0208 23.8876C44.2209 23.6875 44.3333 23.4162 44.3333 23.1333C44.3333 22.8504 44.2209 22.5791 44.0208 22.3791C43.8208 22.179 43.5495 22.0667 43.2666 22.0667H40.3333V14.8667H43.2666C43.5495 14.8667 43.8208 14.7543 44.0208 14.5542C44.2209 14.3542 44.3333 14.0829 44.3333 13.8C44.3333 13.5171 44.2209 13.2458 44.0208 13.0458C43.8208 12.8457 43.5495 12.7333 43.2666 12.7333H40.3333V10.8C40.3333 10.0574 40.0383 9.3452 39.5132 8.8201C38.988 8.295 38.2759 8 37.5333 8H35.4666V5.06667C35.4666 4.78377 35.3542 4.51246 35.1542 4.31242C34.9541 4.11238 34.6828 4 34.3999 4C34.117 4 33.8457 4.11238 33.6457 4.31242C33.4456 4.51246 33.3333 4.78377 33.3333 5.06667V8H26.1333V5.06667C26.1333 4.78377 26.0209 4.51246 25.8208 4.31242C25.6208 4.11238 25.3495 4 25.0666 4C24.7837 4 24.5124 4.11238 24.3123 4.31242C24.1123 4.51246 23.9999 4.78377 23.9999 5.06667V8H16.7999V5.06667C16.7999 4.78377 16.6875 4.51246 16.4875 4.31242C16.2875 4.11238 16.0162 4 15.7333 4C15.4504 4 15.179 4.11238 14.979 4.31242C14.779 4.51246 14.6666 4.78377 14.6666 5.06667V8H11.1333C10.3906 8 9.67845 8.295 9.15335 8.8201C8.62825 9.3452 8.33325 10.0574 8.33325 10.8V12.7333H5.39992C5.11702 12.7333 4.84571 12.8457 4.64567 13.0458C4.44563 13.2458 4.33325 13.5171 4.33325 13.8C4.33325 14.0829 4.44563 14.3542 4.64567 14.5542C4.84571 14.7543 5.11702 14.8667 5.39992 14.8667H8.33325V22.0667H5.39992C5.11702 22.0667 4.84571 22.179 4.64567 22.3791C4.44563 22.5791 4.33325 22.8504 4.33325 23.1333C4.33325 23.4162 4.44563 23.6875 4.64567 23.8876C4.84571 24.0876 5.11702 24.2 5.39992 24.2H8.33325V31.4H5.39992C5.11702 31.4 4.84571 31.5124 4.64567 31.7124C4.44563 31.9125 4.33325 32.1838 4.33325 32.4667C4.33325 32.7496 4.44563 33.0209 4.64567 33.2209C4.84571 33.421 5.11702 33.5333 5.39992 33.5333H8.33325V37.2C8.33325 37.9426 8.62825 38.6548 9.15335 39.1799C9.67845 39.705 10.3906 40 11.1333 40H14.6666V42.9333C14.6666 43.2162 14.779 43.4875 14.979 43.6876C15.179 43.8876 15.4504 44 15.7333 44C16.0162 44 16.2875 43.8876 16.4875 43.6876C16.6875 43.4875 16.7999 43.2162 16.7999 42.9333V40H23.9999V42.9333C23.9999 43.2162 24.1123 43.4875 24.3123 43.6876C24.5124 43.8876 24.7837 44 25.0666 44C25.3495 44 25.6208 43.8876 25.8208 43.6876C26.0209 43.4875 26.1333 43.2162 26.1333 42.9333V40H33.3333V42.9333C33.3333 43.2162 33.4456 43.4875 33.6457 43.6876C33.8457 43.8876 34.117 44 34.3999 44C34.6828 44 34.9541 43.8876 35.1542 43.6876C35.3542 43.4875 35.4666 43.2162 35.4666 42.9333V40H37.5333C38.2759 40 38.988 39.705 39.5132 39.1799C40.0383 38.6548 40.3333 37.9426 40.3333 37.2V33.5333H43.2666C43.5495 33.5333 43.8208 33.421 44.0208 33.2209C44.2209 33.0209 44.3333 32.7496 44.3333 32.4667C44.3333 32.1838 44.2209 31.9125 44.0208 31.7124C43.8208 31.5124 43.5495 31.4 43.2666 31.4H40.3333V24.2H43.2666ZM37.6666 37.2C37.6666 37.2354 37.6525 37.2693 37.6275 37.2943C37.6025 37.3193 37.5686 37.3333 37.5333 37.3333H11.1333C11.0979 37.3333 11.064 37.3193 11.039 37.2943C11.014 37.2693 10.9999 37.2354 10.9999 37.2V10.8C10.9999 10.7646 11.014 10.7307 11.039 10.7057C11.064 10.6807 11.0979 10.6667 11.1333 10.6667H37.5333C37.5686 10.6667 37.6025 10.6807 37.6275 10.7057C37.6525 10.7307 37.6666 10.7646 37.6666 10.8V37.2Z" fill="#1C253D"/>
</svg>
