<svg width="49" height="48" viewBox="0 0 49 48" fill="none" xmlns="http://www.w3.org/2000/svg">
<path d="M12.1733 17.4267C11.9125 17.429 11.658 17.3463 11.4485 17.1911C11.2389 17.0359 11.0856 16.8166 11.0117 16.5665C10.9379 16.3163 10.9476 16.049 11.0393 15.8048C11.131 15.5607 11.2997 15.353 11.5199 15.2134L23.4266 7.57335C23.5597 7.4858 23.7087 7.42532 23.8651 7.39536C24.0216 7.36541 24.1824 7.36656 24.3384 7.39875C24.4944 7.43094 24.6426 7.49354 24.7744 7.58298C24.9062 7.67242 25.0191 7.78695 25.1066 7.92002C25.1942 8.05309 25.2546 8.2021 25.2846 8.35855C25.3146 8.515 25.3134 8.67581 25.2812 8.83182C25.249 8.98782 25.1864 9.13595 25.097 9.26776C25.0075 9.39957 24.893 9.51247 24.7599 9.60002L12.8266 17.2267C12.6328 17.3553 12.4058 17.4247 12.1733 17.4267V17.4267Z" fill="#1C253D"/>
<path d="M17.9999 20.1467C17.7392 20.149 17.4847 20.0663 17.2751 19.911C17.0655 19.7558 16.9122 19.5366 16.8384 19.2864C16.7646 19.0363 16.7742 18.7689 16.8659 18.5248C16.9576 18.2806 17.1264 18.073 17.3466 17.9333L24.3333 13.44C24.4663 13.3524 24.6154 13.292 24.7718 13.262C24.9283 13.232 25.0891 13.2332 25.2451 13.2654C25.4011 13.2976 25.5492 13.3602 25.681 13.4496C25.8128 13.5391 25.9257 13.6536 26.0133 13.7867C26.1008 13.9197 26.1613 14.0687 26.1913 14.2252C26.2212 14.3816 26.2201 14.5425 26.1879 14.6985C26.1557 14.8545 26.0931 15.0026 26.0036 15.1344C25.9142 15.2662 25.7997 15.3791 25.6666 15.4667L18.6533 20C18.4538 20.1099 18.2272 20.1607 17.9999 20.1467V20.1467Z" fill="#1C253D"/>
<path d="M26.6267 40.3067C26.3659 40.309 26.1114 40.2263 25.9018 40.0711C25.6923 39.9159 25.5389 39.6966 25.4651 39.4465C25.3913 39.1963 25.4009 38.929 25.4926 38.6848C25.5843 38.4407 25.7531 38.233 25.9733 38.0934L37.88 30.4534C38.1487 30.2766 38.4767 30.2137 38.7918 30.2788C39.1068 30.3438 39.3832 30.5313 39.56 30.8C39.7368 31.0688 39.7996 31.3968 39.7346 31.7118C39.6696 32.0269 39.4821 32.3032 39.2133 32.48L27.2667 40.12C27.0752 40.2415 26.8533 40.3062 26.6267 40.3067V40.3067Z" fill="#1C253D"/>
<path d="M25.56 34.5867C25.2992 34.589 25.0448 34.5063 24.8352 34.3511C24.6256 34.1958 24.4723 33.9766 24.3985 33.7264C24.3246 33.4763 24.3343 33.2089 24.426 32.9648C24.5177 32.7206 24.6864 32.513 24.9067 32.3733L31.9067 27.88C32.1737 27.7032 32.4999 27.6397 32.8137 27.7034C33.1276 27.7672 33.4032 27.953 33.58 28.22C33.7568 28.487 33.8203 28.8133 33.7566 29.1271C33.6928 29.4409 33.507 29.7165 33.24 29.8933L26.2 34.4C26.0089 34.5221 25.7868 34.5869 25.56 34.5867V34.5867Z" fill="#1C253D"/>
<path d="M29.0799 7.58665C29.5163 8.28735 29.764 9.08898 29.799 9.91368C29.8341 10.7384 29.6552 11.5581 29.2799 12.2933L25.4399 20H28.4399L31.6799 13.5067C32.2558 12.367 32.5303 11.0989 32.4773 9.8231C32.4244 8.54732 32.0457 7.30633 31.3774 6.21831C30.7091 5.13029 29.7734 4.23147 28.6594 3.60744C27.5454 2.9834 26.2901 2.65494 25.0133 2.65332H18.0133L16.6799 5.31999H24.9733C25.7943 5.3162 26.6026 5.52248 27.3214 5.91922C28.0402 6.31596 28.6456 6.88996 29.0799 7.58665V7.58665Z" fill="#1C253D"/>
<path d="M44.2132 27.7066C43.7232 26.238 42.7834 24.9609 41.527 24.0563C40.2706 23.1516 38.7613 22.6655 37.2132 22.6666H12.7465C12.1096 22.6707 11.4784 22.5457 10.891 22.2994C10.3036 22.053 9.7722 21.6903 9.32871 21.2331C8.88522 20.7759 8.53885 20.2337 8.31047 19.6391C8.08209 19.0445 7.97642 18.4098 7.99982 17.7733C8.03094 17.0557 8.22228 16.3541 8.55983 15.72L14.2398 4.39998C14.399 4.08349 14.4258 3.71674 14.3146 3.38043C14.2033 3.04411 13.963 2.76577 13.6465 2.60664C13.33 2.44751 12.9633 2.42063 12.6269 2.5319C12.2906 2.64317 12.0123 2.88349 11.8532 3.19998L6.19982 14.4533C5.72644 15.3422 5.43542 16.3166 5.34383 17.3195C5.25224 18.3224 5.36194 19.3334 5.66649 20.2933C6.15856 21.7684 7.10442 23.0502 8.36883 23.9554C9.63325 24.8606 11.1515 25.3429 12.7065 25.3333H22.8398L18.2532 34.4933C17.4827 36.0284 17.261 37.781 17.6248 39.4596C17.9887 41.1382 18.9162 42.6417 20.2532 43.72C21.5582 44.7841 23.196 45.3553 24.8798 45.3333H31.8798L33.2132 42.6666H24.9065C24.0855 42.6741 23.2765 42.4697 22.5575 42.0732C21.8386 41.6767 21.2341 41.1014 20.8025 40.403C20.3709 39.7046 20.1266 38.9067 20.0935 38.0863C20.0603 37.266 20.2393 36.4509 20.6132 35.72L25.8132 25.3333H37.1998C38.2351 25.3142 39.2461 25.6481 40.0665 26.28C40.9397 26.9568 41.5502 27.9163 41.7935 28.994C42.0367 30.0716 41.8976 31.2003 41.3998 32.1866L35.9065 43.1466C35.7474 43.4631 35.7205 43.8299 35.8317 44.1662C35.943 44.5025 36.1833 44.7809 36.4998 44.94C36.8163 45.0991 37.1831 45.126 37.5194 45.0147C37.8557 44.9035 38.134 44.6631 38.2932 44.3466L43.7065 33.5466C44.1755 32.656 44.4619 31.6806 44.5489 30.6778C44.6359 29.6749 44.5218 28.6648 44.2132 27.7066Z" fill="#1C253D"/>
</svg>
