<svg fill="none" height="48" viewBox="0 0 49 48" width="49" xmlns="http://www.w3.org/2000/svg"><g fill="#1c253d"><path d="m41.48 27.92c.8773.1079 1.7221.3986 2.48.8533h.0667c.7874-3.7222.5054-7.5912-.8134-11.16-.1229-.3298-.3714-.5977-.6911-.7451-.3198-.1473-.6848-.1623-1.0155-.0415-.3299.123-.5978.3714-.7451.6912-.1474.3197-.1623.6847-.0416 1.0154 1.1019 3.0017 1.3647 6.2469.76 9.3867zm-6.04 10.1867c-2.3234 1.9382-5.1136 3.2345-8.0933 3.76-.1751.0149-.3456.0641-.5016.1448-.1561.0808-.2947.1915-.408.3258-.1133.1344-.199.2897-.2523.4572-.0533.1674-.073.3437-.0581.5188s.0641.3456.1448.5017c.0808.156.1915.2947.3258.408.1344.1132.2897.199.4572.2522.1674.0533.3437.073.5188.0581h.24c3.5515-.6264 6.8707-2.1917 9.6134-4.5333v-.0933c-.7851-.4487-1.463-1.0629-1.9867-1.8zm-14.28 3.68c-2.0173-.3764-3.9532-1.1029-5.72-2.1467-.7552-.4465-1.4812-.9408-2.1733-1.48-.5084.7468-1.1725 1.3745-1.9467 1.84.8658.7305 1.7888 1.3904 2.76 1.9733 2.0365 1.1996 4.2648 2.0386 6.5867 2.48h.2533c.3536.0319.7054-.0781.978-.3056.2725-.2276.4435-.5541.4753-.9077.0319-.3536-.0781-.7054-.3056-.9779-.2276-.2726-.5541-.4436-.9077-.4754zm-14.74666-13.5867c.26925-.0204.53663-.0605.8-.12-.6356-3.1439-.38635-6.4026.72-9.4133.122-.3324.10696-.6997-.04182-1.021s-.41911-.5704-.75151-.6924-.69966-.1069-1.02097.0419c-.32131.1487-.57036.4191-.69236.7515-1.32068 3.5977-1.57985 7.4992-.74667 11.24.53504-.3477 1.11936-.6129 1.73333-.7867z"/><path d="m42.8665 30.6666c-.4762-.303-1.0078-.5085-1.5639-.6046-.5562-.0961-1.1259-.081-1.6761.0446-.6976.1826-1.3389.5354-1.8667 1.0267l-5.16-2.9867c.8127-2.0077.8876-4.2385.2114-6.2962-.6761-2.0578-2.0596-3.8093-3.9047-4.9438l-.1467-.0933c-.9951-.5665-2.0911-.9333-3.2267-1.08v-5.0667c1.0625-.3178 1.9608-1.03456 2.5067-1.99996.589-.99712.7612-2.18626.4791-3.30948-.282-1.12322-.9956-2.08996-1.9858-2.69052-.4824-.28223-1.0162-.46533-1.5703-.5386-.5541-.07326-1.1172-.03521-1.6563.11193-.5559.14172-1.0781.39274-1.5359.73841-.4579.34568-.8423.77908-1.1308 1.27493-.5724.9923-.7352 2.16872-.4539 3.27919.2814 1.11047.9847 2.06744 1.9606 2.6675.3048.202.6371.3592.9866.4666v5.0667c-1.3428.1843-2.6254.6745-3.7488 1.4327-1.1235.7582-2.0579 1.7643-2.7312 2.9406-.6958 1.203-1.1079 2.5489-1.205 3.9353-.097 1.3863.1236 2.7765.645 4.0647l-5.3333 3.0534c-.1885-.1658-.389-.3174-.6-.4534-.48586-.2794-1.02201-.4603-1.57782-.5325-.5558-.0721-1.12038-.034-1.66147.1121s-1.04809.3974-1.49204.7395-.81615.7683-1.09534 1.2543c-.57597.9875-.74498 2.1604-.47122 3.2704s.96878 2.0698 1.93789 2.6762c.66424.4 1.42465.612 2.2.6134.35108.0025.7009-.0424 1.04-.1334.56885-.1451 1.1021-.4047 1.5673-.7629s.8524-.8074 1.1382-1.3202c.2857-.5129.464-1.0786.5238-1.6626.0598-.5841-.0001-1.1741-.176-1.7343l5.1734-2.9866c.6947.9066 1.5486 1.6791 2.52 2.28 1.864 1.1753 4.1063 1.5952 6.2693 1.174s4.0838-1.6518 5.3707-3.4407l5.1066 2.9467c-.2407.9093-.1827 1.8719.1654 2.7458s.9679 1.6127 1.768 2.1075c.6587.4014 1.4152.6136 2.1866.6133.7459.0028 1.4793-.1918 2.1256-.5642.6464-.3723 1.1827-.9091 1.5544-1.5558.5557-.9813.7133-2.1385.4403-3.2327-.2729-1.0942-.9555-2.0418-1.9069-2.6473zm-33.20004 4.8267c-.13319.2176-.30957.4056-.51826.5524-.20869.1467-.44525.2492-.69507.3009-.24281.0698-.49752.088-.74779.0536-.25028-.0345-.49059-.1208-.70554-.2536-.43604-.2705-.74954-.7003-.874-1.1981-.12445-.4979-.05009-1.0246.20733-1.4685.12603-.2183.29496-.4089.49662-.5601s.43185-.2601.67671-.3199c.1476-.0418.29998-.0642.45334-.0667.35442.0009.70127.1026 1 .2933.4428.2641.76466.691.89673 1.1894.13207.4983.06385 1.0286-.19007 1.4773zm13.04004-30.03999c.126-.21831.2949-.40883.4966-.56007.2016-.15124.4318-.26007.6767-.31993.1476-.04174.3-.06415.4533-.06667.3381.00159.6696.09366.96.26667.4361.27055.7496.70033.874 1.19816.1245.49784.0501 1.02458-.2073 1.4685-.126.21831-.295.40882-.4966.56007-.2017.15124-.4319.26007-.6767.31993-.2369.06402-.4843.0793-.7272.04492s-.4764-.1177-.6862-.24492c-.436-.27056-.7495-.70033-.874-1.19817-.1244-.49783-.0501-1.02457.2074-1.46849zm3.2133 25.75999c-.8246.2132-1.6834.2593-2.5261.1357-.8426-.1237-1.652-.4146-2.3806-.8557-1.5042-.9234-2.5876-2.3986-3.0186-4.1103-.4311-1.7116-.1755-3.524.712-5.0497.572-.9854 1.3928-1.8034 2.3803-2.372.9874-.5686 2.1069-.8679 3.2463-.868 1.1538-.0027 2.287.3059 3.28.8933 1.5043.9235 2.5877 2.3987 3.0187 4.1103.431 1.7117.1755 3.524-.712 5.0497-.4281.7525-1.0026 1.4115-1.6896 1.9382s-1.4726.9104-2.3104 1.1285zm16.3333 4.1067c-.2577.4411-.6795.7622-1.1733.8933-.2377.0621-.4856.0751-.7286.0385-.2429-.0367-.4759-.1224-.6847-.2518-.4361-.2706-.7496-.7004-.874-1.1982-.1245-.4978-.0501-1.0246.2073-1.4685.1197-.2365.2888-.4446.4958-.6102s.4472-.2849.7042-.3498c.1508-.0133.3025-.0133.4533 0 .3243-.0026.6428.0851.92.2533.4455.2687.7669.7024.8942 1.2068.1274.5044.0504 1.0386-.2142 1.4866zm-31.1866-21.9867c1.9101-2.2565 4.3657-3.98687 7.1333-5.02666-.2679-.89399-.3451-1.83428-.2267-2.76-3.467 1.15916-6.5545 3.23746-8.9333 6.01336-.23516.2687-.35393.6199-.33017.9762.02375.3563.18808.6886.45683.9238.26876.2351.61992.3539.97624.3301.3563-.0237.6886-.188.9238-.4568z"/><path d="m33.2266 9.64c1.6413.9848 3.1097 2.2325 4.3466 3.6933.1138.1331.2527.2425.4088.3218.1561.0794.3263.1273.5008.1409.1746.0136.3502-.0073.5167-.0615s.3206-.1407.4537-.2545.2424-.2527.3218-.4088.1273-.3263.1409-.5008c.0136-.1746-.0073-.3501-.0615-.5166s-.1407-.3207-.2545-.4538c-1.424-1.68938-3.118-3.13113-5.0133-4.26667-1.2431-.72276-2.5565-1.31694-3.92-1.77333.1338.9192.0656 1.85655-.2 2.74666.9547.36858 1.8778.81451 2.76 1.33334z"/></g></svg>