<svg width="49" height="48" viewBox="0 0 49 48" fill="none" xmlns="http://www.w3.org/2000/svg">
<path d="M45.12 8.25332C44.9564 8.12024 44.7635 8.02788 44.5572 7.98384C44.3509 7.93981 44.1371 7.94534 43.9334 7.99999L31.12 12L18.28 5.47999C18.1045 5.39876 17.9134 5.35669 17.72 5.35669C17.5266 5.35669 17.3355 5.39876 17.16 5.47999L3.82668 10.9333C3.58109 11.0342 3.37121 11.2061 3.22393 11.427C3.07666 11.648 2.99869 11.9078 3.00002 12.1733V39.48C3.0011 39.6984 3.05581 39.9131 3.15934 40.1054C3.26286 40.2977 3.41203 40.4616 3.59373 40.5827C3.77544 40.7039 3.98411 40.7785 4.20142 40.8001C4.41873 40.8217 4.63802 40.7896 4.84002 40.7067L17.6667 35.44L30.4534 42C30.6431 42.0972 30.8535 42.1475 31.0667 42.1467C31.1993 42.1668 31.3341 42.1668 31.4667 42.1467L44.8 37.9867C45.081 37.8986 45.3249 37.7201 45.4937 37.4789C45.6626 37.2377 45.7468 36.9474 45.7333 36.6533V9.33332C45.7264 9.11705 45.667 8.90571 45.5601 8.71755C45.4533 8.52939 45.3022 8.37006 45.12 8.25332V8.25332ZM43 35.6667L31.9067 39.1333V36.08H29.7734V38.7467L18.5734 33V30.7467H16.44V33.04L5.66668 37.48V13.0533L16.44 8.61332V11.7467H18.5734V8.62666L29.7734 14.36V17.16H31.9067V14.6667L43 11.1467V35.6667Z" fill="#1C253D"/>
<path d="M29.7732 20.08H31.9065V25.16H29.7732V20.08Z" fill="#1C253D"/>
<path d="M29.7732 28.08H31.9065V33.16H29.7732V28.08Z" fill="#1C253D"/>
<path d="M16.4399 14.7466H18.5733V19.8266H16.4399V14.7466Z" fill="#1C253D"/>
<path d="M16.4399 22.84H18.5733V27.84H16.4399V22.84Z" fill="#1C253D"/>
</svg>
